G04 #@! TF.GenerationSoftware,KiCad,Pcbnew,(5.1.2-1)-1*
G04 #@! TF.CreationDate,2019-05-23T08:12:27-07:00*
G04 #@! TF.ProjectId,ButtonBoard,42757474-6f6e-4426-9f61-72642e6b6963,rev?*
G04 #@! TF.SameCoordinates,Original*
G04 #@! TF.FileFunction,Copper,L2,Bot*
G04 #@! TF.FilePolarity,Positive*
%FSLAX46Y46*%
G04 Gerber Fmt 4.6, Leading zero omitted, Abs format (unit mm)*
G04 Created by KiCad (PCBNEW (5.1.2-1)-1) date 2019-05-23 08:12:27*
%MOMM*%
%LPD*%
G04 APERTURE LIST*
%ADD10C,3.250000*%
%ADD11R,1.800000X1.800000*%
%ADD12C,1.800000*%
%ADD13O,1.350000X1.350000*%
%ADD14R,1.350000X1.350000*%
%ADD15O,1.400000X1.400000*%
%ADD16C,1.400000*%
%ADD17C,0.508000*%
%ADD18C,0.254000*%
G04 APERTURE END LIST*
D10*
X82400000Y-55205000D03*
X82400000Y-60005000D03*
X82400000Y-64805000D03*
X87700000Y-55205000D03*
X87700000Y-60005000D03*
X87700000Y-64805000D03*
X93000000Y-55205000D03*
X93000000Y-60005000D03*
X93000000Y-64805000D03*
D11*
X88900000Y-48895000D03*
D12*
X86360000Y-48895000D03*
D13*
X75184000Y-59276000D03*
X75184000Y-57276000D03*
X75184000Y-55276000D03*
X75184000Y-53276000D03*
X75184000Y-51276000D03*
D14*
X75184000Y-49276000D03*
D15*
X83032600Y-48869600D03*
D16*
X77952600Y-48869600D03*
D17*
X75858999Y-57950999D02*
X76238999Y-57950999D01*
X75184000Y-57276000D02*
X75858999Y-57950999D01*
X90920999Y-62084001D02*
X91375001Y-61629999D01*
X80372001Y-62084001D02*
X90920999Y-62084001D01*
X91375001Y-61629999D02*
X93000000Y-60005000D01*
X76238999Y-57950999D02*
X80372001Y-62084001D01*
X93000000Y-55205000D02*
X87700000Y-55205000D01*
D18*
G36*
X76915638Y-48018587D02*
G01*
X76769539Y-48237241D01*
X76668904Y-48480195D01*
X76617600Y-48738114D01*
X76617600Y-49001086D01*
X76668904Y-49259005D01*
X76769539Y-49501959D01*
X76915638Y-49720613D01*
X77101587Y-49906562D01*
X77320241Y-50052661D01*
X77563195Y-50153296D01*
X77821114Y-50204600D01*
X78084086Y-50204600D01*
X78342005Y-50153296D01*
X78584959Y-50052661D01*
X78803613Y-49906562D01*
X78989562Y-49720613D01*
X79135661Y-49501959D01*
X79236296Y-49259005D01*
X79287600Y-49001086D01*
X79287600Y-48738114D01*
X79236296Y-48480195D01*
X79135661Y-48237241D01*
X78989562Y-48018587D01*
X78874975Y-47904000D01*
X82104814Y-47904000D01*
X82084045Y-47921045D01*
X81917218Y-48124325D01*
X81793253Y-48356246D01*
X81716917Y-48607894D01*
X81691141Y-48869600D01*
X81716917Y-49131306D01*
X81793253Y-49382954D01*
X81917218Y-49614875D01*
X82084045Y-49818155D01*
X82287325Y-49984982D01*
X82519246Y-50108947D01*
X82770894Y-50185283D01*
X82967021Y-50204600D01*
X83098179Y-50204600D01*
X83294306Y-50185283D01*
X83545954Y-50108947D01*
X83777875Y-49984982D01*
X83981155Y-49818155D01*
X84147982Y-49614875D01*
X84271947Y-49382954D01*
X84348283Y-49131306D01*
X84374059Y-48869600D01*
X84348283Y-48607894D01*
X84271947Y-48356246D01*
X84147982Y-48124325D01*
X83981155Y-47921045D01*
X83960386Y-47904000D01*
X85180183Y-47904000D01*
X85167688Y-47916495D01*
X84999701Y-48167905D01*
X84883989Y-48447257D01*
X84825000Y-48743816D01*
X84825000Y-49046184D01*
X84883989Y-49342743D01*
X84999701Y-49622095D01*
X85167688Y-49873505D01*
X85381495Y-50087312D01*
X85632905Y-50255299D01*
X85912257Y-50371011D01*
X86208816Y-50430000D01*
X86511184Y-50430000D01*
X86807743Y-50371011D01*
X87087095Y-50255299D01*
X87338505Y-50087312D01*
X87404944Y-50020873D01*
X87410498Y-50039180D01*
X87469463Y-50149494D01*
X87548815Y-50246185D01*
X87645506Y-50325537D01*
X87755820Y-50384502D01*
X87875518Y-50420812D01*
X88000000Y-50433072D01*
X89800000Y-50433072D01*
X89924482Y-50420812D01*
X90044180Y-50384502D01*
X90154494Y-50325537D01*
X90251185Y-50246185D01*
X90330537Y-50149494D01*
X90389502Y-50039180D01*
X90425812Y-49919482D01*
X90438072Y-49795000D01*
X90438072Y-47995000D01*
X90429110Y-47904000D01*
X98400000Y-47904000D01*
X98400001Y-68936000D01*
X74066000Y-68936000D01*
X74066000Y-59963343D01*
X74089505Y-60007318D01*
X74253208Y-60206792D01*
X74452682Y-60370495D01*
X74680259Y-60492138D01*
X74927195Y-60567045D01*
X75119649Y-60586000D01*
X75248351Y-60586000D01*
X75440805Y-60567045D01*
X75687741Y-60492138D01*
X75915318Y-60370495D01*
X76114792Y-60206792D01*
X76278495Y-60007318D01*
X76400138Y-59779741D01*
X76475045Y-59532805D01*
X76482982Y-59452217D01*
X79712507Y-62681743D01*
X79740342Y-62715660D01*
X79875710Y-62826754D01*
X80030150Y-62909304D01*
X80096059Y-62929297D01*
X80197725Y-62960137D01*
X80230925Y-62963407D01*
X80328334Y-62973001D01*
X80328340Y-62973001D01*
X80372000Y-62977301D01*
X80415660Y-62973001D01*
X81073889Y-62973001D01*
X80959334Y-63049544D01*
X80644544Y-63364334D01*
X80397214Y-63734489D01*
X80226851Y-64145782D01*
X80140000Y-64582409D01*
X80140000Y-65027591D01*
X80226851Y-65464218D01*
X80397214Y-65875511D01*
X80644544Y-66245666D01*
X80959334Y-66560456D01*
X81329489Y-66807786D01*
X81740782Y-66978149D01*
X82177409Y-67065000D01*
X82622591Y-67065000D01*
X83059218Y-66978149D01*
X83470511Y-66807786D01*
X83840666Y-66560456D01*
X84155456Y-66245666D01*
X84402786Y-65875511D01*
X84573149Y-65464218D01*
X84660000Y-65027591D01*
X84660000Y-64582409D01*
X84573149Y-64145782D01*
X84402786Y-63734489D01*
X84155456Y-63364334D01*
X83840666Y-63049544D01*
X83726111Y-62973001D01*
X86373889Y-62973001D01*
X86259334Y-63049544D01*
X85944544Y-63364334D01*
X85697214Y-63734489D01*
X85526851Y-64145782D01*
X85440000Y-64582409D01*
X85440000Y-65027591D01*
X85526851Y-65464218D01*
X85697214Y-65875511D01*
X85944544Y-66245666D01*
X86259334Y-66560456D01*
X86629489Y-66807786D01*
X87040782Y-66978149D01*
X87477409Y-67065000D01*
X87922591Y-67065000D01*
X88359218Y-66978149D01*
X88770511Y-66807786D01*
X89140666Y-66560456D01*
X89455456Y-66245666D01*
X89702786Y-65875511D01*
X89873149Y-65464218D01*
X89960000Y-65027591D01*
X89960000Y-64582409D01*
X90740000Y-64582409D01*
X90740000Y-65027591D01*
X90826851Y-65464218D01*
X90997214Y-65875511D01*
X91244544Y-66245666D01*
X91559334Y-66560456D01*
X91929489Y-66807786D01*
X92340782Y-66978149D01*
X92777409Y-67065000D01*
X93222591Y-67065000D01*
X93659218Y-66978149D01*
X94070511Y-66807786D01*
X94440666Y-66560456D01*
X94755456Y-66245666D01*
X95002786Y-65875511D01*
X95173149Y-65464218D01*
X95260000Y-65027591D01*
X95260000Y-64582409D01*
X95173149Y-64145782D01*
X95002786Y-63734489D01*
X94755456Y-63364334D01*
X94440666Y-63049544D01*
X94070511Y-62802214D01*
X93659218Y-62631851D01*
X93222591Y-62545000D01*
X92777409Y-62545000D01*
X92340782Y-62631851D01*
X91929489Y-62802214D01*
X91559334Y-63049544D01*
X91244544Y-63364334D01*
X90997214Y-63734489D01*
X90826851Y-64145782D01*
X90740000Y-64582409D01*
X89960000Y-64582409D01*
X89873149Y-64145782D01*
X89702786Y-63734489D01*
X89455456Y-63364334D01*
X89140666Y-63049544D01*
X89026111Y-62973001D01*
X90877339Y-62973001D01*
X90920999Y-62977301D01*
X90964659Y-62973001D01*
X90964666Y-62973001D01*
X91095273Y-62960137D01*
X91262850Y-62909304D01*
X91417290Y-62826754D01*
X91552658Y-62715660D01*
X91580498Y-62681737D01*
X92034496Y-62227739D01*
X92159271Y-62102965D01*
X92340782Y-62178149D01*
X92777409Y-62265000D01*
X93222591Y-62265000D01*
X93659218Y-62178149D01*
X94070511Y-62007786D01*
X94440666Y-61760456D01*
X94755456Y-61445666D01*
X95002786Y-61075511D01*
X95173149Y-60664218D01*
X95260000Y-60227591D01*
X95260000Y-59782409D01*
X95173149Y-59345782D01*
X95002786Y-58934489D01*
X94755456Y-58564334D01*
X94440666Y-58249544D01*
X94070511Y-58002214D01*
X93659218Y-57831851D01*
X93222591Y-57745000D01*
X92777409Y-57745000D01*
X92340782Y-57831851D01*
X91929489Y-58002214D01*
X91559334Y-58249544D01*
X91244544Y-58564334D01*
X90997214Y-58934489D01*
X90826851Y-59345782D01*
X90740000Y-59782409D01*
X90740000Y-60227591D01*
X90826851Y-60664218D01*
X90902035Y-60845729D01*
X90777261Y-60970504D01*
X90552764Y-61195001D01*
X89622945Y-61195001D01*
X89702786Y-61075511D01*
X89873149Y-60664218D01*
X89960000Y-60227591D01*
X89960000Y-59782409D01*
X89873149Y-59345782D01*
X89702786Y-58934489D01*
X89455456Y-58564334D01*
X89140666Y-58249544D01*
X88770511Y-58002214D01*
X88359218Y-57831851D01*
X87922591Y-57745000D01*
X87477409Y-57745000D01*
X87040782Y-57831851D01*
X86629489Y-58002214D01*
X86259334Y-58249544D01*
X85944544Y-58564334D01*
X85697214Y-58934489D01*
X85526851Y-59345782D01*
X85440000Y-59782409D01*
X85440000Y-60227591D01*
X85526851Y-60664218D01*
X85697214Y-61075511D01*
X85777055Y-61195001D01*
X84329522Y-61195001D01*
X84512277Y-60838927D01*
X84634381Y-60410818D01*
X84670619Y-59967115D01*
X84619599Y-59524867D01*
X84483281Y-59101070D01*
X84308999Y-58775012D01*
X83980640Y-58603965D01*
X82579605Y-60005000D01*
X82593748Y-60019143D01*
X82414143Y-60198748D01*
X82400000Y-60184605D01*
X82385858Y-60198748D01*
X82206253Y-60019143D01*
X82220395Y-60005000D01*
X80819360Y-58603965D01*
X80491001Y-58775012D01*
X80287723Y-59171073D01*
X80165619Y-59599182D01*
X80129381Y-60042885D01*
X80180401Y-60485133D01*
X80251544Y-60706308D01*
X77969596Y-58424360D01*
X80998965Y-58424360D01*
X82400000Y-59825395D01*
X83801035Y-58424360D01*
X83629988Y-58096001D01*
X83233927Y-57892723D01*
X82805818Y-57770619D01*
X82362115Y-57734381D01*
X81919867Y-57785401D01*
X81496070Y-57921719D01*
X81170012Y-58096001D01*
X80998965Y-58424360D01*
X77969596Y-58424360D01*
X76898498Y-57353263D01*
X76870658Y-57319340D01*
X76735290Y-57208246D01*
X76580850Y-57125696D01*
X76482599Y-57095892D01*
X76475045Y-57019195D01*
X76400138Y-56772259D01*
X76278495Y-56544682D01*
X76114792Y-56345208D01*
X76030461Y-56276000D01*
X76114792Y-56206792D01*
X76278495Y-56007318D01*
X76400138Y-55779741D01*
X76475045Y-55532805D01*
X76500338Y-55276000D01*
X76475045Y-55019195D01*
X76463887Y-54982409D01*
X80140000Y-54982409D01*
X80140000Y-55427591D01*
X80226851Y-55864218D01*
X80397214Y-56275511D01*
X80644544Y-56645666D01*
X80959334Y-56960456D01*
X81329489Y-57207786D01*
X81740782Y-57378149D01*
X82177409Y-57465000D01*
X82622591Y-57465000D01*
X83059218Y-57378149D01*
X83470511Y-57207786D01*
X83840666Y-56960456D01*
X84155456Y-56645666D01*
X84402786Y-56275511D01*
X84573149Y-55864218D01*
X84660000Y-55427591D01*
X84660000Y-54982409D01*
X85440000Y-54982409D01*
X85440000Y-55427591D01*
X85526851Y-55864218D01*
X85697214Y-56275511D01*
X85944544Y-56645666D01*
X86259334Y-56960456D01*
X86629489Y-57207786D01*
X87040782Y-57378149D01*
X87477409Y-57465000D01*
X87922591Y-57465000D01*
X88359218Y-57378149D01*
X88770511Y-57207786D01*
X89140666Y-56960456D01*
X89455456Y-56645666D01*
X89702786Y-56275511D01*
X89777970Y-56094000D01*
X90922030Y-56094000D01*
X90997214Y-56275511D01*
X91244544Y-56645666D01*
X91559334Y-56960456D01*
X91929489Y-57207786D01*
X92340782Y-57378149D01*
X92777409Y-57465000D01*
X93222591Y-57465000D01*
X93659218Y-57378149D01*
X94070511Y-57207786D01*
X94440666Y-56960456D01*
X94755456Y-56645666D01*
X95002786Y-56275511D01*
X95173149Y-55864218D01*
X95260000Y-55427591D01*
X95260000Y-54982409D01*
X95173149Y-54545782D01*
X95002786Y-54134489D01*
X94755456Y-53764334D01*
X94440666Y-53449544D01*
X94070511Y-53202214D01*
X93659218Y-53031851D01*
X93222591Y-52945000D01*
X92777409Y-52945000D01*
X92340782Y-53031851D01*
X91929489Y-53202214D01*
X91559334Y-53449544D01*
X91244544Y-53764334D01*
X90997214Y-54134489D01*
X90922030Y-54316000D01*
X89777970Y-54316000D01*
X89702786Y-54134489D01*
X89455456Y-53764334D01*
X89140666Y-53449544D01*
X88770511Y-53202214D01*
X88359218Y-53031851D01*
X87922591Y-52945000D01*
X87477409Y-52945000D01*
X87040782Y-53031851D01*
X86629489Y-53202214D01*
X86259334Y-53449544D01*
X85944544Y-53764334D01*
X85697214Y-54134489D01*
X85526851Y-54545782D01*
X85440000Y-54982409D01*
X84660000Y-54982409D01*
X84573149Y-54545782D01*
X84402786Y-54134489D01*
X84155456Y-53764334D01*
X83840666Y-53449544D01*
X83470511Y-53202214D01*
X83059218Y-53031851D01*
X82622591Y-52945000D01*
X82177409Y-52945000D01*
X81740782Y-53031851D01*
X81329489Y-53202214D01*
X80959334Y-53449544D01*
X80644544Y-53764334D01*
X80397214Y-54134489D01*
X80226851Y-54545782D01*
X80140000Y-54982409D01*
X76463887Y-54982409D01*
X76400138Y-54772259D01*
X76278495Y-54544682D01*
X76114792Y-54345208D01*
X76030461Y-54276000D01*
X76114792Y-54206792D01*
X76278495Y-54007318D01*
X76400138Y-53779741D01*
X76475045Y-53532805D01*
X76500338Y-53276000D01*
X76475045Y-53019195D01*
X76400138Y-52772259D01*
X76278495Y-52544682D01*
X76114792Y-52345208D01*
X76030461Y-52276000D01*
X76114792Y-52206792D01*
X76278495Y-52007318D01*
X76400138Y-51779741D01*
X76475045Y-51532805D01*
X76500338Y-51276000D01*
X76475045Y-51019195D01*
X76400138Y-50772259D01*
X76278495Y-50544682D01*
X76221369Y-50475074D01*
X76310185Y-50402185D01*
X76389537Y-50305494D01*
X76448502Y-50195180D01*
X76484812Y-50075482D01*
X76497072Y-49951000D01*
X76494000Y-49561750D01*
X76335250Y-49403000D01*
X75311000Y-49403000D01*
X75311000Y-49423000D01*
X75057000Y-49423000D01*
X75057000Y-49403000D01*
X75037000Y-49403000D01*
X75037000Y-49149000D01*
X75057000Y-49149000D01*
X75057000Y-48124750D01*
X75311000Y-48124750D01*
X75311000Y-49149000D01*
X76335250Y-49149000D01*
X76494000Y-48990250D01*
X76497072Y-48601000D01*
X76484812Y-48476518D01*
X76448502Y-48356820D01*
X76389537Y-48246506D01*
X76310185Y-48149815D01*
X76213494Y-48070463D01*
X76103180Y-48011498D01*
X75983482Y-47975188D01*
X75859000Y-47962928D01*
X75469750Y-47966000D01*
X75311000Y-48124750D01*
X75057000Y-48124750D01*
X74898250Y-47966000D01*
X74509000Y-47962928D01*
X74384518Y-47975188D01*
X74264820Y-48011498D01*
X74154506Y-48070463D01*
X74066000Y-48143098D01*
X74066000Y-47904000D01*
X77030225Y-47904000D01*
X76915638Y-48018587D01*
X76915638Y-48018587D01*
G37*
X76915638Y-48018587D02*
X76769539Y-48237241D01*
X76668904Y-48480195D01*
X76617600Y-48738114D01*
X76617600Y-49001086D01*
X76668904Y-49259005D01*
X76769539Y-49501959D01*
X76915638Y-49720613D01*
X77101587Y-49906562D01*
X77320241Y-50052661D01*
X77563195Y-50153296D01*
X77821114Y-50204600D01*
X78084086Y-50204600D01*
X78342005Y-50153296D01*
X78584959Y-50052661D01*
X78803613Y-49906562D01*
X78989562Y-49720613D01*
X79135661Y-49501959D01*
X79236296Y-49259005D01*
X79287600Y-49001086D01*
X79287600Y-48738114D01*
X79236296Y-48480195D01*
X79135661Y-48237241D01*
X78989562Y-48018587D01*
X78874975Y-47904000D01*
X82104814Y-47904000D01*
X82084045Y-47921045D01*
X81917218Y-48124325D01*
X81793253Y-48356246D01*
X81716917Y-48607894D01*
X81691141Y-48869600D01*
X81716917Y-49131306D01*
X81793253Y-49382954D01*
X81917218Y-49614875D01*
X82084045Y-49818155D01*
X82287325Y-49984982D01*
X82519246Y-50108947D01*
X82770894Y-50185283D01*
X82967021Y-50204600D01*
X83098179Y-50204600D01*
X83294306Y-50185283D01*
X83545954Y-50108947D01*
X83777875Y-49984982D01*
X83981155Y-49818155D01*
X84147982Y-49614875D01*
X84271947Y-49382954D01*
X84348283Y-49131306D01*
X84374059Y-48869600D01*
X84348283Y-48607894D01*
X84271947Y-48356246D01*
X84147982Y-48124325D01*
X83981155Y-47921045D01*
X83960386Y-47904000D01*
X85180183Y-47904000D01*
X85167688Y-47916495D01*
X84999701Y-48167905D01*
X84883989Y-48447257D01*
X84825000Y-48743816D01*
X84825000Y-49046184D01*
X84883989Y-49342743D01*
X84999701Y-49622095D01*
X85167688Y-49873505D01*
X85381495Y-50087312D01*
X85632905Y-50255299D01*
X85912257Y-50371011D01*
X86208816Y-50430000D01*
X86511184Y-50430000D01*
X86807743Y-50371011D01*
X87087095Y-50255299D01*
X87338505Y-50087312D01*
X87404944Y-50020873D01*
X87410498Y-50039180D01*
X87469463Y-50149494D01*
X87548815Y-50246185D01*
X87645506Y-50325537D01*
X87755820Y-50384502D01*
X87875518Y-50420812D01*
X88000000Y-50433072D01*
X89800000Y-50433072D01*
X89924482Y-50420812D01*
X90044180Y-50384502D01*
X90154494Y-50325537D01*
X90251185Y-50246185D01*
X90330537Y-50149494D01*
X90389502Y-50039180D01*
X90425812Y-49919482D01*
X90438072Y-49795000D01*
X90438072Y-47995000D01*
X90429110Y-47904000D01*
X98400000Y-47904000D01*
X98400001Y-68936000D01*
X74066000Y-68936000D01*
X74066000Y-59963343D01*
X74089505Y-60007318D01*
X74253208Y-60206792D01*
X74452682Y-60370495D01*
X74680259Y-60492138D01*
X74927195Y-60567045D01*
X75119649Y-60586000D01*
X75248351Y-60586000D01*
X75440805Y-60567045D01*
X75687741Y-60492138D01*
X75915318Y-60370495D01*
X76114792Y-60206792D01*
X76278495Y-60007318D01*
X76400138Y-59779741D01*
X76475045Y-59532805D01*
X76482982Y-59452217D01*
X79712507Y-62681743D01*
X79740342Y-62715660D01*
X79875710Y-62826754D01*
X80030150Y-62909304D01*
X80096059Y-62929297D01*
X80197725Y-62960137D01*
X80230925Y-62963407D01*
X80328334Y-62973001D01*
X80328340Y-62973001D01*
X80372000Y-62977301D01*
X80415660Y-62973001D01*
X81073889Y-62973001D01*
X80959334Y-63049544D01*
X80644544Y-63364334D01*
X80397214Y-63734489D01*
X80226851Y-64145782D01*
X80140000Y-64582409D01*
X80140000Y-65027591D01*
X80226851Y-65464218D01*
X80397214Y-65875511D01*
X80644544Y-66245666D01*
X80959334Y-66560456D01*
X81329489Y-66807786D01*
X81740782Y-66978149D01*
X82177409Y-67065000D01*
X82622591Y-67065000D01*
X83059218Y-66978149D01*
X83470511Y-66807786D01*
X83840666Y-66560456D01*
X84155456Y-66245666D01*
X84402786Y-65875511D01*
X84573149Y-65464218D01*
X84660000Y-65027591D01*
X84660000Y-64582409D01*
X84573149Y-64145782D01*
X84402786Y-63734489D01*
X84155456Y-63364334D01*
X83840666Y-63049544D01*
X83726111Y-62973001D01*
X86373889Y-62973001D01*
X86259334Y-63049544D01*
X85944544Y-63364334D01*
X85697214Y-63734489D01*
X85526851Y-64145782D01*
X85440000Y-64582409D01*
X85440000Y-65027591D01*
X85526851Y-65464218D01*
X85697214Y-65875511D01*
X85944544Y-66245666D01*
X86259334Y-66560456D01*
X86629489Y-66807786D01*
X87040782Y-66978149D01*
X87477409Y-67065000D01*
X87922591Y-67065000D01*
X88359218Y-66978149D01*
X88770511Y-66807786D01*
X89140666Y-66560456D01*
X89455456Y-66245666D01*
X89702786Y-65875511D01*
X89873149Y-65464218D01*
X89960000Y-65027591D01*
X89960000Y-64582409D01*
X90740000Y-64582409D01*
X90740000Y-65027591D01*
X90826851Y-65464218D01*
X90997214Y-65875511D01*
X91244544Y-66245666D01*
X91559334Y-66560456D01*
X91929489Y-66807786D01*
X92340782Y-66978149D01*
X92777409Y-67065000D01*
X93222591Y-67065000D01*
X93659218Y-66978149D01*
X94070511Y-66807786D01*
X94440666Y-66560456D01*
X94755456Y-66245666D01*
X95002786Y-65875511D01*
X95173149Y-65464218D01*
X95260000Y-65027591D01*
X95260000Y-64582409D01*
X95173149Y-64145782D01*
X95002786Y-63734489D01*
X94755456Y-63364334D01*
X94440666Y-63049544D01*
X94070511Y-62802214D01*
X93659218Y-62631851D01*
X93222591Y-62545000D01*
X92777409Y-62545000D01*
X92340782Y-62631851D01*
X91929489Y-62802214D01*
X91559334Y-63049544D01*
X91244544Y-63364334D01*
X90997214Y-63734489D01*
X90826851Y-64145782D01*
X90740000Y-64582409D01*
X89960000Y-64582409D01*
X89873149Y-64145782D01*
X89702786Y-63734489D01*
X89455456Y-63364334D01*
X89140666Y-63049544D01*
X89026111Y-62973001D01*
X90877339Y-62973001D01*
X90920999Y-62977301D01*
X90964659Y-62973001D01*
X90964666Y-62973001D01*
X91095273Y-62960137D01*
X91262850Y-62909304D01*
X91417290Y-62826754D01*
X91552658Y-62715660D01*
X91580498Y-62681737D01*
X92034496Y-62227739D01*
X92159271Y-62102965D01*
X92340782Y-62178149D01*
X92777409Y-62265000D01*
X93222591Y-62265000D01*
X93659218Y-62178149D01*
X94070511Y-62007786D01*
X94440666Y-61760456D01*
X94755456Y-61445666D01*
X95002786Y-61075511D01*
X95173149Y-60664218D01*
X95260000Y-60227591D01*
X95260000Y-59782409D01*
X95173149Y-59345782D01*
X95002786Y-58934489D01*
X94755456Y-58564334D01*
X94440666Y-58249544D01*
X94070511Y-58002214D01*
X93659218Y-57831851D01*
X93222591Y-57745000D01*
X92777409Y-57745000D01*
X92340782Y-57831851D01*
X91929489Y-58002214D01*
X91559334Y-58249544D01*
X91244544Y-58564334D01*
X90997214Y-58934489D01*
X90826851Y-59345782D01*
X90740000Y-59782409D01*
X90740000Y-60227591D01*
X90826851Y-60664218D01*
X90902035Y-60845729D01*
X90777261Y-60970504D01*
X90552764Y-61195001D01*
X89622945Y-61195001D01*
X89702786Y-61075511D01*
X89873149Y-60664218D01*
X89960000Y-60227591D01*
X89960000Y-59782409D01*
X89873149Y-59345782D01*
X89702786Y-58934489D01*
X89455456Y-58564334D01*
X89140666Y-58249544D01*
X88770511Y-58002214D01*
X88359218Y-57831851D01*
X87922591Y-57745000D01*
X87477409Y-57745000D01*
X87040782Y-57831851D01*
X86629489Y-58002214D01*
X86259334Y-58249544D01*
X85944544Y-58564334D01*
X85697214Y-58934489D01*
X85526851Y-59345782D01*
X85440000Y-59782409D01*
X85440000Y-60227591D01*
X85526851Y-60664218D01*
X85697214Y-61075511D01*
X85777055Y-61195001D01*
X84329522Y-61195001D01*
X84512277Y-60838927D01*
X84634381Y-60410818D01*
X84670619Y-59967115D01*
X84619599Y-59524867D01*
X84483281Y-59101070D01*
X84308999Y-58775012D01*
X83980640Y-58603965D01*
X82579605Y-60005000D01*
X82593748Y-60019143D01*
X82414143Y-60198748D01*
X82400000Y-60184605D01*
X82385858Y-60198748D01*
X82206253Y-60019143D01*
X82220395Y-60005000D01*
X80819360Y-58603965D01*
X80491001Y-58775012D01*
X80287723Y-59171073D01*
X80165619Y-59599182D01*
X80129381Y-60042885D01*
X80180401Y-60485133D01*
X80251544Y-60706308D01*
X77969596Y-58424360D01*
X80998965Y-58424360D01*
X82400000Y-59825395D01*
X83801035Y-58424360D01*
X83629988Y-58096001D01*
X83233927Y-57892723D01*
X82805818Y-57770619D01*
X82362115Y-57734381D01*
X81919867Y-57785401D01*
X81496070Y-57921719D01*
X81170012Y-58096001D01*
X80998965Y-58424360D01*
X77969596Y-58424360D01*
X76898498Y-57353263D01*
X76870658Y-57319340D01*
X76735290Y-57208246D01*
X76580850Y-57125696D01*
X76482599Y-57095892D01*
X76475045Y-57019195D01*
X76400138Y-56772259D01*
X76278495Y-56544682D01*
X76114792Y-56345208D01*
X76030461Y-56276000D01*
X76114792Y-56206792D01*
X76278495Y-56007318D01*
X76400138Y-55779741D01*
X76475045Y-55532805D01*
X76500338Y-55276000D01*
X76475045Y-55019195D01*
X76463887Y-54982409D01*
X80140000Y-54982409D01*
X80140000Y-55427591D01*
X80226851Y-55864218D01*
X80397214Y-56275511D01*
X80644544Y-56645666D01*
X80959334Y-56960456D01*
X81329489Y-57207786D01*
X81740782Y-57378149D01*
X82177409Y-57465000D01*
X82622591Y-57465000D01*
X83059218Y-57378149D01*
X83470511Y-57207786D01*
X83840666Y-56960456D01*
X84155456Y-56645666D01*
X84402786Y-56275511D01*
X84573149Y-55864218D01*
X84660000Y-55427591D01*
X84660000Y-54982409D01*
X85440000Y-54982409D01*
X85440000Y-55427591D01*
X85526851Y-55864218D01*
X85697214Y-56275511D01*
X85944544Y-56645666D01*
X86259334Y-56960456D01*
X86629489Y-57207786D01*
X87040782Y-57378149D01*
X87477409Y-57465000D01*
X87922591Y-57465000D01*
X88359218Y-57378149D01*
X88770511Y-57207786D01*
X89140666Y-56960456D01*
X89455456Y-56645666D01*
X89702786Y-56275511D01*
X89777970Y-56094000D01*
X90922030Y-56094000D01*
X90997214Y-56275511D01*
X91244544Y-56645666D01*
X91559334Y-56960456D01*
X91929489Y-57207786D01*
X92340782Y-57378149D01*
X92777409Y-57465000D01*
X93222591Y-57465000D01*
X93659218Y-57378149D01*
X94070511Y-57207786D01*
X94440666Y-56960456D01*
X94755456Y-56645666D01*
X95002786Y-56275511D01*
X95173149Y-55864218D01*
X95260000Y-55427591D01*
X95260000Y-54982409D01*
X95173149Y-54545782D01*
X95002786Y-54134489D01*
X94755456Y-53764334D01*
X94440666Y-53449544D01*
X94070511Y-53202214D01*
X93659218Y-53031851D01*
X93222591Y-52945000D01*
X92777409Y-52945000D01*
X92340782Y-53031851D01*
X91929489Y-53202214D01*
X91559334Y-53449544D01*
X91244544Y-53764334D01*
X90997214Y-54134489D01*
X90922030Y-54316000D01*
X89777970Y-54316000D01*
X89702786Y-54134489D01*
X89455456Y-53764334D01*
X89140666Y-53449544D01*
X88770511Y-53202214D01*
X88359218Y-53031851D01*
X87922591Y-52945000D01*
X87477409Y-52945000D01*
X87040782Y-53031851D01*
X86629489Y-53202214D01*
X86259334Y-53449544D01*
X85944544Y-53764334D01*
X85697214Y-54134489D01*
X85526851Y-54545782D01*
X85440000Y-54982409D01*
X84660000Y-54982409D01*
X84573149Y-54545782D01*
X84402786Y-54134489D01*
X84155456Y-53764334D01*
X83840666Y-53449544D01*
X83470511Y-53202214D01*
X83059218Y-53031851D01*
X82622591Y-52945000D01*
X82177409Y-52945000D01*
X81740782Y-53031851D01*
X81329489Y-53202214D01*
X80959334Y-53449544D01*
X80644544Y-53764334D01*
X80397214Y-54134489D01*
X80226851Y-54545782D01*
X80140000Y-54982409D01*
X76463887Y-54982409D01*
X76400138Y-54772259D01*
X76278495Y-54544682D01*
X76114792Y-54345208D01*
X76030461Y-54276000D01*
X76114792Y-54206792D01*
X76278495Y-54007318D01*
X76400138Y-53779741D01*
X76475045Y-53532805D01*
X76500338Y-53276000D01*
X76475045Y-53019195D01*
X76400138Y-52772259D01*
X76278495Y-52544682D01*
X76114792Y-52345208D01*
X76030461Y-52276000D01*
X76114792Y-52206792D01*
X76278495Y-52007318D01*
X76400138Y-51779741D01*
X76475045Y-51532805D01*
X76500338Y-51276000D01*
X76475045Y-51019195D01*
X76400138Y-50772259D01*
X76278495Y-50544682D01*
X76221369Y-50475074D01*
X76310185Y-50402185D01*
X76389537Y-50305494D01*
X76448502Y-50195180D01*
X76484812Y-50075482D01*
X76497072Y-49951000D01*
X76494000Y-49561750D01*
X76335250Y-49403000D01*
X75311000Y-49403000D01*
X75311000Y-49423000D01*
X75057000Y-49423000D01*
X75057000Y-49403000D01*
X75037000Y-49403000D01*
X75037000Y-49149000D01*
X75057000Y-49149000D01*
X75057000Y-48124750D01*
X75311000Y-48124750D01*
X75311000Y-49149000D01*
X76335250Y-49149000D01*
X76494000Y-48990250D01*
X76497072Y-48601000D01*
X76484812Y-48476518D01*
X76448502Y-48356820D01*
X76389537Y-48246506D01*
X76310185Y-48149815D01*
X76213494Y-48070463D01*
X76103180Y-48011498D01*
X75983482Y-47975188D01*
X75859000Y-47962928D01*
X75469750Y-47966000D01*
X75311000Y-48124750D01*
X75057000Y-48124750D01*
X74898250Y-47966000D01*
X74509000Y-47962928D01*
X74384518Y-47975188D01*
X74264820Y-48011498D01*
X74154506Y-48070463D01*
X74066000Y-48143098D01*
X74066000Y-47904000D01*
X77030225Y-47904000D01*
X76915638Y-48018587D01*
M02*
