G04 #@! TF.GenerationSoftware,KiCad,Pcbnew,(5.1.2-1)-1*
G04 #@! TF.CreationDate,2019-05-23T08:12:27-07:00*
G04 #@! TF.ProjectId,ButtonBoard,42757474-6f6e-4426-9f61-72642e6b6963,rev?*
G04 #@! TF.SameCoordinates,Original*
G04 #@! TF.FileFunction,Legend,Top*
G04 #@! TF.FilePolarity,Positive*
%FSLAX46Y46*%
G04 Gerber Fmt 4.6, Leading zero omitted, Abs format (unit mm)*
G04 Created by KiCad (PCBNEW (5.1.2-1)-1) date 2019-05-23 08:12:27*
%MOMM*%
%LPD*%
G04 APERTURE LIST*
%ADD10C,0.200000*%
%ADD11C,0.120000*%
%ADD12C,0.100000*%
%ADD13C,0.127000*%
%ADD14C,0.150000*%
G04 APERTURE END LIST*
D10*
X74288523Y-68762571D02*
X74431380Y-68810190D01*
X74479000Y-68857809D01*
X74526619Y-68953047D01*
X74526619Y-69095904D01*
X74479000Y-69191142D01*
X74431380Y-69238761D01*
X74336142Y-69286380D01*
X73955190Y-69286380D01*
X73955190Y-68286380D01*
X74288523Y-68286380D01*
X74383761Y-68334000D01*
X74431380Y-68381619D01*
X74479000Y-68476857D01*
X74479000Y-68572095D01*
X74431380Y-68667333D01*
X74383761Y-68714952D01*
X74288523Y-68762571D01*
X73955190Y-68762571D01*
X75383761Y-68619714D02*
X75383761Y-69286380D01*
X74955190Y-68619714D02*
X74955190Y-69143523D01*
X75002809Y-69238761D01*
X75098047Y-69286380D01*
X75240904Y-69286380D01*
X75336142Y-69238761D01*
X75383761Y-69191142D01*
X75717095Y-68619714D02*
X76098047Y-68619714D01*
X75859952Y-68286380D02*
X75859952Y-69143523D01*
X75907571Y-69238761D01*
X76002809Y-69286380D01*
X76098047Y-69286380D01*
X76288523Y-68619714D02*
X76669476Y-68619714D01*
X76431380Y-68286380D02*
X76431380Y-69143523D01*
X76479000Y-69238761D01*
X76574238Y-69286380D01*
X76669476Y-69286380D01*
X77145666Y-69286380D02*
X77050428Y-69238761D01*
X77002809Y-69191142D01*
X76955190Y-69095904D01*
X76955190Y-68810190D01*
X77002809Y-68714952D01*
X77050428Y-68667333D01*
X77145666Y-68619714D01*
X77288523Y-68619714D01*
X77383761Y-68667333D01*
X77431380Y-68714952D01*
X77479000Y-68810190D01*
X77479000Y-69095904D01*
X77431380Y-69191142D01*
X77383761Y-69238761D01*
X77288523Y-69286380D01*
X77145666Y-69286380D01*
X77907571Y-68619714D02*
X77907571Y-69286380D01*
X77907571Y-68714952D02*
X77955190Y-68667333D01*
X78050428Y-68619714D01*
X78193285Y-68619714D01*
X78288523Y-68667333D01*
X78336142Y-68762571D01*
X78336142Y-69286380D01*
X79907571Y-68762571D02*
X80050428Y-68810190D01*
X80098047Y-68857809D01*
X80145666Y-68953047D01*
X80145666Y-69095904D01*
X80098047Y-69191142D01*
X80050428Y-69238761D01*
X79955190Y-69286380D01*
X79574238Y-69286380D01*
X79574238Y-68286380D01*
X79907571Y-68286380D01*
X80002809Y-68334000D01*
X80050428Y-68381619D01*
X80098047Y-68476857D01*
X80098047Y-68572095D01*
X80050428Y-68667333D01*
X80002809Y-68714952D01*
X79907571Y-68762571D01*
X79574238Y-68762571D01*
X80717095Y-69286380D02*
X80621857Y-69238761D01*
X80574238Y-69191142D01*
X80526619Y-69095904D01*
X80526619Y-68810190D01*
X80574238Y-68714952D01*
X80621857Y-68667333D01*
X80717095Y-68619714D01*
X80859952Y-68619714D01*
X80955190Y-68667333D01*
X81002809Y-68714952D01*
X81050428Y-68810190D01*
X81050428Y-69095904D01*
X81002809Y-69191142D01*
X80955190Y-69238761D01*
X80859952Y-69286380D01*
X80717095Y-69286380D01*
X81907571Y-69286380D02*
X81907571Y-68762571D01*
X81859952Y-68667333D01*
X81764714Y-68619714D01*
X81574238Y-68619714D01*
X81479000Y-68667333D01*
X81907571Y-69238761D02*
X81812333Y-69286380D01*
X81574238Y-69286380D01*
X81479000Y-69238761D01*
X81431380Y-69143523D01*
X81431380Y-69048285D01*
X81479000Y-68953047D01*
X81574238Y-68905428D01*
X81812333Y-68905428D01*
X81907571Y-68857809D01*
X82383761Y-69286380D02*
X82383761Y-68619714D01*
X82383761Y-68810190D02*
X82431380Y-68714952D01*
X82479000Y-68667333D01*
X82574238Y-68619714D01*
X82669476Y-68619714D01*
X83431380Y-69286380D02*
X83431380Y-68286380D01*
X83431380Y-69238761D02*
X83336142Y-69286380D01*
X83145666Y-69286380D01*
X83050428Y-69238761D01*
X83002809Y-69191142D01*
X82955190Y-69095904D01*
X82955190Y-68810190D01*
X83002809Y-68714952D01*
X83050428Y-68667333D01*
X83145666Y-68619714D01*
X83336142Y-68619714D01*
X83431380Y-68667333D01*
X84574238Y-68619714D02*
X84812333Y-69286380D01*
X85050428Y-68619714D01*
X85955190Y-69286380D02*
X85383761Y-69286380D01*
X85669476Y-69286380D02*
X85669476Y-68286380D01*
X85574238Y-68429238D01*
X85479000Y-68524476D01*
X85383761Y-68572095D01*
X86383761Y-69191142D02*
X86431380Y-69238761D01*
X86383761Y-69286380D01*
X86336142Y-69238761D01*
X86383761Y-69191142D01*
X86383761Y-69286380D01*
X87383761Y-69286380D02*
X86812333Y-69286380D01*
X87098047Y-69286380D02*
X87098047Y-68286380D01*
X87002809Y-68429238D01*
X86907571Y-68524476D01*
X86812333Y-68572095D01*
X89812333Y-68286380D02*
X89336142Y-68286380D01*
X89288523Y-68762571D01*
X89336142Y-68714952D01*
X89431380Y-68667333D01*
X89669476Y-68667333D01*
X89764714Y-68714952D01*
X89812333Y-68762571D01*
X89859952Y-68857809D01*
X89859952Y-69095904D01*
X89812333Y-69191142D01*
X89764714Y-69238761D01*
X89669476Y-69286380D01*
X89431380Y-69286380D01*
X89336142Y-69238761D01*
X89288523Y-69191142D01*
X90288523Y-68905428D02*
X91050428Y-68905428D01*
X91479000Y-68381619D02*
X91526619Y-68334000D01*
X91621857Y-68286380D01*
X91859952Y-68286380D01*
X91955190Y-68334000D01*
X92002809Y-68381619D01*
X92050428Y-68476857D01*
X92050428Y-68572095D01*
X92002809Y-68714952D01*
X91431380Y-69286380D01*
X92050428Y-69286380D01*
X92383761Y-68286380D02*
X93002809Y-68286380D01*
X92669476Y-68667333D01*
X92812333Y-68667333D01*
X92907571Y-68714952D01*
X92955190Y-68762571D01*
X93002809Y-68857809D01*
X93002809Y-69095904D01*
X92955190Y-69191142D01*
X92907571Y-69238761D01*
X92812333Y-69286380D01*
X92526619Y-69286380D01*
X92431380Y-69238761D01*
X92383761Y-69191142D01*
X93431380Y-68905428D02*
X94193285Y-68905428D01*
X94621857Y-68381619D02*
X94669476Y-68334000D01*
X94764714Y-68286380D01*
X95002809Y-68286380D01*
X95098047Y-68334000D01*
X95145666Y-68381619D01*
X95193285Y-68476857D01*
X95193285Y-68572095D01*
X95145666Y-68714952D01*
X94574238Y-69286380D01*
X95193285Y-69286380D01*
X95812333Y-68286380D02*
X95907571Y-68286380D01*
X96002809Y-68334000D01*
X96050428Y-68381619D01*
X96098047Y-68476857D01*
X96145666Y-68667333D01*
X96145666Y-68905428D01*
X96098047Y-69095904D01*
X96050428Y-69191142D01*
X96002809Y-69238761D01*
X95907571Y-69286380D01*
X95812333Y-69286380D01*
X95717095Y-69238761D01*
X95669476Y-69191142D01*
X95621857Y-69095904D01*
X95574238Y-68905428D01*
X95574238Y-68667333D01*
X95621857Y-68476857D01*
X95669476Y-68381619D01*
X95717095Y-68334000D01*
X95812333Y-68286380D01*
X97098047Y-69286380D02*
X96526619Y-69286380D01*
X96812333Y-69286380D02*
X96812333Y-68286380D01*
X96717095Y-68429238D01*
X96621857Y-68524476D01*
X96526619Y-68572095D01*
X97574238Y-69286380D02*
X97764714Y-69286380D01*
X97859952Y-69238761D01*
X97907571Y-69191142D01*
X98002809Y-69048285D01*
X98050428Y-68857809D01*
X98050428Y-68476857D01*
X98002809Y-68381619D01*
X97955190Y-68334000D01*
X97859952Y-68286380D01*
X97669476Y-68286380D01*
X97574238Y-68334000D01*
X97526619Y-68381619D01*
X97478999Y-68476857D01*
X97478999Y-68714952D01*
X97526619Y-68810190D01*
X97574238Y-68857809D01*
X97669476Y-68905428D01*
X97859952Y-68905428D01*
X97955190Y-68857809D01*
X98002809Y-68810190D01*
X98050428Y-68714952D01*
D11*
X91389200Y-48971200D02*
X90881200Y-48971200D01*
X92811600Y-48971200D02*
X92303600Y-48971200D01*
D12*
G36*
X92106376Y-48954018D02*
G01*
X91389200Y-49491900D01*
X91389200Y-48475900D01*
X92106376Y-48954018D01*
G37*
X92106376Y-48954018D02*
X91389200Y-49491900D01*
X91389200Y-48475900D01*
X92106376Y-48954018D01*
G36*
X92278200Y-48539400D02*
G01*
X92278200Y-49428400D01*
X92151200Y-49428400D01*
X92151200Y-48983900D01*
X92106376Y-48954018D01*
X92151200Y-48920400D01*
X92151200Y-48539400D01*
X92278200Y-48539400D01*
G37*
X92278200Y-48539400D02*
X92278200Y-49428400D01*
X92151200Y-49428400D01*
X92151200Y-48983900D01*
X92106376Y-48954018D01*
X92151200Y-48920400D01*
X92151200Y-48539400D01*
X92278200Y-48539400D01*
D13*
X76726142Y-51906714D02*
X76363285Y-51906714D01*
X76363285Y-51144714D01*
X76980142Y-51507571D02*
X77234142Y-51507571D01*
X77343000Y-51906714D02*
X76980142Y-51906714D01*
X76980142Y-51144714D01*
X77343000Y-51144714D01*
X77669571Y-51906714D02*
X77669571Y-51144714D01*
X77851000Y-51144714D01*
X77959857Y-51181000D01*
X78032428Y-51253571D01*
X78068714Y-51326142D01*
X78105000Y-51471285D01*
X78105000Y-51580142D01*
X78068714Y-51725285D01*
X78032428Y-51797857D01*
X77959857Y-51870428D01*
X77851000Y-51906714D01*
X77669571Y-51906714D01*
X76381428Y-59018714D02*
X76816857Y-59018714D01*
X76599142Y-59780714D02*
X76599142Y-59018714D01*
X77179714Y-59780714D02*
X77107142Y-59744428D01*
X77070857Y-59708142D01*
X77034571Y-59635571D01*
X77034571Y-59417857D01*
X77070857Y-59345285D01*
X77107142Y-59309000D01*
X77179714Y-59272714D01*
X77288571Y-59272714D01*
X77361142Y-59309000D01*
X77397428Y-59345285D01*
X77433714Y-59417857D01*
X77433714Y-59635571D01*
X77397428Y-59708142D01*
X77361142Y-59744428D01*
X77288571Y-59780714D01*
X77179714Y-59780714D01*
X77760285Y-59381571D02*
X78014285Y-59381571D01*
X78123142Y-59780714D02*
X77760285Y-59780714D01*
X77760285Y-59018714D01*
X78123142Y-59018714D01*
X78340857Y-59272714D02*
X78631142Y-59272714D01*
X78449714Y-59780714D02*
X78449714Y-59127571D01*
X78486000Y-59055000D01*
X78558571Y-59018714D01*
X78631142Y-59018714D01*
X78776285Y-59272714D02*
X79066571Y-59272714D01*
X78885142Y-59780714D02*
X78885142Y-59127571D01*
X78921428Y-59055000D01*
X78994000Y-59018714D01*
X79066571Y-59018714D01*
X76617285Y-57748714D02*
X76617285Y-56986714D01*
X76980142Y-57240714D02*
X76980142Y-57748714D01*
X76980142Y-57313285D02*
X77016428Y-57277000D01*
X77089000Y-57240714D01*
X77197857Y-57240714D01*
X77270428Y-57277000D01*
X77306714Y-57349571D01*
X77306714Y-57748714D01*
X76744285Y-55317571D02*
X76490285Y-55317571D01*
X76490285Y-55716714D02*
X76490285Y-54954714D01*
X76853142Y-54954714D01*
X77143428Y-55716714D02*
X77143428Y-55208714D01*
X77143428Y-55353857D02*
X77179714Y-55281285D01*
X77216000Y-55245000D01*
X77288571Y-55208714D01*
X77361142Y-55208714D01*
X77615142Y-55716714D02*
X77615142Y-55208714D01*
X77615142Y-55281285D02*
X77651428Y-55245000D01*
X77724000Y-55208714D01*
X77832857Y-55208714D01*
X77905428Y-55245000D01*
X77941714Y-55317571D01*
X77941714Y-55716714D01*
X77941714Y-55317571D02*
X77978000Y-55245000D01*
X78050571Y-55208714D01*
X78159428Y-55208714D01*
X78232000Y-55245000D01*
X78268285Y-55317571D01*
X78268285Y-55716714D01*
X78631142Y-55317571D02*
X78885142Y-55317571D01*
X78994000Y-55716714D02*
X78631142Y-55716714D01*
X78631142Y-54954714D01*
X78994000Y-54954714D01*
X76581000Y-52922714D02*
X76726142Y-52922714D01*
X76798714Y-52959000D01*
X76871285Y-53031571D01*
X76907571Y-53176714D01*
X76907571Y-53430714D01*
X76871285Y-53575857D01*
X76798714Y-53648428D01*
X76726142Y-53684714D01*
X76581000Y-53684714D01*
X76508428Y-53648428D01*
X76435857Y-53575857D01*
X76399571Y-53430714D01*
X76399571Y-53176714D01*
X76435857Y-53031571D01*
X76508428Y-52959000D01*
X76581000Y-52922714D01*
X77560714Y-53176714D02*
X77560714Y-53684714D01*
X77234142Y-53176714D02*
X77234142Y-53575857D01*
X77270428Y-53648428D01*
X77343000Y-53684714D01*
X77451857Y-53684714D01*
X77524428Y-53648428D01*
X77560714Y-53612142D01*
X77814714Y-53176714D02*
X78105000Y-53176714D01*
X77923571Y-52922714D02*
X77923571Y-53575857D01*
X77959857Y-53648428D01*
X78032428Y-53684714D01*
X78105000Y-53684714D01*
D12*
X77900000Y-68505000D02*
X77900000Y-51505000D01*
X97500000Y-68505000D02*
X77900000Y-68505000D01*
X97500000Y-51505000D02*
X97500000Y-68505000D01*
X77900000Y-51505000D02*
X97500000Y-51505000D01*
D11*
X87820000Y-49955000D02*
X87089000Y-49955000D01*
X87820000Y-47835000D02*
X87089000Y-47835000D01*
X74124000Y-48216000D02*
X75184000Y-48216000D01*
X74124000Y-49276000D02*
X74124000Y-48216000D01*
X74124000Y-50276000D02*
X76244000Y-50276000D01*
X76244000Y-50276000D02*
X76244000Y-60336000D01*
X74124000Y-50276000D02*
X74124000Y-60336000D01*
X74124000Y-60336000D02*
X76244000Y-60336000D01*
X78572600Y-49789600D02*
X82412600Y-49789600D01*
X78572600Y-47949600D02*
X82412600Y-47949600D01*
D13*
X85278685Y-51108428D02*
X85859257Y-51108428D01*
X85568971Y-51398714D02*
X85568971Y-50818142D01*
X87165542Y-51398714D02*
X86802685Y-51398714D01*
X86802685Y-50636714D01*
X87419542Y-50999571D02*
X87673542Y-50999571D01*
X87782400Y-51398714D02*
X87419542Y-51398714D01*
X87419542Y-50636714D01*
X87782400Y-50636714D01*
X88108971Y-51398714D02*
X88108971Y-50636714D01*
X88290400Y-50636714D01*
X88399257Y-50673000D01*
X88471828Y-50745571D01*
X88508114Y-50818142D01*
X88544400Y-50963285D01*
X88544400Y-51072142D01*
X88508114Y-51217285D01*
X88471828Y-51289857D01*
X88399257Y-51362428D01*
X88290400Y-51398714D01*
X88108971Y-51398714D01*
X89451542Y-51108428D02*
X90032114Y-51108428D01*
X74603428Y-47371000D02*
X74530857Y-47334714D01*
X74422000Y-47334714D01*
X74313142Y-47371000D01*
X74240571Y-47443571D01*
X74204285Y-47516142D01*
X74168000Y-47661285D01*
X74168000Y-47770142D01*
X74204285Y-47915285D01*
X74240571Y-47987857D01*
X74313142Y-48060428D01*
X74422000Y-48096714D01*
X74494571Y-48096714D01*
X74603428Y-48060428D01*
X74639714Y-48024142D01*
X74639714Y-47770142D01*
X74494571Y-47770142D01*
X74966285Y-48096714D02*
X74966285Y-47334714D01*
X75401714Y-48096714D01*
X75401714Y-47334714D01*
X75764571Y-48096714D02*
X75764571Y-47334714D01*
X75946000Y-47334714D01*
X76054857Y-47371000D01*
X76127428Y-47443571D01*
X76163714Y-47516142D01*
X76200000Y-47661285D01*
X76200000Y-47770142D01*
X76163714Y-47915285D01*
X76127428Y-47987857D01*
X76054857Y-48060428D01*
X75946000Y-48096714D01*
X75764571Y-48096714D01*
D14*
X80373552Y-49321980D02*
X79802123Y-49321980D01*
X80087838Y-49321980D02*
X80087838Y-48321980D01*
X79992600Y-48464838D01*
X79897361Y-48560076D01*
X79802123Y-48607695D01*
X80802123Y-49321980D02*
X80802123Y-48321980D01*
X80897361Y-48941028D02*
X81183076Y-49321980D01*
X81183076Y-48655314D02*
X80802123Y-49036266D01*
M02*
