G04 #@! TF.GenerationSoftware,KiCad,Pcbnew,(5.1.2-1)-1*
G04 #@! TF.CreationDate,2019-05-17T13:10:03-07:00*
G04 #@! TF.ProjectId,ButtonBoard,42757474-6f6e-4426-9f61-72642e6b6963,rev?*
G04 #@! TF.SameCoordinates,Original*
G04 #@! TF.FileFunction,Legend,Top*
G04 #@! TF.FilePolarity,Positive*
%FSLAX46Y46*%
G04 Gerber Fmt 4.6, Leading zero omitted, Abs format (unit mm)*
G04 Created by KiCad (PCBNEW (5.1.2-1)-1) date 2019-05-17 13:10:03*
%MOMM*%
%LPD*%
G04 APERTURE LIST*
%ADD10C,0.120000*%
%ADD11C,0.100000*%
%ADD12C,0.127000*%
%ADD13C,0.150000*%
G04 APERTURE END LIST*
D10*
X75819000Y-52273200D02*
X76327000Y-52273200D01*
X74396600Y-52273200D02*
X74904600Y-52273200D01*
D11*
G36*
X75819000Y-52768500D02*
G01*
X75101824Y-52290382D01*
X75819000Y-51752500D01*
X75819000Y-52768500D01*
G37*
X75819000Y-52768500D02*
X75101824Y-52290382D01*
X75819000Y-51752500D01*
X75819000Y-52768500D01*
G36*
X74930000Y-52705000D02*
G01*
X74930000Y-51816000D01*
X75057000Y-51816000D01*
X75057000Y-52260500D01*
X75101824Y-52290382D01*
X75057000Y-52324000D01*
X75057000Y-52705000D01*
X74930000Y-52705000D01*
G37*
X74930000Y-52705000D02*
X74930000Y-51816000D01*
X75057000Y-51816000D01*
X75057000Y-52260500D01*
X75101824Y-52290382D01*
X75057000Y-52324000D01*
X75057000Y-52705000D01*
X74930000Y-52705000D01*
D12*
X89752714Y-52559857D02*
X89752714Y-52922714D01*
X88990714Y-52922714D01*
X89353571Y-52305857D02*
X89353571Y-52051857D01*
X89752714Y-51943000D02*
X89752714Y-52305857D01*
X88990714Y-52305857D01*
X88990714Y-51943000D01*
X89752714Y-51616428D02*
X88990714Y-51616428D01*
X88990714Y-51435000D01*
X89027000Y-51326142D01*
X89099571Y-51253571D01*
X89172142Y-51217285D01*
X89317285Y-51181000D01*
X89426142Y-51181000D01*
X89571285Y-51217285D01*
X89643857Y-51253571D01*
X89716428Y-51326142D01*
X89752714Y-51435000D01*
X89752714Y-51616428D01*
X96991714Y-53031571D02*
X96991714Y-52596142D01*
X97753714Y-52813857D02*
X96991714Y-52813857D01*
X97753714Y-52233285D02*
X97717428Y-52305857D01*
X97681142Y-52342142D01*
X97608571Y-52378428D01*
X97390857Y-52378428D01*
X97318285Y-52342142D01*
X97282000Y-52305857D01*
X97245714Y-52233285D01*
X97245714Y-52124428D01*
X97282000Y-52051857D01*
X97318285Y-52015571D01*
X97390857Y-51979285D01*
X97608571Y-51979285D01*
X97681142Y-52015571D01*
X97717428Y-52051857D01*
X97753714Y-52124428D01*
X97753714Y-52233285D01*
X97354571Y-51652714D02*
X97354571Y-51398714D01*
X97753714Y-51289857D02*
X97753714Y-51652714D01*
X96991714Y-51652714D01*
X96991714Y-51289857D01*
X97245714Y-51072142D02*
X97245714Y-50781857D01*
X97753714Y-50963285D02*
X97100571Y-50963285D01*
X97028000Y-50927000D01*
X96991714Y-50854428D01*
X96991714Y-50781857D01*
X97245714Y-50636714D02*
X97245714Y-50346428D01*
X97753714Y-50527857D02*
X97100571Y-50527857D01*
X97028000Y-50491571D01*
X96991714Y-50419000D01*
X96991714Y-50346428D01*
X95848714Y-52795714D02*
X95086714Y-52795714D01*
X95340714Y-52432857D02*
X95848714Y-52432857D01*
X95413285Y-52432857D02*
X95377000Y-52396571D01*
X95340714Y-52324000D01*
X95340714Y-52215142D01*
X95377000Y-52142571D01*
X95449571Y-52106285D01*
X95848714Y-52106285D01*
X93290571Y-52668714D02*
X93290571Y-52922714D01*
X93689714Y-52922714D02*
X92927714Y-52922714D01*
X92927714Y-52559857D01*
X93689714Y-52269571D02*
X93181714Y-52269571D01*
X93326857Y-52269571D02*
X93254285Y-52233285D01*
X93218000Y-52197000D01*
X93181714Y-52124428D01*
X93181714Y-52051857D01*
X93689714Y-51797857D02*
X93181714Y-51797857D01*
X93254285Y-51797857D02*
X93218000Y-51761571D01*
X93181714Y-51689000D01*
X93181714Y-51580142D01*
X93218000Y-51507571D01*
X93290571Y-51471285D01*
X93689714Y-51471285D01*
X93290571Y-51471285D02*
X93218000Y-51435000D01*
X93181714Y-51362428D01*
X93181714Y-51253571D01*
X93218000Y-51181000D01*
X93290571Y-51144714D01*
X93689714Y-51144714D01*
X93290571Y-50781857D02*
X93290571Y-50527857D01*
X93689714Y-50419000D02*
X93689714Y-50781857D01*
X92927714Y-50781857D01*
X92927714Y-50419000D01*
X91022714Y-52705000D02*
X91022714Y-52559857D01*
X91059000Y-52487285D01*
X91131571Y-52414714D01*
X91276714Y-52378428D01*
X91530714Y-52378428D01*
X91675857Y-52414714D01*
X91748428Y-52487285D01*
X91784714Y-52559857D01*
X91784714Y-52705000D01*
X91748428Y-52777571D01*
X91675857Y-52850142D01*
X91530714Y-52886428D01*
X91276714Y-52886428D01*
X91131571Y-52850142D01*
X91059000Y-52777571D01*
X91022714Y-52705000D01*
X91276714Y-51725285D02*
X91784714Y-51725285D01*
X91276714Y-52051857D02*
X91675857Y-52051857D01*
X91748428Y-52015571D01*
X91784714Y-51943000D01*
X91784714Y-51834142D01*
X91748428Y-51761571D01*
X91712142Y-51725285D01*
X91276714Y-51471285D02*
X91276714Y-51181000D01*
X91022714Y-51362428D02*
X91675857Y-51362428D01*
X91748428Y-51326142D01*
X91784714Y-51253571D01*
X91784714Y-51181000D01*
D10*
X75248000Y-47835000D02*
X75979000Y-47835000D01*
X75248000Y-49955000D02*
X75979000Y-49955000D01*
X86316000Y-49955000D02*
X86316000Y-48895000D01*
X87376000Y-49955000D02*
X86316000Y-49955000D01*
X88376000Y-49955000D02*
X88376000Y-47835000D01*
X88376000Y-47835000D02*
X98436000Y-47835000D01*
X88376000Y-49955000D02*
X98436000Y-49955000D01*
X98436000Y-49955000D02*
X98436000Y-47835000D01*
D11*
X77900000Y-68505000D02*
X77900000Y-51505000D01*
X97500000Y-68505000D02*
X77900000Y-68505000D01*
X97500000Y-51505000D02*
X97500000Y-68505000D01*
X77900000Y-51505000D02*
X97500000Y-51505000D01*
D10*
X83708000Y-47975000D02*
X79868000Y-47975000D01*
X83708000Y-49815000D02*
X79868000Y-49815000D01*
D12*
X73061285Y-51009428D02*
X73641857Y-51009428D01*
X74948142Y-51299714D02*
X74585285Y-51299714D01*
X74585285Y-50537714D01*
X75202142Y-50900571D02*
X75456142Y-50900571D01*
X75565000Y-51299714D02*
X75202142Y-51299714D01*
X75202142Y-50537714D01*
X75565000Y-50537714D01*
X75891571Y-51299714D02*
X75891571Y-50537714D01*
X76073000Y-50537714D01*
X76181857Y-50574000D01*
X76254428Y-50646571D01*
X76290714Y-50719142D01*
X76327000Y-50864285D01*
X76327000Y-50973142D01*
X76290714Y-51118285D01*
X76254428Y-51190857D01*
X76181857Y-51263428D01*
X76073000Y-51299714D01*
X75891571Y-51299714D01*
X77234142Y-51009428D02*
X77814714Y-51009428D01*
X77524428Y-51299714D02*
X77524428Y-50719142D01*
X86969600Y-52523571D02*
X86933314Y-52596142D01*
X86933314Y-52705000D01*
X86969600Y-52813857D01*
X87042171Y-52886428D01*
X87114742Y-52922714D01*
X87259885Y-52959000D01*
X87368742Y-52959000D01*
X87513885Y-52922714D01*
X87586457Y-52886428D01*
X87659028Y-52813857D01*
X87695314Y-52705000D01*
X87695314Y-52632428D01*
X87659028Y-52523571D01*
X87622742Y-52487285D01*
X87368742Y-52487285D01*
X87368742Y-52632428D01*
X87695314Y-52160714D02*
X86933314Y-52160714D01*
X87695314Y-51725285D01*
X86933314Y-51725285D01*
X87695314Y-51362428D02*
X86933314Y-51362428D01*
X86933314Y-51181000D01*
X86969600Y-51072142D01*
X87042171Y-50999571D01*
X87114742Y-50963285D01*
X87259885Y-50927000D01*
X87368742Y-50927000D01*
X87513885Y-50963285D01*
X87586457Y-50999571D01*
X87659028Y-51072142D01*
X87695314Y-51181000D01*
X87695314Y-51362428D01*
D13*
X81668952Y-49347380D02*
X81097523Y-49347380D01*
X81383238Y-49347380D02*
X81383238Y-48347380D01*
X81288000Y-48490238D01*
X81192761Y-48585476D01*
X81097523Y-48633095D01*
X82097523Y-49347380D02*
X82097523Y-48347380D01*
X82192761Y-48966428D02*
X82478476Y-49347380D01*
X82478476Y-48680714D02*
X82097523Y-49061666D01*
M02*
