M48
; DRILL file {KiCad (5.1.2-1)-1} date Wednesday, July 10, 2019 at 03:39:15 PM
; FORMAT={-:-/ absolute / inch / decimal}
; #@! TF.CreationDate,2019-07-10T15:39:15-07:00
; #@! TF.GenerationSoftware,Kicad,Pcbnew,(5.1.2-1)-1
; #@! TF.FileFunction,Plated,1,2,PTH
FMAT,2
INCH
T1C0.0276
T2C0.0354
T3C0.0394
T4C0.0394
T5C0.0886
%
G90
G05
T1
X3.1Y-1.9225
X3.3Y-1.9225
T2
X3.4025Y-1.9225
X3.5025Y-1.9225
T3
X2.965Y-1.94
X2.965Y-2.04
X2.965Y-2.14
X2.965Y-2.24
X2.965Y-2.34
X2.965Y-2.44
T4
X2.98Y-2.65
X3.76Y-1.94
T5
X3.245Y-2.1745
X3.245Y-2.3635
X3.245Y-2.5525
X3.4537Y-2.1745
X3.4537Y-2.3635
X3.4537Y-2.5525
X3.6623Y-2.1745
X3.6623Y-2.3635
X3.6623Y-2.5525
T0
M30
