G04 #@! TF.GenerationSoftware,KiCad,Pcbnew,(5.1.2-1)-1*
G04 #@! TF.CreationDate,2019-05-17T13:10:03-07:00*
G04 #@! TF.ProjectId,ButtonBoard,42757474-6f6e-4426-9f61-72642e6b6963,rev?*
G04 #@! TF.SameCoordinates,Original*
G04 #@! TF.FileFunction,Copper,L1,Top*
G04 #@! TF.FilePolarity,Positive*
%FSLAX46Y46*%
G04 Gerber Fmt 4.6, Leading zero omitted, Abs format (unit mm)*
G04 Created by KiCad (PCBNEW (5.1.2-1)-1) date 2019-05-17 13:10:03*
%MOMM*%
%LPD*%
G04 APERTURE LIST*
%ADD10R,1.800000X1.800000*%
%ADD11C,1.800000*%
%ADD12O,1.350000X1.350000*%
%ADD13R,1.350000X1.350000*%
%ADD14C,2.220000*%
%ADD15O,1.400000X1.400000*%
%ADD16C,1.400000*%
%ADD17C,0.508000*%
G04 APERTURE END LIST*
D10*
X74168000Y-48895000D03*
D11*
X76708000Y-48895000D03*
D12*
X97376000Y-48895000D03*
X95376000Y-48895000D03*
X93376000Y-48895000D03*
X91376000Y-48895000D03*
X89376000Y-48895000D03*
D13*
X87376000Y-48895000D03*
D14*
X82400000Y-55205000D03*
X82400000Y-60005000D03*
X82400000Y-64805000D03*
X87700000Y-55205000D03*
X87700000Y-60005000D03*
X87700000Y-64805000D03*
X93000000Y-55205000D03*
X93000000Y-60005000D03*
X93000000Y-64805000D03*
D15*
X79248000Y-48895000D03*
D16*
X84328000Y-48895000D03*
D17*
X79248000Y-48895000D02*
X76708000Y-48895000D01*
X74139000Y-56544000D02*
X82400000Y-64805000D01*
X74139000Y-50332000D02*
X74139000Y-56544000D01*
X74168000Y-50303000D02*
X74139000Y-50332000D01*
X74168000Y-48895000D02*
X74168000Y-50303000D01*
X94109999Y-63695001D02*
X93000000Y-64805000D01*
X96701001Y-61103999D02*
X94109999Y-63695001D01*
X96701001Y-49569999D02*
X96701001Y-61103999D01*
X97376000Y-48895000D02*
X96701001Y-49569999D01*
X93000000Y-60005000D02*
X93965000Y-59040000D01*
X95376000Y-57629000D02*
X93000000Y-60005000D01*
X95376000Y-48895000D02*
X95376000Y-57629000D01*
X90170000Y-62335000D02*
X87700000Y-64805000D01*
X92701001Y-51316999D02*
X90170000Y-53848000D01*
X93376000Y-48895000D02*
X92701001Y-49569999D01*
X92701001Y-49569999D02*
X92701001Y-51316999D01*
X90170000Y-53848000D02*
X90170000Y-62335000D01*
X86135999Y-58440999D02*
X86590001Y-58895001D01*
X86872500Y-59177500D02*
X87700000Y-60005000D01*
X86590001Y-58895001D02*
X86872500Y-59177500D01*
X86872500Y-59177500D02*
X85915000Y-58220000D01*
X84963000Y-53721000D02*
X84963000Y-57268000D01*
X84963000Y-57268000D02*
X87700000Y-60005000D01*
X87820000Y-52451000D02*
X86233000Y-52451000D01*
X86233000Y-52451000D02*
X84963000Y-53721000D01*
X91376000Y-48895000D02*
X87820000Y-52451000D01*
X89376000Y-49358800D02*
X88061800Y-50673000D01*
X89376000Y-48895000D02*
X89376000Y-49358800D01*
X86106000Y-50673000D02*
X84328000Y-48895000D01*
X88061800Y-50673000D02*
X86106000Y-50673000D01*
M02*
