G04 #@! TF.GenerationSoftware,KiCad,Pcbnew,(5.1.2-1)-1*
G04 #@! TF.CreationDate,2019-05-16T16:36:24-07:00*
G04 #@! TF.ProjectId,ButtonBoard,42757474-6f6e-4426-9f61-72642e6b6963,rev?*
G04 #@! TF.SameCoordinates,Original*
G04 #@! TF.FileFunction,Copper,L1,Top*
G04 #@! TF.FilePolarity,Positive*
%FSLAX46Y46*%
G04 Gerber Fmt 4.6, Leading zero omitted, Abs format (unit mm)*
G04 Created by KiCad (PCBNEW (5.1.2-1)-1) date 2019-05-16 16:36:24*
%MOMM*%
%LPD*%
G04 APERTURE LIST*
%ADD10O,1.350000X1.350000*%
%ADD11R,1.350000X1.350000*%
%ADD12C,2.220000*%
%ADD13O,1.400000X1.400000*%
%ADD14C,1.400000*%
%ADD15C,1.800000*%
%ADD16R,1.800000X1.800000*%
%ADD17C,0.508000*%
G04 APERTURE END LIST*
D10*
X91915000Y-48895000D03*
X89915000Y-48895000D03*
X87915000Y-48895000D03*
X85915000Y-48895000D03*
X83915000Y-48895000D03*
D11*
X81915000Y-48895000D03*
D12*
X82400000Y-55205000D03*
X82400000Y-60005000D03*
X82400000Y-64805000D03*
X87700000Y-55205000D03*
X87700000Y-60005000D03*
X87700000Y-64805000D03*
X93000000Y-55205000D03*
X93000000Y-60005000D03*
X93000000Y-64805000D03*
D13*
X74930000Y-57785000D03*
D14*
X74930000Y-52705000D03*
D15*
X74295000Y-62230000D03*
D16*
X74295000Y-64770000D03*
D17*
X74930000Y-61595000D02*
X74295000Y-62230000D01*
X74930000Y-57785000D02*
X74930000Y-61595000D01*
X74295000Y-64770000D02*
X73660000Y-64770000D01*
X82400000Y-64805000D02*
X74295000Y-64770000D01*
X93000000Y-64805000D02*
X95215000Y-64805000D01*
X95215000Y-64805000D02*
X96010000Y-64010000D01*
X91915000Y-48895000D02*
X97155000Y-54135000D01*
X97155000Y-62865000D02*
X95215000Y-64805000D01*
X97155000Y-54135000D02*
X97155000Y-62865000D01*
X89915000Y-48895000D02*
X95250000Y-54230000D01*
X95250000Y-57755000D02*
X93965000Y-59040000D01*
X95250000Y-54230000D02*
X95250000Y-57755000D01*
X93965000Y-59040000D02*
X94564001Y-58440999D01*
X93000000Y-60005000D02*
X93965000Y-59040000D01*
X87915000Y-49849594D02*
X90170000Y-52104594D01*
X87915000Y-48895000D02*
X87915000Y-49849594D01*
X90170000Y-62335000D02*
X87700000Y-64805000D01*
X90170000Y-52104594D02*
X90170000Y-62335000D01*
X86135999Y-58440999D02*
X86590001Y-58895001D01*
X86872500Y-59177500D02*
X87700000Y-60005000D01*
X86590001Y-58895001D02*
X86872500Y-59177500D01*
X85915000Y-53658000D02*
X85915000Y-48895000D01*
X85915000Y-58220000D02*
X85915000Y-56197000D01*
X85471000Y-54102000D02*
X85915000Y-53658000D01*
X85471000Y-55753000D02*
X85471000Y-54102000D01*
X85915000Y-56197000D02*
X85471000Y-55753000D01*
X86872500Y-59177500D02*
X85915000Y-58220000D01*
X83915000Y-50705000D02*
X81915000Y-52705000D01*
X83915000Y-48895000D02*
X83915000Y-50705000D01*
X81915000Y-52705000D02*
X74930000Y-52705000D01*
M02*
