G04 #@! TF.GenerationSoftware,KiCad,Pcbnew,(5.1.2-1)-1*
G04 #@! TF.CreationDate,2019-07-10T15:39:13-07:00*
G04 #@! TF.ProjectId,ButtonBoard,42757474-6f6e-4426-9f61-72642e6b6963,rev?*
G04 #@! TF.SameCoordinates,Original*
G04 #@! TF.FileFunction,Legend,Top*
G04 #@! TF.FilePolarity,Positive*
%FSLAX46Y46*%
G04 Gerber Fmt 4.6, Leading zero omitted, Abs format (unit mm)*
G04 Created by KiCad (PCBNEW (5.1.2-1)-1) date 2019-07-10 15:39:13*
%MOMM*%
%LPD*%
G04 APERTURE LIST*
%ADD10C,0.100000*%
%ADD11C,0.120000*%
%ADD12C,0.127000*%
%ADD13C,0.150000*%
%ADD14C,0.125000*%
G04 APERTURE END LIST*
D10*
X79966523Y-67697357D02*
X80080809Y-67735452D01*
X80118904Y-67773547D01*
X80157000Y-67849738D01*
X80157000Y-67964023D01*
X80118904Y-68040214D01*
X80080809Y-68078309D01*
X80004619Y-68116404D01*
X79699857Y-68116404D01*
X79699857Y-67316404D01*
X79966523Y-67316404D01*
X80042714Y-67354500D01*
X80080809Y-67392595D01*
X80118904Y-67468785D01*
X80118904Y-67544976D01*
X80080809Y-67621166D01*
X80042714Y-67659261D01*
X79966523Y-67697357D01*
X79699857Y-67697357D01*
X80842714Y-67583071D02*
X80842714Y-68116404D01*
X80499857Y-67583071D02*
X80499857Y-68002119D01*
X80537952Y-68078309D01*
X80614142Y-68116404D01*
X80728428Y-68116404D01*
X80804619Y-68078309D01*
X80842714Y-68040214D01*
X81109380Y-67583071D02*
X81414142Y-67583071D01*
X81223666Y-67316404D02*
X81223666Y-68002119D01*
X81261761Y-68078309D01*
X81337952Y-68116404D01*
X81414142Y-68116404D01*
X81566523Y-67583071D02*
X81871285Y-67583071D01*
X81680809Y-67316404D02*
X81680809Y-68002119D01*
X81718904Y-68078309D01*
X81795095Y-68116404D01*
X81871285Y-68116404D01*
X82252238Y-68116404D02*
X82176047Y-68078309D01*
X82137952Y-68040214D01*
X82099857Y-67964023D01*
X82099857Y-67735452D01*
X82137952Y-67659261D01*
X82176047Y-67621166D01*
X82252238Y-67583071D01*
X82366523Y-67583071D01*
X82442714Y-67621166D01*
X82480809Y-67659261D01*
X82518904Y-67735452D01*
X82518904Y-67964023D01*
X82480809Y-68040214D01*
X82442714Y-68078309D01*
X82366523Y-68116404D01*
X82252238Y-68116404D01*
X82861761Y-67583071D02*
X82861761Y-68116404D01*
X82861761Y-67659261D02*
X82899857Y-67621166D01*
X82976047Y-67583071D01*
X83090333Y-67583071D01*
X83166523Y-67621166D01*
X83204619Y-67697357D01*
X83204619Y-68116404D01*
X84461761Y-67697357D02*
X84576047Y-67735452D01*
X84614142Y-67773547D01*
X84652238Y-67849738D01*
X84652238Y-67964023D01*
X84614142Y-68040214D01*
X84576047Y-68078309D01*
X84499857Y-68116404D01*
X84195095Y-68116404D01*
X84195095Y-67316404D01*
X84461761Y-67316404D01*
X84537952Y-67354500D01*
X84576047Y-67392595D01*
X84614142Y-67468785D01*
X84614142Y-67544976D01*
X84576047Y-67621166D01*
X84537952Y-67659261D01*
X84461761Y-67697357D01*
X84195095Y-67697357D01*
X85109380Y-68116404D02*
X85033190Y-68078309D01*
X84995095Y-68040214D01*
X84957000Y-67964023D01*
X84957000Y-67735452D01*
X84995095Y-67659261D01*
X85033190Y-67621166D01*
X85109380Y-67583071D01*
X85223666Y-67583071D01*
X85299857Y-67621166D01*
X85337952Y-67659261D01*
X85376047Y-67735452D01*
X85376047Y-67964023D01*
X85337952Y-68040214D01*
X85299857Y-68078309D01*
X85223666Y-68116404D01*
X85109380Y-68116404D01*
X86061761Y-68116404D02*
X86061761Y-67697357D01*
X86023666Y-67621166D01*
X85947476Y-67583071D01*
X85795095Y-67583071D01*
X85718904Y-67621166D01*
X86061761Y-68078309D02*
X85985571Y-68116404D01*
X85795095Y-68116404D01*
X85718904Y-68078309D01*
X85680809Y-68002119D01*
X85680809Y-67925928D01*
X85718904Y-67849738D01*
X85795095Y-67811642D01*
X85985571Y-67811642D01*
X86061761Y-67773547D01*
X86442714Y-68116404D02*
X86442714Y-67583071D01*
X86442714Y-67735452D02*
X86480809Y-67659261D01*
X86518904Y-67621166D01*
X86595095Y-67583071D01*
X86671285Y-67583071D01*
X87280809Y-68116404D02*
X87280809Y-67316404D01*
X87280809Y-68078309D02*
X87204619Y-68116404D01*
X87052238Y-68116404D01*
X86976047Y-68078309D01*
X86937952Y-68040214D01*
X86899857Y-67964023D01*
X86899857Y-67735452D01*
X86937952Y-67659261D01*
X86976047Y-67621166D01*
X87052238Y-67583071D01*
X87204619Y-67583071D01*
X87280809Y-67621166D01*
X88195095Y-67583071D02*
X88385571Y-68116404D01*
X88576047Y-67583071D01*
X89299857Y-68116404D02*
X88842714Y-68116404D01*
X89071285Y-68116404D02*
X89071285Y-67316404D01*
X88995095Y-67430690D01*
X88918904Y-67506880D01*
X88842714Y-67544976D01*
X89642714Y-68040214D02*
X89680809Y-68078309D01*
X89642714Y-68116404D01*
X89604619Y-68078309D01*
X89642714Y-68040214D01*
X89642714Y-68116404D01*
X90366523Y-67583071D02*
X90366523Y-68116404D01*
X90176047Y-67278309D02*
X89985571Y-67849738D01*
X90480809Y-67849738D01*
X91318904Y-67316404D02*
X91852238Y-67316404D01*
X91509380Y-68116404D01*
X92157000Y-67811642D02*
X92766523Y-67811642D01*
X93109380Y-67392595D02*
X93147476Y-67354500D01*
X93223666Y-67316404D01*
X93414142Y-67316404D01*
X93490333Y-67354500D01*
X93528428Y-67392595D01*
X93566523Y-67468785D01*
X93566523Y-67544976D01*
X93528428Y-67659261D01*
X93071285Y-68116404D01*
X93566523Y-68116404D01*
X94061761Y-67316404D02*
X94137952Y-67316404D01*
X94214142Y-67354500D01*
X94252238Y-67392595D01*
X94290333Y-67468785D01*
X94328428Y-67621166D01*
X94328428Y-67811642D01*
X94290333Y-67964023D01*
X94252238Y-68040214D01*
X94214142Y-68078309D01*
X94137952Y-68116404D01*
X94061761Y-68116404D01*
X93985571Y-68078309D01*
X93947476Y-68040214D01*
X93909380Y-67964023D01*
X93871285Y-67811642D01*
X93871285Y-67621166D01*
X93909380Y-67468785D01*
X93947476Y-67392595D01*
X93985571Y-67354500D01*
X94061761Y-67316404D01*
X95090333Y-68116404D02*
X94633190Y-68116404D01*
X94861761Y-68116404D02*
X94861761Y-67316404D01*
X94785571Y-67430690D01*
X94709380Y-67506880D01*
X94633190Y-67544976D01*
X95471285Y-68116404D02*
X95623666Y-68116404D01*
X95699857Y-68078309D01*
X95737952Y-68040214D01*
X95814142Y-67925928D01*
X95852238Y-67773547D01*
X95852238Y-67468785D01*
X95814142Y-67392595D01*
X95776047Y-67354500D01*
X95699857Y-67316404D01*
X95547476Y-67316404D01*
X95471285Y-67354500D01*
X95433190Y-67392595D01*
X95395095Y-67468785D01*
X95395095Y-67659261D01*
X95433190Y-67735452D01*
X95471285Y-67773547D01*
X95547476Y-67811642D01*
X95699857Y-67811642D01*
X95776047Y-67773547D01*
X95814142Y-67735452D01*
X95852238Y-67659261D01*
D11*
X87134700Y-50622200D02*
X86626700Y-50622200D01*
X88557100Y-50622200D02*
X88049100Y-50622200D01*
D10*
G36*
X87851876Y-50605018D02*
G01*
X87134700Y-51142900D01*
X87134700Y-50126900D01*
X87851876Y-50605018D01*
G37*
X87851876Y-50605018D02*
X87134700Y-51142900D01*
X87134700Y-50126900D01*
X87851876Y-50605018D01*
G36*
X88023700Y-50190400D02*
G01*
X88023700Y-51079400D01*
X87896700Y-51079400D01*
X87896700Y-50634900D01*
X87851876Y-50605018D01*
X87896700Y-50571400D01*
X87896700Y-50190400D01*
X88023700Y-50190400D01*
G37*
X88023700Y-50190400D02*
X88023700Y-51079400D01*
X87896700Y-51079400D01*
X87896700Y-50634900D01*
X87851876Y-50605018D01*
X87896700Y-50571400D01*
X87896700Y-50190400D01*
X88023700Y-50190400D01*
D12*
X77273214Y-52177904D02*
X76892261Y-52177904D01*
X76892261Y-51377904D01*
X77539880Y-51758857D02*
X77806547Y-51758857D01*
X77920833Y-52177904D02*
X77539880Y-52177904D01*
X77539880Y-51377904D01*
X77920833Y-51377904D01*
X78263690Y-52177904D02*
X78263690Y-51377904D01*
X78454166Y-51377904D01*
X78568452Y-51416000D01*
X78644642Y-51492190D01*
X78682738Y-51568380D01*
X78720833Y-51720761D01*
X78720833Y-51835047D01*
X78682738Y-51987428D01*
X78644642Y-52063619D01*
X78568452Y-52139809D01*
X78454166Y-52177904D01*
X78263690Y-52177904D01*
X76758976Y-61601404D02*
X77216119Y-61601404D01*
X76987547Y-62401404D02*
X76987547Y-61601404D01*
X77597071Y-62401404D02*
X77520880Y-62363309D01*
X77482785Y-62325214D01*
X77444690Y-62249023D01*
X77444690Y-62020452D01*
X77482785Y-61944261D01*
X77520880Y-61906166D01*
X77597071Y-61868071D01*
X77711357Y-61868071D01*
X77787547Y-61906166D01*
X77825642Y-61944261D01*
X77863738Y-62020452D01*
X77863738Y-62249023D01*
X77825642Y-62325214D01*
X77787547Y-62363309D01*
X77711357Y-62401404D01*
X77597071Y-62401404D01*
X78206595Y-61982357D02*
X78473261Y-61982357D01*
X78587547Y-62401404D02*
X78206595Y-62401404D01*
X78206595Y-61601404D01*
X78587547Y-61601404D01*
X78816119Y-61868071D02*
X79120880Y-61868071D01*
X78930404Y-62401404D02*
X78930404Y-61715690D01*
X78968500Y-61639500D01*
X79044690Y-61601404D01*
X79120880Y-61601404D01*
X79273261Y-61868071D02*
X79578023Y-61868071D01*
X79387547Y-62401404D02*
X79387547Y-61715690D01*
X79425642Y-61639500D01*
X79501833Y-61601404D01*
X79578023Y-61601404D01*
X76854214Y-59797904D02*
X76854214Y-58997904D01*
X77235166Y-59264571D02*
X77235166Y-59797904D01*
X77235166Y-59340761D02*
X77273261Y-59302666D01*
X77349452Y-59264571D01*
X77463738Y-59264571D01*
X77539928Y-59302666D01*
X77578023Y-59378857D01*
X77578023Y-59797904D01*
X77958976Y-59264571D02*
X77958976Y-60064571D01*
X77958976Y-59302666D02*
X78035166Y-59264571D01*
X78187547Y-59264571D01*
X78263738Y-59302666D01*
X78301833Y-59340761D01*
X78339928Y-59416952D01*
X78339928Y-59645523D01*
X78301833Y-59721714D01*
X78263738Y-59759809D01*
X78187547Y-59797904D01*
X78035166Y-59797904D01*
X77958976Y-59759809D01*
X79025642Y-59264571D02*
X79025642Y-59797904D01*
X78682785Y-59264571D02*
X78682785Y-59683619D01*
X78720880Y-59759809D01*
X78797071Y-59797904D01*
X78911357Y-59797904D01*
X78987547Y-59759809D01*
X79025642Y-59721714D01*
X79292309Y-59264571D02*
X79597071Y-59264571D01*
X79406595Y-58997904D02*
X79406595Y-59683619D01*
X79444690Y-59759809D01*
X79520880Y-59797904D01*
X79597071Y-59797904D01*
X77139928Y-56838857D02*
X76873261Y-56838857D01*
X76873261Y-57257904D02*
X76873261Y-56457904D01*
X77254214Y-56457904D01*
X77558976Y-57257904D02*
X77558976Y-56724571D01*
X77558976Y-56876952D02*
X77597071Y-56800761D01*
X77635166Y-56762666D01*
X77711357Y-56724571D01*
X77787547Y-56724571D01*
X78054214Y-57257904D02*
X78054214Y-56724571D01*
X78054214Y-56800761D02*
X78092309Y-56762666D01*
X78168500Y-56724571D01*
X78282785Y-56724571D01*
X78358976Y-56762666D01*
X78397071Y-56838857D01*
X78397071Y-57257904D01*
X78397071Y-56838857D02*
X78435166Y-56762666D01*
X78511357Y-56724571D01*
X78625642Y-56724571D01*
X78701833Y-56762666D01*
X78739928Y-56838857D01*
X78739928Y-57257904D01*
X79120880Y-56838857D02*
X79387547Y-56838857D01*
X79501833Y-57257904D02*
X79120880Y-57257904D01*
X79120880Y-56457904D01*
X79501833Y-56457904D01*
X77057333Y-53917904D02*
X77209714Y-53917904D01*
X77285904Y-53956000D01*
X77362095Y-54032190D01*
X77400190Y-54184571D01*
X77400190Y-54451238D01*
X77362095Y-54603619D01*
X77285904Y-54679809D01*
X77209714Y-54717904D01*
X77057333Y-54717904D01*
X76981142Y-54679809D01*
X76904952Y-54603619D01*
X76866857Y-54451238D01*
X76866857Y-54184571D01*
X76904952Y-54032190D01*
X76981142Y-53956000D01*
X77057333Y-53917904D01*
X78085904Y-54184571D02*
X78085904Y-54717904D01*
X77743047Y-54184571D02*
X77743047Y-54603619D01*
X77781142Y-54679809D01*
X77857333Y-54717904D01*
X77971619Y-54717904D01*
X78047809Y-54679809D01*
X78085904Y-54641714D01*
X78352571Y-54184571D02*
X78657333Y-54184571D01*
X78466857Y-53917904D02*
X78466857Y-54603619D01*
X78504952Y-54679809D01*
X78581142Y-54717904D01*
X78657333Y-54717904D01*
D11*
X73981000Y-47946000D02*
X75311000Y-47946000D01*
X73981000Y-49276000D02*
X73981000Y-47946000D01*
X73981000Y-50546000D02*
X76641000Y-50546000D01*
X76641000Y-50546000D02*
X76641000Y-63306000D01*
X73981000Y-50546000D02*
X73981000Y-63306000D01*
X73981000Y-63306000D02*
X76641000Y-63306000D01*
D10*
X77923000Y-51533500D02*
X97523000Y-51533500D01*
X97523000Y-51533500D02*
X97523000Y-68533500D01*
X97523000Y-68533500D02*
X77923000Y-68533500D01*
X77923000Y-68533500D02*
X77923000Y-51533500D01*
D11*
X87883500Y-47771500D02*
X87152500Y-47771500D01*
X87883500Y-49891500D02*
X87152500Y-49891500D01*
X79360000Y-47911500D02*
X83200000Y-47911500D01*
X79360000Y-49751500D02*
X83200000Y-49751500D01*
D13*
X76498500Y-49885523D02*
X76460404Y-49961714D01*
X76460404Y-50076000D01*
X76498500Y-50190285D01*
X76574690Y-50266476D01*
X76650880Y-50304571D01*
X76803261Y-50342666D01*
X76917547Y-50342666D01*
X77069928Y-50304571D01*
X77146119Y-50266476D01*
X77222309Y-50190285D01*
X77260404Y-50076000D01*
X77260404Y-49999809D01*
X77222309Y-49885523D01*
X77184214Y-49847428D01*
X76917547Y-49847428D01*
X76917547Y-49999809D01*
X77260404Y-49504571D02*
X76460404Y-49504571D01*
X77260404Y-49047428D01*
X76460404Y-49047428D01*
X77260404Y-48666476D02*
X76460404Y-48666476D01*
X76460404Y-48476000D01*
X76498500Y-48361714D01*
X76574690Y-48285523D01*
X76650880Y-48247428D01*
X76803261Y-48209333D01*
X76917547Y-48209333D01*
X77069928Y-48247428D01*
X77146119Y-48285523D01*
X77222309Y-48361714D01*
X77260404Y-48476000D01*
X77260404Y-48666476D01*
X75120571Y-64776000D02*
X75049142Y-64740285D01*
X74942000Y-64740285D01*
X74834857Y-64776000D01*
X74763428Y-64847428D01*
X74727714Y-64918857D01*
X74692000Y-65061714D01*
X74692000Y-65168857D01*
X74727714Y-65311714D01*
X74763428Y-65383142D01*
X74834857Y-65454571D01*
X74942000Y-65490285D01*
X75013428Y-65490285D01*
X75120571Y-65454571D01*
X75156285Y-65418857D01*
X75156285Y-65168857D01*
X75013428Y-65168857D01*
X75477714Y-65490285D02*
X75477714Y-64740285D01*
X75906285Y-65490285D01*
X75906285Y-64740285D01*
X76263428Y-65490285D02*
X76263428Y-64740285D01*
X76442000Y-64740285D01*
X76549142Y-64776000D01*
X76620571Y-64847428D01*
X76656285Y-64918857D01*
X76692000Y-65061714D01*
X76692000Y-65168857D01*
X76656285Y-65311714D01*
X76620571Y-65383142D01*
X76549142Y-65454571D01*
X76442000Y-65490285D01*
X76263428Y-65490285D01*
X93097000Y-49847428D02*
X93061285Y-49918857D01*
X93061285Y-50026000D01*
X93097000Y-50133142D01*
X93168428Y-50204571D01*
X93239857Y-50240285D01*
X93382714Y-50276000D01*
X93489857Y-50276000D01*
X93632714Y-50240285D01*
X93704142Y-50204571D01*
X93775571Y-50133142D01*
X93811285Y-50026000D01*
X93811285Y-49954571D01*
X93775571Y-49847428D01*
X93739857Y-49811714D01*
X93489857Y-49811714D01*
X93489857Y-49954571D01*
X93811285Y-49490285D02*
X93061285Y-49490285D01*
X93811285Y-49061714D01*
X93061285Y-49061714D01*
X93811285Y-48704571D02*
X93061285Y-48704571D01*
X93061285Y-48526000D01*
X93097000Y-48418857D01*
X93168428Y-48347428D01*
X93239857Y-48311714D01*
X93382714Y-48276000D01*
X93489857Y-48276000D01*
X93632714Y-48311714D01*
X93704142Y-48347428D01*
X93775571Y-48418857D01*
X93811285Y-48526000D01*
X93811285Y-48704571D01*
X87106976Y-52612809D02*
X87221261Y-52650904D01*
X87411738Y-52650904D01*
X87487928Y-52612809D01*
X87526023Y-52574714D01*
X87564119Y-52498523D01*
X87564119Y-52422333D01*
X87526023Y-52346142D01*
X87487928Y-52308047D01*
X87411738Y-52269952D01*
X87259357Y-52231857D01*
X87183166Y-52193761D01*
X87145071Y-52155666D01*
X87106976Y-52079476D01*
X87106976Y-52003285D01*
X87145071Y-51927095D01*
X87183166Y-51889000D01*
X87259357Y-51850904D01*
X87449833Y-51850904D01*
X87564119Y-51889000D01*
X88326023Y-52650904D02*
X87868880Y-52650904D01*
X88097452Y-52650904D02*
X88097452Y-51850904D01*
X88021261Y-51965190D01*
X87945071Y-52041380D01*
X87868880Y-52079476D01*
D12*
X90735214Y-49193404D02*
X90354261Y-49193404D01*
X90354261Y-48393404D01*
X91001880Y-48774357D02*
X91268547Y-48774357D01*
X91382833Y-49193404D02*
X91001880Y-49193404D01*
X91001880Y-48393404D01*
X91382833Y-48393404D01*
X91725690Y-49193404D02*
X91725690Y-48393404D01*
X91916166Y-48393404D01*
X92030452Y-48431500D01*
X92106642Y-48507690D01*
X92144738Y-48583880D01*
X92182833Y-48736261D01*
X92182833Y-48850547D01*
X92144738Y-49002928D01*
X92106642Y-49079119D01*
X92030452Y-49155309D01*
X91916166Y-49193404D01*
X91725690Y-49193404D01*
D14*
X80867309Y-49142614D02*
X80829214Y-49180709D01*
X80714928Y-49218804D01*
X80638738Y-49218804D01*
X80524452Y-49180709D01*
X80448261Y-49104519D01*
X80410166Y-49028328D01*
X80372071Y-48875947D01*
X80372071Y-48761661D01*
X80410166Y-48609280D01*
X80448261Y-48533090D01*
X80524452Y-48456900D01*
X80638738Y-48418804D01*
X80714928Y-48418804D01*
X80829214Y-48456900D01*
X80867309Y-48494995D01*
X81591119Y-49218804D02*
X81210166Y-49218804D01*
X81210166Y-48418804D01*
X82314928Y-49218804D02*
X82048261Y-48837852D01*
X81857785Y-49218804D02*
X81857785Y-48418804D01*
X82162547Y-48418804D01*
X82238738Y-48456900D01*
X82276833Y-48494995D01*
X82314928Y-48571185D01*
X82314928Y-48685471D01*
X82276833Y-48761661D01*
X82238738Y-48799757D01*
X82162547Y-48837852D01*
X81857785Y-48837852D01*
M02*
