G04 #@! TF.GenerationSoftware,KiCad,Pcbnew,(5.1.2-1)-1*
G04 #@! TF.CreationDate,2019-06-03T08:08:11-07:00*
G04 #@! TF.ProjectId,ButtonBoard,42757474-6f6e-4426-9f61-72642e6b6963,rev?*
G04 #@! TF.SameCoordinates,Original*
G04 #@! TF.FileFunction,Soldermask,Bot*
G04 #@! TF.FilePolarity,Negative*
%FSLAX46Y46*%
G04 Gerber Fmt 4.6, Leading zero omitted, Abs format (unit mm)*
G04 Created by KiCad (PCBNEW (5.1.2-1)-1) date 2019-06-03 08:08:11*
%MOMM*%
%LPD*%
G04 APERTURE LIST*
%ADD10C,0.100000*%
G04 APERTURE END LIST*
D10*
G36*
X75690393Y-66313304D02*
G01*
X75927101Y-66411352D01*
X75927103Y-66411353D01*
X76140135Y-66553696D01*
X76321304Y-66734865D01*
X76463647Y-66947897D01*
X76463648Y-66947899D01*
X76561696Y-67184607D01*
X76611680Y-67435893D01*
X76611680Y-67692107D01*
X76561696Y-67943393D01*
X76463648Y-68180101D01*
X76463647Y-68180103D01*
X76321304Y-68393135D01*
X76140135Y-68574304D01*
X75927103Y-68716647D01*
X75927102Y-68716648D01*
X75927101Y-68716648D01*
X75690393Y-68814696D01*
X75439107Y-68864680D01*
X75182893Y-68864680D01*
X74931607Y-68814696D01*
X74694899Y-68716648D01*
X74694898Y-68716648D01*
X74694897Y-68716647D01*
X74481865Y-68574304D01*
X74300696Y-68393135D01*
X74158353Y-68180103D01*
X74158352Y-68180101D01*
X74060304Y-67943393D01*
X74010320Y-67692107D01*
X74010320Y-67435893D01*
X74060304Y-67184607D01*
X74158352Y-66947899D01*
X74158353Y-66947897D01*
X74300696Y-66734865D01*
X74481865Y-66553696D01*
X74694897Y-66411353D01*
X74694899Y-66411352D01*
X74931607Y-66313304D01*
X75182893Y-66263320D01*
X75439107Y-66263320D01*
X75690393Y-66313304D01*
X75690393Y-66313304D01*
G37*
G36*
X88188871Y-63193408D02*
G01*
X88493883Y-63319748D01*
X88768387Y-63503166D01*
X89001834Y-63736613D01*
X89185252Y-64011117D01*
X89311592Y-64316129D01*
X89376000Y-64639928D01*
X89376000Y-64970072D01*
X89311592Y-65293871D01*
X89185252Y-65598883D01*
X89001834Y-65873387D01*
X88768387Y-66106834D01*
X88493883Y-66290252D01*
X88188871Y-66416592D01*
X87865073Y-66481000D01*
X87534927Y-66481000D01*
X87211129Y-66416592D01*
X86906117Y-66290252D01*
X86631613Y-66106834D01*
X86398166Y-65873387D01*
X86214748Y-65598883D01*
X86088408Y-65293871D01*
X86024000Y-64970072D01*
X86024000Y-64639928D01*
X86088408Y-64316129D01*
X86214748Y-64011117D01*
X86398166Y-63736613D01*
X86631613Y-63503166D01*
X86906117Y-63319748D01*
X87211129Y-63193408D01*
X87534927Y-63129000D01*
X87865073Y-63129000D01*
X88188871Y-63193408D01*
X88188871Y-63193408D01*
G37*
G36*
X82888871Y-63193408D02*
G01*
X83193883Y-63319748D01*
X83468387Y-63503166D01*
X83701834Y-63736613D01*
X83885252Y-64011117D01*
X84011592Y-64316129D01*
X84076000Y-64639928D01*
X84076000Y-64970072D01*
X84011592Y-65293871D01*
X83885252Y-65598883D01*
X83701834Y-65873387D01*
X83468387Y-66106834D01*
X83193883Y-66290252D01*
X82888871Y-66416592D01*
X82565073Y-66481000D01*
X82234927Y-66481000D01*
X81911129Y-66416592D01*
X81606117Y-66290252D01*
X81331613Y-66106834D01*
X81098166Y-65873387D01*
X80914748Y-65598883D01*
X80788408Y-65293871D01*
X80724000Y-64970072D01*
X80724000Y-64639928D01*
X80788408Y-64316129D01*
X80914748Y-64011117D01*
X81098166Y-63736613D01*
X81331613Y-63503166D01*
X81606117Y-63319748D01*
X81911129Y-63193408D01*
X82234927Y-63129000D01*
X82565073Y-63129000D01*
X82888871Y-63193408D01*
X82888871Y-63193408D01*
G37*
G36*
X93488871Y-63193408D02*
G01*
X93793883Y-63319748D01*
X94068387Y-63503166D01*
X94301834Y-63736613D01*
X94485252Y-64011117D01*
X94611592Y-64316129D01*
X94676000Y-64639928D01*
X94676000Y-64970072D01*
X94611592Y-65293871D01*
X94485252Y-65598883D01*
X94301834Y-65873387D01*
X94068387Y-66106834D01*
X93793883Y-66290252D01*
X93488871Y-66416592D01*
X93165073Y-66481000D01*
X92834927Y-66481000D01*
X92511129Y-66416592D01*
X92206117Y-66290252D01*
X91931613Y-66106834D01*
X91698166Y-65873387D01*
X91514748Y-65598883D01*
X91388408Y-65293871D01*
X91324000Y-64970072D01*
X91324000Y-64639928D01*
X91388408Y-64316129D01*
X91514748Y-64011117D01*
X91698166Y-63736613D01*
X91931613Y-63503166D01*
X92206117Y-63319748D01*
X92511129Y-63193408D01*
X92834927Y-63129000D01*
X93165073Y-63129000D01*
X93488871Y-63193408D01*
X93488871Y-63193408D01*
G37*
G36*
X93326971Y-58361204D02*
G01*
X93488871Y-58393408D01*
X93793883Y-58519748D01*
X94068387Y-58703166D01*
X94301834Y-58936613D01*
X94485252Y-59211117D01*
X94611592Y-59516129D01*
X94676000Y-59839928D01*
X94676000Y-60170072D01*
X94611592Y-60493871D01*
X94485252Y-60798883D01*
X94301834Y-61073387D01*
X94068387Y-61306834D01*
X93793883Y-61490252D01*
X93488871Y-61616592D01*
X93165073Y-61681000D01*
X92834927Y-61681000D01*
X92511129Y-61616592D01*
X92206117Y-61490252D01*
X91931613Y-61306834D01*
X91698166Y-61073387D01*
X91514748Y-60798883D01*
X91388408Y-60493871D01*
X91324000Y-60170072D01*
X91324000Y-59839928D01*
X91388408Y-59516129D01*
X91514748Y-59211117D01*
X91698166Y-58936613D01*
X91931613Y-58703166D01*
X92206117Y-58519748D01*
X92511129Y-58393408D01*
X92673029Y-58361204D01*
X92834927Y-58329000D01*
X93165073Y-58329000D01*
X93326971Y-58361204D01*
X93326971Y-58361204D01*
G37*
G36*
X88026971Y-58361204D02*
G01*
X88188871Y-58393408D01*
X88493883Y-58519748D01*
X88768387Y-58703166D01*
X89001834Y-58936613D01*
X89185252Y-59211117D01*
X89311592Y-59516129D01*
X89376000Y-59839928D01*
X89376000Y-60170072D01*
X89311592Y-60493871D01*
X89185252Y-60798883D01*
X89001834Y-61073387D01*
X88768387Y-61306834D01*
X88493883Y-61490252D01*
X88188871Y-61616592D01*
X87865073Y-61681000D01*
X87534927Y-61681000D01*
X87211129Y-61616592D01*
X86906117Y-61490252D01*
X86631613Y-61306834D01*
X86398166Y-61073387D01*
X86214748Y-60798883D01*
X86088408Y-60493871D01*
X86024000Y-60170072D01*
X86024000Y-59839928D01*
X86088408Y-59516129D01*
X86214748Y-59211117D01*
X86398166Y-58936613D01*
X86631613Y-58703166D01*
X86906117Y-58519748D01*
X87211129Y-58393408D01*
X87373029Y-58361204D01*
X87534927Y-58329000D01*
X87865073Y-58329000D01*
X88026971Y-58361204D01*
X88026971Y-58361204D01*
G37*
G36*
X82726971Y-58361204D02*
G01*
X82888871Y-58393408D01*
X83193883Y-58519748D01*
X83468387Y-58703166D01*
X83701834Y-58936613D01*
X83885252Y-59211117D01*
X84011592Y-59516129D01*
X84076000Y-59839928D01*
X84076000Y-60170072D01*
X84011592Y-60493871D01*
X83885252Y-60798883D01*
X83701834Y-61073387D01*
X83468387Y-61306834D01*
X83193883Y-61490252D01*
X82888871Y-61616592D01*
X82565073Y-61681000D01*
X82234927Y-61681000D01*
X81911129Y-61616592D01*
X81606117Y-61490252D01*
X81331613Y-61306834D01*
X81098166Y-61073387D01*
X80914748Y-60798883D01*
X80788408Y-60493871D01*
X80724000Y-60170072D01*
X80724000Y-59839928D01*
X80788408Y-59516129D01*
X80914748Y-59211117D01*
X81098166Y-58936613D01*
X81331613Y-58703166D01*
X81606117Y-58519748D01*
X81911129Y-58393408D01*
X82073029Y-58361204D01*
X82234927Y-58329000D01*
X82565073Y-58329000D01*
X82726971Y-58361204D01*
X82726971Y-58361204D01*
G37*
G36*
X75382213Y-58553502D02*
G01*
X75453321Y-58560505D01*
X75590172Y-58602019D01*
X75590175Y-58602020D01*
X75716294Y-58669432D01*
X75826843Y-58760157D01*
X75917568Y-58870706D01*
X75984980Y-58996825D01*
X75984981Y-58996828D01*
X76026495Y-59133679D01*
X76040512Y-59276000D01*
X76026495Y-59418321D01*
X75996825Y-59516129D01*
X75984980Y-59555175D01*
X75917568Y-59681294D01*
X75826843Y-59791843D01*
X75716294Y-59882568D01*
X75590175Y-59949980D01*
X75590172Y-59949981D01*
X75453321Y-59991495D01*
X75382213Y-59998498D01*
X75346660Y-60002000D01*
X75275340Y-60002000D01*
X75239787Y-59998498D01*
X75168679Y-59991495D01*
X75031828Y-59949981D01*
X75031825Y-59949980D01*
X74905706Y-59882568D01*
X74795157Y-59791843D01*
X74704432Y-59681294D01*
X74637020Y-59555175D01*
X74625175Y-59516129D01*
X74595505Y-59418321D01*
X74581488Y-59276000D01*
X74595505Y-59133679D01*
X74637019Y-58996828D01*
X74637020Y-58996825D01*
X74704432Y-58870706D01*
X74795157Y-58760157D01*
X74905706Y-58669432D01*
X75031825Y-58602020D01*
X75031828Y-58602019D01*
X75168679Y-58560505D01*
X75239787Y-58553502D01*
X75275340Y-58550000D01*
X75346660Y-58550000D01*
X75382213Y-58553502D01*
X75382213Y-58553502D01*
G37*
G36*
X75382213Y-56553502D02*
G01*
X75453321Y-56560505D01*
X75590172Y-56602019D01*
X75590175Y-56602020D01*
X75716294Y-56669432D01*
X75826843Y-56760157D01*
X75917568Y-56870706D01*
X75984980Y-56996825D01*
X75984981Y-56996828D01*
X76026495Y-57133679D01*
X76040512Y-57276000D01*
X76026495Y-57418321D01*
X75984981Y-57555172D01*
X75984980Y-57555175D01*
X75917568Y-57681294D01*
X75826843Y-57791843D01*
X75716294Y-57882568D01*
X75590175Y-57949980D01*
X75590172Y-57949981D01*
X75453321Y-57991495D01*
X75382213Y-57998498D01*
X75346660Y-58002000D01*
X75275340Y-58002000D01*
X75239787Y-57998498D01*
X75168679Y-57991495D01*
X75031828Y-57949981D01*
X75031825Y-57949980D01*
X74905706Y-57882568D01*
X74795157Y-57791843D01*
X74704432Y-57681294D01*
X74637020Y-57555175D01*
X74637019Y-57555172D01*
X74595505Y-57418321D01*
X74581488Y-57276000D01*
X74595505Y-57133679D01*
X74637019Y-56996828D01*
X74637020Y-56996825D01*
X74704432Y-56870706D01*
X74795157Y-56760157D01*
X74905706Y-56669432D01*
X75031825Y-56602020D01*
X75031828Y-56602019D01*
X75168679Y-56560505D01*
X75239787Y-56553502D01*
X75275340Y-56550000D01*
X75346660Y-56550000D01*
X75382213Y-56553502D01*
X75382213Y-56553502D01*
G37*
G36*
X93296647Y-53555172D02*
G01*
X93488871Y-53593408D01*
X93793883Y-53719748D01*
X94068387Y-53903166D01*
X94301834Y-54136613D01*
X94485252Y-54411117D01*
X94611592Y-54716129D01*
X94676000Y-55039928D01*
X94676000Y-55370072D01*
X94611592Y-55693871D01*
X94485252Y-55998883D01*
X94301834Y-56273387D01*
X94068387Y-56506834D01*
X93793883Y-56690252D01*
X93488871Y-56816592D01*
X93326971Y-56848796D01*
X93165073Y-56881000D01*
X92834927Y-56881000D01*
X92673029Y-56848796D01*
X92511129Y-56816592D01*
X92206117Y-56690252D01*
X91931613Y-56506834D01*
X91698166Y-56273387D01*
X91514748Y-55998883D01*
X91388408Y-55693871D01*
X91324000Y-55370072D01*
X91324000Y-55039928D01*
X91388408Y-54716129D01*
X91514748Y-54411117D01*
X91698166Y-54136613D01*
X91931613Y-53903166D01*
X92206117Y-53719748D01*
X92511129Y-53593408D01*
X92703353Y-53555172D01*
X92834927Y-53529000D01*
X93165073Y-53529000D01*
X93296647Y-53555172D01*
X93296647Y-53555172D01*
G37*
G36*
X87996647Y-53555172D02*
G01*
X88188871Y-53593408D01*
X88493883Y-53719748D01*
X88768387Y-53903166D01*
X89001834Y-54136613D01*
X89185252Y-54411117D01*
X89311592Y-54716129D01*
X89376000Y-55039928D01*
X89376000Y-55370072D01*
X89311592Y-55693871D01*
X89185252Y-55998883D01*
X89001834Y-56273387D01*
X88768387Y-56506834D01*
X88493883Y-56690252D01*
X88188871Y-56816592D01*
X88026971Y-56848796D01*
X87865073Y-56881000D01*
X87534927Y-56881000D01*
X87373029Y-56848796D01*
X87211129Y-56816592D01*
X86906117Y-56690252D01*
X86631613Y-56506834D01*
X86398166Y-56273387D01*
X86214748Y-55998883D01*
X86088408Y-55693871D01*
X86024000Y-55370072D01*
X86024000Y-55039928D01*
X86088408Y-54716129D01*
X86214748Y-54411117D01*
X86398166Y-54136613D01*
X86631613Y-53903166D01*
X86906117Y-53719748D01*
X87211129Y-53593408D01*
X87403353Y-53555172D01*
X87534927Y-53529000D01*
X87865073Y-53529000D01*
X87996647Y-53555172D01*
X87996647Y-53555172D01*
G37*
G36*
X82696647Y-53555172D02*
G01*
X82888871Y-53593408D01*
X83193883Y-53719748D01*
X83468387Y-53903166D01*
X83701834Y-54136613D01*
X83885252Y-54411117D01*
X84011592Y-54716129D01*
X84076000Y-55039928D01*
X84076000Y-55370072D01*
X84011592Y-55693871D01*
X83885252Y-55998883D01*
X83701834Y-56273387D01*
X83468387Y-56506834D01*
X83193883Y-56690252D01*
X82888871Y-56816592D01*
X82726971Y-56848796D01*
X82565073Y-56881000D01*
X82234927Y-56881000D01*
X82073029Y-56848796D01*
X81911129Y-56816592D01*
X81606117Y-56690252D01*
X81331613Y-56506834D01*
X81098166Y-56273387D01*
X80914748Y-55998883D01*
X80788408Y-55693871D01*
X80724000Y-55370072D01*
X80724000Y-55039928D01*
X80788408Y-54716129D01*
X80914748Y-54411117D01*
X81098166Y-54136613D01*
X81331613Y-53903166D01*
X81606117Y-53719748D01*
X81911129Y-53593408D01*
X82103353Y-53555172D01*
X82234927Y-53529000D01*
X82565073Y-53529000D01*
X82696647Y-53555172D01*
X82696647Y-53555172D01*
G37*
G36*
X75382213Y-54553502D02*
G01*
X75453321Y-54560505D01*
X75590172Y-54602019D01*
X75590175Y-54602020D01*
X75716294Y-54669432D01*
X75826843Y-54760157D01*
X75917568Y-54870706D01*
X75984980Y-54996825D01*
X75984981Y-54996828D01*
X76026495Y-55133679D01*
X76040512Y-55276000D01*
X76026495Y-55418321D01*
X75984981Y-55555172D01*
X75984980Y-55555175D01*
X75917568Y-55681294D01*
X75826843Y-55791843D01*
X75716294Y-55882568D01*
X75590175Y-55949980D01*
X75590172Y-55949981D01*
X75453321Y-55991495D01*
X75382213Y-55998498D01*
X75346660Y-56002000D01*
X75275340Y-56002000D01*
X75239787Y-55998498D01*
X75168679Y-55991495D01*
X75031828Y-55949981D01*
X75031825Y-55949980D01*
X74905706Y-55882568D01*
X74795157Y-55791843D01*
X74704432Y-55681294D01*
X74637020Y-55555175D01*
X74637019Y-55555172D01*
X74595505Y-55418321D01*
X74581488Y-55276000D01*
X74595505Y-55133679D01*
X74637019Y-54996828D01*
X74637020Y-54996825D01*
X74704432Y-54870706D01*
X74795157Y-54760157D01*
X74905706Y-54669432D01*
X75031825Y-54602020D01*
X75031828Y-54602019D01*
X75168679Y-54560505D01*
X75239787Y-54553502D01*
X75275340Y-54550000D01*
X75346660Y-54550000D01*
X75382213Y-54553502D01*
X75382213Y-54553502D01*
G37*
G36*
X75382213Y-52553502D02*
G01*
X75453321Y-52560505D01*
X75590172Y-52602019D01*
X75590175Y-52602020D01*
X75716294Y-52669432D01*
X75826843Y-52760157D01*
X75917568Y-52870706D01*
X75984980Y-52996825D01*
X75984981Y-52996828D01*
X76026495Y-53133679D01*
X76040512Y-53276000D01*
X76026495Y-53418321D01*
X75992920Y-53529000D01*
X75984980Y-53555175D01*
X75917568Y-53681294D01*
X75826843Y-53791843D01*
X75716294Y-53882568D01*
X75590175Y-53949980D01*
X75590172Y-53949981D01*
X75453321Y-53991495D01*
X75382213Y-53998498D01*
X75346660Y-54002000D01*
X75275340Y-54002000D01*
X75239787Y-53998498D01*
X75168679Y-53991495D01*
X75031828Y-53949981D01*
X75031825Y-53949980D01*
X74905706Y-53882568D01*
X74795157Y-53791843D01*
X74704432Y-53681294D01*
X74637020Y-53555175D01*
X74629080Y-53529000D01*
X74595505Y-53418321D01*
X74581488Y-53276000D01*
X74595505Y-53133679D01*
X74637019Y-52996828D01*
X74637020Y-52996825D01*
X74704432Y-52870706D01*
X74795157Y-52760157D01*
X74905706Y-52669432D01*
X75031825Y-52602020D01*
X75031828Y-52602019D01*
X75168679Y-52560505D01*
X75239787Y-52553502D01*
X75275340Y-52550000D01*
X75346660Y-52550000D01*
X75382213Y-52553502D01*
X75382213Y-52553502D01*
G37*
G36*
X75382213Y-50553502D02*
G01*
X75453321Y-50560505D01*
X75590172Y-50602019D01*
X75590175Y-50602020D01*
X75716294Y-50669432D01*
X75826843Y-50760157D01*
X75917568Y-50870706D01*
X75984980Y-50996825D01*
X75984981Y-50996828D01*
X76026495Y-51133679D01*
X76040512Y-51276000D01*
X76026495Y-51418321D01*
X75984981Y-51555172D01*
X75984980Y-51555175D01*
X75917568Y-51681294D01*
X75826843Y-51791843D01*
X75716294Y-51882568D01*
X75590175Y-51949980D01*
X75590172Y-51949981D01*
X75453321Y-51991495D01*
X75382213Y-51998498D01*
X75346660Y-52002000D01*
X75275340Y-52002000D01*
X75239787Y-51998498D01*
X75168679Y-51991495D01*
X75031828Y-51949981D01*
X75031825Y-51949980D01*
X74905706Y-51882568D01*
X74795157Y-51791843D01*
X74704432Y-51681294D01*
X74637020Y-51555175D01*
X74637019Y-51555172D01*
X74595505Y-51418321D01*
X74581488Y-51276000D01*
X74595505Y-51133679D01*
X74637019Y-50996828D01*
X74637020Y-50996825D01*
X74704432Y-50870706D01*
X74795157Y-50760157D01*
X74905706Y-50669432D01*
X75031825Y-50602020D01*
X75031828Y-50602019D01*
X75168679Y-50560505D01*
X75239787Y-50553502D01*
X75275340Y-50550000D01*
X75346660Y-50550000D01*
X75382213Y-50553502D01*
X75382213Y-50553502D01*
G37*
G36*
X96772393Y-47644304D02*
G01*
X97009101Y-47742352D01*
X97009103Y-47742353D01*
X97222135Y-47884696D01*
X97403304Y-48065865D01*
X97545647Y-48278897D01*
X97545648Y-48278899D01*
X97643696Y-48515607D01*
X97693680Y-48766893D01*
X97693680Y-49023107D01*
X97643696Y-49274393D01*
X97551466Y-49497054D01*
X97545647Y-49511103D01*
X97403304Y-49724135D01*
X97222135Y-49905304D01*
X97009103Y-50047647D01*
X97009102Y-50047648D01*
X97009101Y-50047648D01*
X96772393Y-50145696D01*
X96521107Y-50195680D01*
X96264893Y-50195680D01*
X96013607Y-50145696D01*
X95776899Y-50047648D01*
X95776898Y-50047648D01*
X95776897Y-50047647D01*
X95563865Y-49905304D01*
X95382696Y-49724135D01*
X95240353Y-49511103D01*
X95234534Y-49497054D01*
X95142304Y-49274393D01*
X95092320Y-49023107D01*
X95092320Y-48766893D01*
X95142304Y-48515607D01*
X95240352Y-48278899D01*
X95240353Y-48278897D01*
X95382696Y-48065865D01*
X95563865Y-47884696D01*
X95776897Y-47742353D01*
X95776899Y-47742352D01*
X96013607Y-47644304D01*
X96264893Y-47594320D01*
X96521107Y-47594320D01*
X96772393Y-47644304D01*
X96772393Y-47644304D01*
G37*
G36*
X76037000Y-50002000D02*
G01*
X74585000Y-50002000D01*
X74585000Y-48550000D01*
X76037000Y-48550000D01*
X76037000Y-50002000D01*
X76037000Y-50002000D01*
G37*
G36*
X89978000Y-49846000D02*
G01*
X88076000Y-49846000D01*
X88076000Y-47944000D01*
X89978000Y-47944000D01*
X89978000Y-49846000D01*
X89978000Y-49846000D01*
G37*
G36*
X86764395Y-47980546D02*
G01*
X86937466Y-48052234D01*
X87014818Y-48103919D01*
X87093227Y-48156310D01*
X87225690Y-48288773D01*
X87225691Y-48288775D01*
X87329766Y-48444534D01*
X87401454Y-48617605D01*
X87438000Y-48801333D01*
X87438000Y-48988667D01*
X87401454Y-49172395D01*
X87329766Y-49345466D01*
X87329765Y-49345467D01*
X87225690Y-49501227D01*
X87093227Y-49633690D01*
X87014818Y-49686081D01*
X86937466Y-49737766D01*
X86764395Y-49809454D01*
X86580667Y-49846000D01*
X86393333Y-49846000D01*
X86209605Y-49809454D01*
X86036534Y-49737766D01*
X85959182Y-49686081D01*
X85880773Y-49633690D01*
X85748310Y-49501227D01*
X85644235Y-49345467D01*
X85644234Y-49345466D01*
X85572546Y-49172395D01*
X85536000Y-48988667D01*
X85536000Y-48801333D01*
X85572546Y-48617605D01*
X85644234Y-48444534D01*
X85748309Y-48288775D01*
X85748310Y-48288773D01*
X85880773Y-48156310D01*
X85959182Y-48103919D01*
X86036534Y-48052234D01*
X86209605Y-47980546D01*
X86393333Y-47944000D01*
X86580667Y-47944000D01*
X86764395Y-47980546D01*
X86764395Y-47980546D01*
G37*
G36*
X78578059Y-48147460D02*
G01*
X78638294Y-48172410D01*
X78714732Y-48204072D01*
X78837735Y-48286260D01*
X78942340Y-48390865D01*
X79024528Y-48513868D01*
X79024529Y-48513870D01*
X79081140Y-48650541D01*
X79104284Y-48766893D01*
X79110000Y-48795633D01*
X79110000Y-48943567D01*
X79081140Y-49088659D01*
X79024528Y-49225332D01*
X78942340Y-49348335D01*
X78837735Y-49452940D01*
X78714732Y-49535128D01*
X78714731Y-49535129D01*
X78714730Y-49535129D01*
X78578059Y-49591740D01*
X78432968Y-49620600D01*
X78285032Y-49620600D01*
X78139941Y-49591740D01*
X78003270Y-49535129D01*
X78003269Y-49535129D01*
X78003268Y-49535128D01*
X77880265Y-49452940D01*
X77775660Y-49348335D01*
X77693472Y-49225332D01*
X77636860Y-49088659D01*
X77608000Y-48943567D01*
X77608000Y-48795633D01*
X77613717Y-48766893D01*
X77636860Y-48650541D01*
X77693471Y-48513870D01*
X77693472Y-48513868D01*
X77775660Y-48390865D01*
X77880265Y-48286260D01*
X78003268Y-48204072D01*
X78079707Y-48172410D01*
X78139941Y-48147460D01*
X78285032Y-48118600D01*
X78432968Y-48118600D01*
X78578059Y-48147460D01*
X78578059Y-48147460D01*
G37*
G36*
X83512665Y-48122222D02*
G01*
X83586222Y-48129467D01*
X83727786Y-48172410D01*
X83858252Y-48242146D01*
X83888040Y-48266592D01*
X83972607Y-48335993D01*
X84042008Y-48420560D01*
X84066454Y-48450348D01*
X84136190Y-48580814D01*
X84179133Y-48722378D01*
X84193633Y-48869600D01*
X84179133Y-49016822D01*
X84177226Y-49023107D01*
X84136189Y-49158388D01*
X84101322Y-49223619D01*
X84066454Y-49288852D01*
X84042008Y-49318640D01*
X83972607Y-49403207D01*
X83912004Y-49452941D01*
X83858252Y-49497054D01*
X83727786Y-49566790D01*
X83586222Y-49609733D01*
X83512665Y-49616978D01*
X83475888Y-49620600D01*
X83402112Y-49620600D01*
X83365335Y-49616978D01*
X83291778Y-49609733D01*
X83150214Y-49566790D01*
X83019748Y-49497054D01*
X82965996Y-49452941D01*
X82905393Y-49403207D01*
X82835992Y-49318640D01*
X82811546Y-49288852D01*
X82776678Y-49223619D01*
X82741811Y-49158388D01*
X82700774Y-49023107D01*
X82698867Y-49016822D01*
X82684367Y-48869600D01*
X82698867Y-48722378D01*
X82741810Y-48580814D01*
X82811546Y-48450348D01*
X82835992Y-48420560D01*
X82905393Y-48335993D01*
X82989960Y-48266592D01*
X83019748Y-48242146D01*
X83150214Y-48172410D01*
X83291778Y-48129467D01*
X83365335Y-48122222D01*
X83402112Y-48118600D01*
X83475888Y-48118600D01*
X83512665Y-48122222D01*
X83512665Y-48122222D01*
G37*
M02*
