G04 #@! TF.GenerationSoftware,KiCad,Pcbnew,(5.1.2-1)-1*
G04 #@! TF.CreationDate,2019-05-16T16:36:24-07:00*
G04 #@! TF.ProjectId,ButtonBoard,42757474-6f6e-4426-9f61-72642e6b6963,rev?*
G04 #@! TF.SameCoordinates,Original*
G04 #@! TF.FileFunction,Legend,Top*
G04 #@! TF.FilePolarity,Positive*
%FSLAX46Y46*%
G04 Gerber Fmt 4.6, Leading zero omitted, Abs format (unit mm)*
G04 Created by KiCad (PCBNEW (5.1.2-1)-1) date 2019-05-16 16:36:24*
%MOMM*%
%LPD*%
G04 APERTURE LIST*
%ADD10C,0.127000*%
%ADD11C,0.120000*%
%ADD12C,0.100000*%
%ADD13C,0.150000*%
%ADD14C,0.254000*%
G04 APERTURE END LIST*
D10*
X84291714Y-51670857D02*
X84291714Y-52033714D01*
X83529714Y-52033714D01*
X83892571Y-51416857D02*
X83892571Y-51162857D01*
X84291714Y-51054000D02*
X84291714Y-51416857D01*
X83529714Y-51416857D01*
X83529714Y-51054000D01*
X84291714Y-50727428D02*
X83529714Y-50727428D01*
X83529714Y-50546000D01*
X83566000Y-50437142D01*
X83638571Y-50364571D01*
X83711142Y-50328285D01*
X83856285Y-50292000D01*
X83965142Y-50292000D01*
X84110285Y-50328285D01*
X84182857Y-50364571D01*
X84255428Y-50437142D01*
X84291714Y-50546000D01*
X84291714Y-50727428D01*
X91530714Y-52650571D02*
X91530714Y-52215142D01*
X92292714Y-52432857D02*
X91530714Y-52432857D01*
X92292714Y-51852285D02*
X92256428Y-51924857D01*
X92220142Y-51961142D01*
X92147571Y-51997428D01*
X91929857Y-51997428D01*
X91857285Y-51961142D01*
X91821000Y-51924857D01*
X91784714Y-51852285D01*
X91784714Y-51743428D01*
X91821000Y-51670857D01*
X91857285Y-51634571D01*
X91929857Y-51598285D01*
X92147571Y-51598285D01*
X92220142Y-51634571D01*
X92256428Y-51670857D01*
X92292714Y-51743428D01*
X92292714Y-51852285D01*
X91893571Y-51271714D02*
X91893571Y-51017714D01*
X92292714Y-50908857D02*
X92292714Y-51271714D01*
X91530714Y-51271714D01*
X91530714Y-50908857D01*
X91784714Y-50691142D02*
X91784714Y-50400857D01*
X92292714Y-50582285D02*
X91639571Y-50582285D01*
X91567000Y-50546000D01*
X91530714Y-50473428D01*
X91530714Y-50400857D01*
X91784714Y-50255714D02*
X91784714Y-49965428D01*
X92292714Y-50146857D02*
X91639571Y-50146857D01*
X91567000Y-50110571D01*
X91530714Y-50038000D01*
X91530714Y-49965428D01*
X90260714Y-51779714D02*
X89498714Y-51779714D01*
X89752714Y-51416857D02*
X90260714Y-51416857D01*
X89825285Y-51416857D02*
X89789000Y-51380571D01*
X89752714Y-51308000D01*
X89752714Y-51199142D01*
X89789000Y-51126571D01*
X89861571Y-51090285D01*
X90260714Y-51090285D01*
X87829571Y-52287714D02*
X87829571Y-52541714D01*
X88228714Y-52541714D02*
X87466714Y-52541714D01*
X87466714Y-52178857D01*
X88228714Y-51888571D02*
X87720714Y-51888571D01*
X87865857Y-51888571D02*
X87793285Y-51852285D01*
X87757000Y-51816000D01*
X87720714Y-51743428D01*
X87720714Y-51670857D01*
X88228714Y-51416857D02*
X87720714Y-51416857D01*
X87793285Y-51416857D02*
X87757000Y-51380571D01*
X87720714Y-51308000D01*
X87720714Y-51199142D01*
X87757000Y-51126571D01*
X87829571Y-51090285D01*
X88228714Y-51090285D01*
X87829571Y-51090285D02*
X87757000Y-51054000D01*
X87720714Y-50981428D01*
X87720714Y-50872571D01*
X87757000Y-50800000D01*
X87829571Y-50763714D01*
X88228714Y-50763714D01*
X87829571Y-50400857D02*
X87829571Y-50146857D01*
X88228714Y-50038000D02*
X88228714Y-50400857D01*
X87466714Y-50400857D01*
X87466714Y-50038000D01*
X85561714Y-51816000D02*
X85561714Y-51670857D01*
X85598000Y-51598285D01*
X85670571Y-51525714D01*
X85815714Y-51489428D01*
X86069714Y-51489428D01*
X86214857Y-51525714D01*
X86287428Y-51598285D01*
X86323714Y-51670857D01*
X86323714Y-51816000D01*
X86287428Y-51888571D01*
X86214857Y-51961142D01*
X86069714Y-51997428D01*
X85815714Y-51997428D01*
X85670571Y-51961142D01*
X85598000Y-51888571D01*
X85561714Y-51816000D01*
X85815714Y-50836285D02*
X86323714Y-50836285D01*
X85815714Y-51162857D02*
X86214857Y-51162857D01*
X86287428Y-51126571D01*
X86323714Y-51054000D01*
X86323714Y-50945142D01*
X86287428Y-50872571D01*
X86251142Y-50836285D01*
X85815714Y-50582285D02*
X85815714Y-50292000D01*
X85561714Y-50473428D02*
X86214857Y-50473428D01*
X86287428Y-50437142D01*
X86323714Y-50364571D01*
X86323714Y-50292000D01*
D11*
X80855000Y-49955000D02*
X80855000Y-48895000D01*
X81915000Y-49955000D02*
X80855000Y-49955000D01*
X82915000Y-49955000D02*
X82915000Y-47835000D01*
X82915000Y-47835000D02*
X92975000Y-47835000D01*
X82915000Y-49955000D02*
X92975000Y-49955000D01*
X92975000Y-49955000D02*
X92975000Y-47835000D01*
D12*
X77900000Y-68505000D02*
X77900000Y-51505000D01*
X97500000Y-68505000D02*
X77900000Y-68505000D01*
X97500000Y-51505000D02*
X97500000Y-68505000D01*
X77900000Y-51505000D02*
X97500000Y-51505000D01*
D11*
X74010000Y-53325000D02*
X74010000Y-57165000D01*
X75850000Y-53325000D02*
X75850000Y-57165000D01*
X75375000Y-65060000D02*
X75531000Y-65060000D01*
X73059000Y-65060000D02*
X73215000Y-65060000D01*
X75374837Y-62458870D02*
G75*
G02X75375000Y-64540961I-1079837J-1041130D01*
G01*
X73215163Y-62458870D02*
G75*
G03X73215000Y-64540961I1079837J-1041130D01*
G01*
X75373608Y-61827665D02*
G75*
G02X75530516Y-65060000I-1078608J-1672335D01*
G01*
X73216392Y-61827665D02*
G75*
G03X73059484Y-65060000I1078608J-1672335D01*
G01*
D13*
X79307380Y-49228333D02*
X80021666Y-49228333D01*
X80164523Y-49275952D01*
X80259761Y-49371190D01*
X80307380Y-49514047D01*
X80307380Y-49609285D01*
X80307380Y-48228333D02*
X80307380Y-48799761D01*
X80307380Y-48514047D02*
X79307380Y-48514047D01*
X79450238Y-48609285D01*
X79545476Y-48704523D01*
X79593095Y-48799761D01*
D10*
X81534000Y-51761571D02*
X81497714Y-51834142D01*
X81497714Y-51943000D01*
X81534000Y-52051857D01*
X81606571Y-52124428D01*
X81679142Y-52160714D01*
X81824285Y-52197000D01*
X81933142Y-52197000D01*
X82078285Y-52160714D01*
X82150857Y-52124428D01*
X82223428Y-52051857D01*
X82259714Y-51943000D01*
X82259714Y-51870428D01*
X82223428Y-51761571D01*
X82187142Y-51725285D01*
X81933142Y-51725285D01*
X81933142Y-51870428D01*
X82259714Y-51398714D02*
X81497714Y-51398714D01*
X82259714Y-50963285D01*
X81497714Y-50963285D01*
X82259714Y-50600428D02*
X81497714Y-50600428D01*
X81497714Y-50419000D01*
X81534000Y-50310142D01*
X81606571Y-50237571D01*
X81679142Y-50201285D01*
X81824285Y-50165000D01*
X81933142Y-50165000D01*
X82078285Y-50201285D01*
X82150857Y-50237571D01*
X82223428Y-50310142D01*
X82259714Y-50419000D01*
X82259714Y-50600428D01*
D14*
X86732380Y-60519047D02*
X86913809Y-60579523D01*
X87216190Y-60579523D01*
X87337142Y-60519047D01*
X87397619Y-60458571D01*
X87458095Y-60337619D01*
X87458095Y-60216666D01*
X87397619Y-60095714D01*
X87337142Y-60035238D01*
X87216190Y-59974761D01*
X86974285Y-59914285D01*
X86853333Y-59853809D01*
X86792857Y-59793333D01*
X86732380Y-59672380D01*
X86732380Y-59551428D01*
X86792857Y-59430476D01*
X86853333Y-59370000D01*
X86974285Y-59309523D01*
X87276666Y-59309523D01*
X87458095Y-59370000D01*
X88667619Y-60579523D02*
X87941904Y-60579523D01*
X88304761Y-60579523D02*
X88304761Y-59309523D01*
X88183809Y-59490952D01*
X88062857Y-59611904D01*
X87941904Y-59672380D01*
D13*
X73477380Y-55411666D02*
X73001190Y-55745000D01*
X73477380Y-55983095D02*
X72477380Y-55983095D01*
X72477380Y-55602142D01*
X72525000Y-55506904D01*
X72572619Y-55459285D01*
X72667857Y-55411666D01*
X72810714Y-55411666D01*
X72905952Y-55459285D01*
X72953571Y-55506904D01*
X73001190Y-55602142D01*
X73001190Y-55983095D01*
X73477380Y-54459285D02*
X73477380Y-55030714D01*
X73477380Y-54745000D02*
X72477380Y-54745000D01*
X72620238Y-54840238D01*
X72715476Y-54935476D01*
X72763095Y-55030714D01*
X75382380Y-55364047D02*
X75382380Y-55935476D01*
X75382380Y-55649761D02*
X74382380Y-55649761D01*
X74525238Y-55745000D01*
X74620476Y-55840238D01*
X74668095Y-55935476D01*
X75382380Y-54935476D02*
X74382380Y-54935476D01*
X75001428Y-54840238D02*
X75382380Y-54554523D01*
X74715714Y-54554523D02*
X75096666Y-54935476D01*
X73556904Y-67127380D02*
X73556904Y-66127380D01*
X73795000Y-66127380D01*
X73937857Y-66175000D01*
X74033095Y-66270238D01*
X74080714Y-66365476D01*
X74128333Y-66555952D01*
X74128333Y-66698809D01*
X74080714Y-66889285D01*
X74033095Y-66984523D01*
X73937857Y-67079761D01*
X73795000Y-67127380D01*
X73556904Y-67127380D01*
X75080714Y-67127380D02*
X74509285Y-67127380D01*
X74795000Y-67127380D02*
X74795000Y-66127380D01*
X74699761Y-66270238D01*
X74604523Y-66365476D01*
X74509285Y-66413095D01*
M02*
