G04 #@! TF.GenerationSoftware,KiCad,Pcbnew,(5.1.2-1)-1*
G04 #@! TF.CreationDate,2019-05-16T16:36:24-07:00*
G04 #@! TF.ProjectId,ButtonBoard,42757474-6f6e-4426-9f61-72642e6b6963,rev?*
G04 #@! TF.SameCoordinates,Original*
G04 #@! TF.FileFunction,Soldermask,Top*
G04 #@! TF.FilePolarity,Negative*
%FSLAX46Y46*%
G04 Gerber Fmt 4.6, Leading zero omitted, Abs format (unit mm)*
G04 Created by KiCad (PCBNEW (5.1.2-1)-1) date 2019-05-16 16:36:24*
%MOMM*%
%LPD*%
G04 APERTURE LIST*
%ADD10C,0.100000*%
G04 APERTURE END LIST*
D10*
G36*
X93338651Y-63688616D02*
G01*
X93549940Y-63776135D01*
X93740095Y-63903192D01*
X93901808Y-64064905D01*
X94028865Y-64255060D01*
X94116384Y-64466349D01*
X94161000Y-64690651D01*
X94161000Y-64919349D01*
X94116384Y-65143651D01*
X94028865Y-65354940D01*
X93901808Y-65545095D01*
X93740095Y-65706808D01*
X93549940Y-65833865D01*
X93338651Y-65921384D01*
X93114349Y-65966000D01*
X92885651Y-65966000D01*
X92661349Y-65921384D01*
X92450060Y-65833865D01*
X92259905Y-65706808D01*
X92098192Y-65545095D01*
X91971135Y-65354940D01*
X91883616Y-65143651D01*
X91839000Y-64919349D01*
X91839000Y-64690651D01*
X91883616Y-64466349D01*
X91971135Y-64255060D01*
X92098192Y-64064905D01*
X92259905Y-63903192D01*
X92450060Y-63776135D01*
X92661349Y-63688616D01*
X92885651Y-63644000D01*
X93114349Y-63644000D01*
X93338651Y-63688616D01*
X93338651Y-63688616D01*
G37*
G36*
X88038651Y-63688616D02*
G01*
X88249940Y-63776135D01*
X88440095Y-63903192D01*
X88601808Y-64064905D01*
X88728865Y-64255060D01*
X88816384Y-64466349D01*
X88861000Y-64690651D01*
X88861000Y-64919349D01*
X88816384Y-65143651D01*
X88728865Y-65354940D01*
X88601808Y-65545095D01*
X88440095Y-65706808D01*
X88249940Y-65833865D01*
X88038651Y-65921384D01*
X87814349Y-65966000D01*
X87585651Y-65966000D01*
X87361349Y-65921384D01*
X87150060Y-65833865D01*
X86959905Y-65706808D01*
X86798192Y-65545095D01*
X86671135Y-65354940D01*
X86583616Y-65143651D01*
X86539000Y-64919349D01*
X86539000Y-64690651D01*
X86583616Y-64466349D01*
X86671135Y-64255060D01*
X86798192Y-64064905D01*
X86959905Y-63903192D01*
X87150060Y-63776135D01*
X87361349Y-63688616D01*
X87585651Y-63644000D01*
X87814349Y-63644000D01*
X88038651Y-63688616D01*
X88038651Y-63688616D01*
G37*
G36*
X82738651Y-63688616D02*
G01*
X82949940Y-63776135D01*
X83140095Y-63903192D01*
X83301808Y-64064905D01*
X83428865Y-64255060D01*
X83516384Y-64466349D01*
X83561000Y-64690651D01*
X83561000Y-64919349D01*
X83516384Y-65143651D01*
X83428865Y-65354940D01*
X83301808Y-65545095D01*
X83140095Y-65706808D01*
X82949940Y-65833865D01*
X82738651Y-65921384D01*
X82514349Y-65966000D01*
X82285651Y-65966000D01*
X82061349Y-65921384D01*
X81850060Y-65833865D01*
X81659905Y-65706808D01*
X81498192Y-65545095D01*
X81371135Y-65354940D01*
X81283616Y-65143651D01*
X81239000Y-64919349D01*
X81239000Y-64690651D01*
X81283616Y-64466349D01*
X81371135Y-64255060D01*
X81498192Y-64064905D01*
X81659905Y-63903192D01*
X81850060Y-63776135D01*
X82061349Y-63688616D01*
X82285651Y-63644000D01*
X82514349Y-63644000D01*
X82738651Y-63688616D01*
X82738651Y-63688616D01*
G37*
G36*
X75246000Y-65721000D02*
G01*
X73344000Y-65721000D01*
X73344000Y-63819000D01*
X75246000Y-63819000D01*
X75246000Y-65721000D01*
X75246000Y-65721000D01*
G37*
G36*
X74572395Y-61315546D02*
G01*
X74745466Y-61387234D01*
X74745467Y-61387235D01*
X74901227Y-61491310D01*
X75033690Y-61623773D01*
X75033691Y-61623775D01*
X75137766Y-61779534D01*
X75209454Y-61952605D01*
X75246000Y-62136333D01*
X75246000Y-62323667D01*
X75209454Y-62507395D01*
X75137766Y-62680466D01*
X75137765Y-62680467D01*
X75033690Y-62836227D01*
X74901227Y-62968690D01*
X74822818Y-63021081D01*
X74745466Y-63072766D01*
X74572395Y-63144454D01*
X74388667Y-63181000D01*
X74201333Y-63181000D01*
X74017605Y-63144454D01*
X73844534Y-63072766D01*
X73767182Y-63021081D01*
X73688773Y-62968690D01*
X73556310Y-62836227D01*
X73452235Y-62680467D01*
X73452234Y-62680466D01*
X73380546Y-62507395D01*
X73344000Y-62323667D01*
X73344000Y-62136333D01*
X73380546Y-61952605D01*
X73452234Y-61779534D01*
X73556309Y-61623775D01*
X73556310Y-61623773D01*
X73688773Y-61491310D01*
X73844533Y-61387235D01*
X73844534Y-61387234D01*
X74017605Y-61315546D01*
X74201333Y-61279000D01*
X74388667Y-61279000D01*
X74572395Y-61315546D01*
X74572395Y-61315546D01*
G37*
G36*
X82738651Y-58888616D02*
G01*
X82949940Y-58976135D01*
X83140095Y-59103192D01*
X83301808Y-59264905D01*
X83428865Y-59455060D01*
X83516384Y-59666349D01*
X83561000Y-59890651D01*
X83561000Y-60119349D01*
X83516384Y-60343651D01*
X83428865Y-60554940D01*
X83301808Y-60745095D01*
X83140095Y-60906808D01*
X82949940Y-61033865D01*
X82738651Y-61121384D01*
X82514349Y-61166000D01*
X82285651Y-61166000D01*
X82061349Y-61121384D01*
X81850060Y-61033865D01*
X81659905Y-60906808D01*
X81498192Y-60745095D01*
X81371135Y-60554940D01*
X81283616Y-60343651D01*
X81239000Y-60119349D01*
X81239000Y-59890651D01*
X81283616Y-59666349D01*
X81371135Y-59455060D01*
X81498192Y-59264905D01*
X81659905Y-59103192D01*
X81850060Y-58976135D01*
X82061349Y-58888616D01*
X82285651Y-58844000D01*
X82514349Y-58844000D01*
X82738651Y-58888616D01*
X82738651Y-58888616D01*
G37*
G36*
X93338651Y-58888616D02*
G01*
X93549940Y-58976135D01*
X93740095Y-59103192D01*
X93901808Y-59264905D01*
X94028865Y-59455060D01*
X94116384Y-59666349D01*
X94161000Y-59890651D01*
X94161000Y-60119349D01*
X94116384Y-60343651D01*
X94028865Y-60554940D01*
X93901808Y-60745095D01*
X93740095Y-60906808D01*
X93549940Y-61033865D01*
X93338651Y-61121384D01*
X93114349Y-61166000D01*
X92885651Y-61166000D01*
X92661349Y-61121384D01*
X92450060Y-61033865D01*
X92259905Y-60906808D01*
X92098192Y-60745095D01*
X91971135Y-60554940D01*
X91883616Y-60343651D01*
X91839000Y-60119349D01*
X91839000Y-59890651D01*
X91883616Y-59666349D01*
X91971135Y-59455060D01*
X92098192Y-59264905D01*
X92259905Y-59103192D01*
X92450060Y-58976135D01*
X92661349Y-58888616D01*
X92885651Y-58844000D01*
X93114349Y-58844000D01*
X93338651Y-58888616D01*
X93338651Y-58888616D01*
G37*
G36*
X88038651Y-58888616D02*
G01*
X88249940Y-58976135D01*
X88440095Y-59103192D01*
X88601808Y-59264905D01*
X88728865Y-59455060D01*
X88816384Y-59666349D01*
X88861000Y-59890651D01*
X88861000Y-60119349D01*
X88816384Y-60343651D01*
X88728865Y-60554940D01*
X88601808Y-60745095D01*
X88440095Y-60906808D01*
X88249940Y-61033865D01*
X88038651Y-61121384D01*
X87814349Y-61166000D01*
X87585651Y-61166000D01*
X87361349Y-61121384D01*
X87150060Y-61033865D01*
X86959905Y-60906808D01*
X86798192Y-60745095D01*
X86671135Y-60554940D01*
X86583616Y-60343651D01*
X86539000Y-60119349D01*
X86539000Y-59890651D01*
X86583616Y-59666349D01*
X86671135Y-59455060D01*
X86798192Y-59264905D01*
X86959905Y-59103192D01*
X87150060Y-58976135D01*
X87361349Y-58888616D01*
X87585651Y-58844000D01*
X87814349Y-58844000D01*
X88038651Y-58888616D01*
X88038651Y-58888616D01*
G37*
G36*
X75003665Y-57037622D02*
G01*
X75077222Y-57044867D01*
X75218786Y-57087810D01*
X75349252Y-57157546D01*
X75379040Y-57181992D01*
X75463607Y-57251393D01*
X75533008Y-57335960D01*
X75557454Y-57365748D01*
X75627190Y-57496214D01*
X75670133Y-57637778D01*
X75684633Y-57785000D01*
X75670133Y-57932222D01*
X75627190Y-58073786D01*
X75557454Y-58204252D01*
X75533008Y-58234040D01*
X75463607Y-58318607D01*
X75379040Y-58388008D01*
X75349252Y-58412454D01*
X75218786Y-58482190D01*
X75077222Y-58525133D01*
X75003665Y-58532378D01*
X74966888Y-58536000D01*
X74893112Y-58536000D01*
X74856335Y-58532378D01*
X74782778Y-58525133D01*
X74641214Y-58482190D01*
X74510748Y-58412454D01*
X74480960Y-58388008D01*
X74396393Y-58318607D01*
X74326992Y-58234040D01*
X74302546Y-58204252D01*
X74232810Y-58073786D01*
X74189867Y-57932222D01*
X74175367Y-57785000D01*
X74189867Y-57637778D01*
X74232810Y-57496214D01*
X74302546Y-57365748D01*
X74326992Y-57335960D01*
X74396393Y-57251393D01*
X74480960Y-57181992D01*
X74510748Y-57157546D01*
X74641214Y-57087810D01*
X74782778Y-57044867D01*
X74856335Y-57037622D01*
X74893112Y-57034000D01*
X74966888Y-57034000D01*
X75003665Y-57037622D01*
X75003665Y-57037622D01*
G37*
G36*
X93338651Y-54088616D02*
G01*
X93549940Y-54176135D01*
X93740095Y-54303192D01*
X93901808Y-54464905D01*
X94028865Y-54655060D01*
X94116384Y-54866349D01*
X94161000Y-55090651D01*
X94161000Y-55319349D01*
X94116384Y-55543651D01*
X94028865Y-55754940D01*
X93901808Y-55945095D01*
X93740095Y-56106808D01*
X93549940Y-56233865D01*
X93338651Y-56321384D01*
X93114349Y-56366000D01*
X92885651Y-56366000D01*
X92661349Y-56321384D01*
X92450060Y-56233865D01*
X92259905Y-56106808D01*
X92098192Y-55945095D01*
X91971135Y-55754940D01*
X91883616Y-55543651D01*
X91839000Y-55319349D01*
X91839000Y-55090651D01*
X91883616Y-54866349D01*
X91971135Y-54655060D01*
X92098192Y-54464905D01*
X92259905Y-54303192D01*
X92450060Y-54176135D01*
X92661349Y-54088616D01*
X92885651Y-54044000D01*
X93114349Y-54044000D01*
X93338651Y-54088616D01*
X93338651Y-54088616D01*
G37*
G36*
X88038651Y-54088616D02*
G01*
X88249940Y-54176135D01*
X88440095Y-54303192D01*
X88601808Y-54464905D01*
X88728865Y-54655060D01*
X88816384Y-54866349D01*
X88861000Y-55090651D01*
X88861000Y-55319349D01*
X88816384Y-55543651D01*
X88728865Y-55754940D01*
X88601808Y-55945095D01*
X88440095Y-56106808D01*
X88249940Y-56233865D01*
X88038651Y-56321384D01*
X87814349Y-56366000D01*
X87585651Y-56366000D01*
X87361349Y-56321384D01*
X87150060Y-56233865D01*
X86959905Y-56106808D01*
X86798192Y-55945095D01*
X86671135Y-55754940D01*
X86583616Y-55543651D01*
X86539000Y-55319349D01*
X86539000Y-55090651D01*
X86583616Y-54866349D01*
X86671135Y-54655060D01*
X86798192Y-54464905D01*
X86959905Y-54303192D01*
X87150060Y-54176135D01*
X87361349Y-54088616D01*
X87585651Y-54044000D01*
X87814349Y-54044000D01*
X88038651Y-54088616D01*
X88038651Y-54088616D01*
G37*
G36*
X82738651Y-54088616D02*
G01*
X82949940Y-54176135D01*
X83140095Y-54303192D01*
X83301808Y-54464905D01*
X83428865Y-54655060D01*
X83516384Y-54866349D01*
X83561000Y-55090651D01*
X83561000Y-55319349D01*
X83516384Y-55543651D01*
X83428865Y-55754940D01*
X83301808Y-55945095D01*
X83140095Y-56106808D01*
X82949940Y-56233865D01*
X82738651Y-56321384D01*
X82514349Y-56366000D01*
X82285651Y-56366000D01*
X82061349Y-56321384D01*
X81850060Y-56233865D01*
X81659905Y-56106808D01*
X81498192Y-55945095D01*
X81371135Y-55754940D01*
X81283616Y-55543651D01*
X81239000Y-55319349D01*
X81239000Y-55090651D01*
X81283616Y-54866349D01*
X81371135Y-54655060D01*
X81498192Y-54464905D01*
X81659905Y-54303192D01*
X81850060Y-54176135D01*
X82061349Y-54088616D01*
X82285651Y-54044000D01*
X82514349Y-54044000D01*
X82738651Y-54088616D01*
X82738651Y-54088616D01*
G37*
G36*
X75149059Y-51982860D02*
G01*
X75285732Y-52039472D01*
X75408735Y-52121660D01*
X75513340Y-52226265D01*
X75595528Y-52349268D01*
X75652140Y-52485941D01*
X75681000Y-52631033D01*
X75681000Y-52778967D01*
X75652140Y-52924059D01*
X75595528Y-53060732D01*
X75513340Y-53183735D01*
X75408735Y-53288340D01*
X75285732Y-53370528D01*
X75285731Y-53370529D01*
X75285730Y-53370529D01*
X75149059Y-53427140D01*
X75003968Y-53456000D01*
X74856032Y-53456000D01*
X74710941Y-53427140D01*
X74574270Y-53370529D01*
X74574269Y-53370529D01*
X74574268Y-53370528D01*
X74451265Y-53288340D01*
X74346660Y-53183735D01*
X74264472Y-53060732D01*
X74207860Y-52924059D01*
X74179000Y-52778967D01*
X74179000Y-52631033D01*
X74207860Y-52485941D01*
X74264472Y-52349268D01*
X74346660Y-52226265D01*
X74451265Y-52121660D01*
X74574268Y-52039472D01*
X74710941Y-51982860D01*
X74856032Y-51954000D01*
X75003968Y-51954000D01*
X75149059Y-51982860D01*
X75149059Y-51982860D01*
G37*
G36*
X82641000Y-49621000D02*
G01*
X81189000Y-49621000D01*
X81189000Y-48169000D01*
X82641000Y-48169000D01*
X82641000Y-49621000D01*
X82641000Y-49621000D01*
G37*
G36*
X83986213Y-48172502D02*
G01*
X84057321Y-48179505D01*
X84194172Y-48221019D01*
X84194175Y-48221020D01*
X84320294Y-48288432D01*
X84430843Y-48379157D01*
X84521568Y-48489706D01*
X84588980Y-48615825D01*
X84588981Y-48615828D01*
X84630495Y-48752679D01*
X84644512Y-48895000D01*
X84630495Y-49037321D01*
X84588981Y-49174172D01*
X84588980Y-49174175D01*
X84521568Y-49300294D01*
X84430843Y-49410843D01*
X84320294Y-49501568D01*
X84194175Y-49568980D01*
X84194172Y-49568981D01*
X84057321Y-49610495D01*
X83986213Y-49617498D01*
X83950660Y-49621000D01*
X83879340Y-49621000D01*
X83843787Y-49617498D01*
X83772679Y-49610495D01*
X83635828Y-49568981D01*
X83635825Y-49568980D01*
X83509706Y-49501568D01*
X83399157Y-49410843D01*
X83308432Y-49300294D01*
X83241020Y-49174175D01*
X83241019Y-49174172D01*
X83199505Y-49037321D01*
X83185488Y-48895000D01*
X83199505Y-48752679D01*
X83241019Y-48615828D01*
X83241020Y-48615825D01*
X83308432Y-48489706D01*
X83399157Y-48379157D01*
X83509706Y-48288432D01*
X83635825Y-48221020D01*
X83635828Y-48221019D01*
X83772679Y-48179505D01*
X83843787Y-48172502D01*
X83879340Y-48169000D01*
X83950660Y-48169000D01*
X83986213Y-48172502D01*
X83986213Y-48172502D01*
G37*
G36*
X85986213Y-48172502D02*
G01*
X86057321Y-48179505D01*
X86194172Y-48221019D01*
X86194175Y-48221020D01*
X86320294Y-48288432D01*
X86430843Y-48379157D01*
X86521568Y-48489706D01*
X86588980Y-48615825D01*
X86588981Y-48615828D01*
X86630495Y-48752679D01*
X86644512Y-48895000D01*
X86630495Y-49037321D01*
X86588981Y-49174172D01*
X86588980Y-49174175D01*
X86521568Y-49300294D01*
X86430843Y-49410843D01*
X86320294Y-49501568D01*
X86194175Y-49568980D01*
X86194172Y-49568981D01*
X86057321Y-49610495D01*
X85986213Y-49617498D01*
X85950660Y-49621000D01*
X85879340Y-49621000D01*
X85843787Y-49617498D01*
X85772679Y-49610495D01*
X85635828Y-49568981D01*
X85635825Y-49568980D01*
X85509706Y-49501568D01*
X85399157Y-49410843D01*
X85308432Y-49300294D01*
X85241020Y-49174175D01*
X85241019Y-49174172D01*
X85199505Y-49037321D01*
X85185488Y-48895000D01*
X85199505Y-48752679D01*
X85241019Y-48615828D01*
X85241020Y-48615825D01*
X85308432Y-48489706D01*
X85399157Y-48379157D01*
X85509706Y-48288432D01*
X85635825Y-48221020D01*
X85635828Y-48221019D01*
X85772679Y-48179505D01*
X85843787Y-48172502D01*
X85879340Y-48169000D01*
X85950660Y-48169000D01*
X85986213Y-48172502D01*
X85986213Y-48172502D01*
G37*
G36*
X87986213Y-48172502D02*
G01*
X88057321Y-48179505D01*
X88194172Y-48221019D01*
X88194175Y-48221020D01*
X88320294Y-48288432D01*
X88430843Y-48379157D01*
X88521568Y-48489706D01*
X88588980Y-48615825D01*
X88588981Y-48615828D01*
X88630495Y-48752679D01*
X88644512Y-48895000D01*
X88630495Y-49037321D01*
X88588981Y-49174172D01*
X88588980Y-49174175D01*
X88521568Y-49300294D01*
X88430843Y-49410843D01*
X88320294Y-49501568D01*
X88194175Y-49568980D01*
X88194172Y-49568981D01*
X88057321Y-49610495D01*
X87986213Y-49617498D01*
X87950660Y-49621000D01*
X87879340Y-49621000D01*
X87843787Y-49617498D01*
X87772679Y-49610495D01*
X87635828Y-49568981D01*
X87635825Y-49568980D01*
X87509706Y-49501568D01*
X87399157Y-49410843D01*
X87308432Y-49300294D01*
X87241020Y-49174175D01*
X87241019Y-49174172D01*
X87199505Y-49037321D01*
X87185488Y-48895000D01*
X87199505Y-48752679D01*
X87241019Y-48615828D01*
X87241020Y-48615825D01*
X87308432Y-48489706D01*
X87399157Y-48379157D01*
X87509706Y-48288432D01*
X87635825Y-48221020D01*
X87635828Y-48221019D01*
X87772679Y-48179505D01*
X87843787Y-48172502D01*
X87879340Y-48169000D01*
X87950660Y-48169000D01*
X87986213Y-48172502D01*
X87986213Y-48172502D01*
G37*
G36*
X89986213Y-48172502D02*
G01*
X90057321Y-48179505D01*
X90194172Y-48221019D01*
X90194175Y-48221020D01*
X90320294Y-48288432D01*
X90430843Y-48379157D01*
X90521568Y-48489706D01*
X90588980Y-48615825D01*
X90588981Y-48615828D01*
X90630495Y-48752679D01*
X90644512Y-48895000D01*
X90630495Y-49037321D01*
X90588981Y-49174172D01*
X90588980Y-49174175D01*
X90521568Y-49300294D01*
X90430843Y-49410843D01*
X90320294Y-49501568D01*
X90194175Y-49568980D01*
X90194172Y-49568981D01*
X90057321Y-49610495D01*
X89986213Y-49617498D01*
X89950660Y-49621000D01*
X89879340Y-49621000D01*
X89843787Y-49617498D01*
X89772679Y-49610495D01*
X89635828Y-49568981D01*
X89635825Y-49568980D01*
X89509706Y-49501568D01*
X89399157Y-49410843D01*
X89308432Y-49300294D01*
X89241020Y-49174175D01*
X89241019Y-49174172D01*
X89199505Y-49037321D01*
X89185488Y-48895000D01*
X89199505Y-48752679D01*
X89241019Y-48615828D01*
X89241020Y-48615825D01*
X89308432Y-48489706D01*
X89399157Y-48379157D01*
X89509706Y-48288432D01*
X89635825Y-48221020D01*
X89635828Y-48221019D01*
X89772679Y-48179505D01*
X89843787Y-48172502D01*
X89879340Y-48169000D01*
X89950660Y-48169000D01*
X89986213Y-48172502D01*
X89986213Y-48172502D01*
G37*
G36*
X91986213Y-48172502D02*
G01*
X92057321Y-48179505D01*
X92194172Y-48221019D01*
X92194175Y-48221020D01*
X92320294Y-48288432D01*
X92430843Y-48379157D01*
X92521568Y-48489706D01*
X92588980Y-48615825D01*
X92588981Y-48615828D01*
X92630495Y-48752679D01*
X92644512Y-48895000D01*
X92630495Y-49037321D01*
X92588981Y-49174172D01*
X92588980Y-49174175D01*
X92521568Y-49300294D01*
X92430843Y-49410843D01*
X92320294Y-49501568D01*
X92194175Y-49568980D01*
X92194172Y-49568981D01*
X92057321Y-49610495D01*
X91986213Y-49617498D01*
X91950660Y-49621000D01*
X91879340Y-49621000D01*
X91843787Y-49617498D01*
X91772679Y-49610495D01*
X91635828Y-49568981D01*
X91635825Y-49568980D01*
X91509706Y-49501568D01*
X91399157Y-49410843D01*
X91308432Y-49300294D01*
X91241020Y-49174175D01*
X91241019Y-49174172D01*
X91199505Y-49037321D01*
X91185488Y-48895000D01*
X91199505Y-48752679D01*
X91241019Y-48615828D01*
X91241020Y-48615825D01*
X91308432Y-48489706D01*
X91399157Y-48379157D01*
X91509706Y-48288432D01*
X91635825Y-48221020D01*
X91635828Y-48221019D01*
X91772679Y-48179505D01*
X91843787Y-48172502D01*
X91879340Y-48169000D01*
X91950660Y-48169000D01*
X91986213Y-48172502D01*
X91986213Y-48172502D01*
G37*
M02*
