M48
; DRILL file {KiCad (5.1.2-1)-1} date Monday, June 03, 2019 at 08:08:13 AM
; FORMAT={-:-/ absolute / inch / decimal}
; #@! TF.CreationDate,2019-06-03T08:08:13-07:00
; #@! TF.GenerationSoftware,Kicad,Pcbnew,(5.1.2-1)-1
; #@! TF.FileFunction,Plated,1,2,PTH
FMAT,2
INCH
T1C0.0276
T2C0.0315
T3C0.0354
T4C0.0394
T5C0.0886
%
G90
G05
T1
X3.085Y-1.924
X3.285Y-1.924
T2
X2.965Y-1.94
X2.965Y-2.0187
X2.965Y-2.0975
X2.965Y-2.1762
X2.965Y-2.255
X2.965Y-2.3337
T3
X3.405Y-1.925
X3.505Y-1.925
T4
X2.965Y-2.66
X3.795Y-1.925
T5
X3.2441Y-2.1734
X3.2441Y-2.3624
X3.2441Y-2.5514
X3.4528Y-2.1734
X3.4528Y-2.3624
X3.4528Y-2.5514
X3.6614Y-2.1734
X3.6614Y-2.3624
X3.6614Y-2.5514
T0
M30
