G04 #@! TF.GenerationSoftware,KiCad,Pcbnew,(5.1.2-1)-1*
G04 #@! TF.CreationDate,2019-05-16T16:36:24-07:00*
G04 #@! TF.ProjectId,ButtonBoard,42757474-6f6e-4426-9f61-72642e6b6963,rev?*
G04 #@! TF.SameCoordinates,Original*
G04 #@! TF.FileFunction,Copper,L2,Bot*
G04 #@! TF.FilePolarity,Positive*
%FSLAX46Y46*%
G04 Gerber Fmt 4.6, Leading zero omitted, Abs format (unit mm)*
G04 Created by KiCad (PCBNEW (5.1.2-1)-1) date 2019-05-16 16:36:24*
%MOMM*%
%LPD*%
G04 APERTURE LIST*
%ADD10O,1.350000X1.350000*%
%ADD11R,1.350000X1.350000*%
%ADD12C,2.220000*%
%ADD13O,1.400000X1.400000*%
%ADD14C,1.400000*%
%ADD15C,1.800000*%
%ADD16R,1.800000X1.800000*%
%ADD17C,0.508000*%
%ADD18C,0.254000*%
G04 APERTURE END LIST*
D10*
X91915000Y-48895000D03*
X89915000Y-48895000D03*
X87915000Y-48895000D03*
X85915000Y-48895000D03*
X83915000Y-48895000D03*
D11*
X81915000Y-48895000D03*
D12*
X82400000Y-55205000D03*
X82400000Y-60005000D03*
X82400000Y-64805000D03*
X87700000Y-55205000D03*
X87700000Y-60005000D03*
X87700000Y-64805000D03*
X93000000Y-55205000D03*
X93000000Y-60005000D03*
X93000000Y-64805000D03*
D13*
X74930000Y-57785000D03*
D14*
X74930000Y-52705000D03*
D15*
X74295000Y-62230000D03*
D16*
X74295000Y-64770000D03*
D17*
X93000000Y-55205000D02*
X87700000Y-55205000D01*
D18*
G36*
X80650498Y-47975820D02*
G01*
X80614188Y-48095518D01*
X80601928Y-48220000D01*
X80605000Y-48609250D01*
X80763750Y-48768000D01*
X81788000Y-48768000D01*
X81788000Y-48748000D01*
X82042000Y-48748000D01*
X82042000Y-48768000D01*
X82062000Y-48768000D01*
X82062000Y-49022000D01*
X82042000Y-49022000D01*
X82042000Y-50046250D01*
X82200750Y-50205000D01*
X82590000Y-50208072D01*
X82714482Y-50195812D01*
X82834180Y-50159502D01*
X82944494Y-50100537D01*
X83041185Y-50021185D01*
X83114074Y-49932369D01*
X83183682Y-49989495D01*
X83411259Y-50111138D01*
X83658195Y-50186045D01*
X83850649Y-50205000D01*
X83979351Y-50205000D01*
X84171805Y-50186045D01*
X84418741Y-50111138D01*
X84646318Y-49989495D01*
X84845792Y-49825792D01*
X84915000Y-49741461D01*
X84984208Y-49825792D01*
X85183682Y-49989495D01*
X85411259Y-50111138D01*
X85658195Y-50186045D01*
X85850649Y-50205000D01*
X85979351Y-50205000D01*
X86171805Y-50186045D01*
X86418741Y-50111138D01*
X86646318Y-49989495D01*
X86845792Y-49825792D01*
X86915000Y-49741461D01*
X86984208Y-49825792D01*
X87183682Y-49989495D01*
X87411259Y-50111138D01*
X87658195Y-50186045D01*
X87850649Y-50205000D01*
X87979351Y-50205000D01*
X88171805Y-50186045D01*
X88418741Y-50111138D01*
X88646318Y-49989495D01*
X88845792Y-49825792D01*
X88915000Y-49741461D01*
X88984208Y-49825792D01*
X89183682Y-49989495D01*
X89411259Y-50111138D01*
X89658195Y-50186045D01*
X89850649Y-50205000D01*
X89979351Y-50205000D01*
X90171805Y-50186045D01*
X90418741Y-50111138D01*
X90646318Y-49989495D01*
X90845792Y-49825792D01*
X90915000Y-49741461D01*
X90984208Y-49825792D01*
X91183682Y-49989495D01*
X91411259Y-50111138D01*
X91658195Y-50186045D01*
X91850649Y-50205000D01*
X91979351Y-50205000D01*
X92171805Y-50186045D01*
X92418741Y-50111138D01*
X92646318Y-49989495D01*
X92845792Y-49825792D01*
X93009495Y-49626318D01*
X93131138Y-49398741D01*
X93206045Y-49151805D01*
X93231338Y-48895000D01*
X93206045Y-48638195D01*
X93131138Y-48391259D01*
X93009495Y-48163682D01*
X92845792Y-47964208D01*
X92772428Y-47904000D01*
X98400000Y-47904000D01*
X98400001Y-68936000D01*
X72542000Y-68936000D01*
X72542000Y-63870000D01*
X72756928Y-63870000D01*
X72756928Y-65670000D01*
X72769188Y-65794482D01*
X72805498Y-65914180D01*
X72864463Y-66024494D01*
X72943815Y-66121185D01*
X73040506Y-66200537D01*
X73150820Y-66259502D01*
X73270518Y-66295812D01*
X73395000Y-66308072D01*
X75195000Y-66308072D01*
X75319482Y-66295812D01*
X75439180Y-66259502D01*
X75549494Y-66200537D01*
X75646185Y-66121185D01*
X75725537Y-66024494D01*
X75784502Y-65914180D01*
X75820812Y-65794482D01*
X75833072Y-65670000D01*
X75833072Y-64633133D01*
X80655000Y-64633133D01*
X80655000Y-64976867D01*
X80722060Y-65313998D01*
X80853601Y-65631567D01*
X81044570Y-65917372D01*
X81287628Y-66160430D01*
X81573433Y-66351399D01*
X81891002Y-66482940D01*
X82228133Y-66550000D01*
X82571867Y-66550000D01*
X82908998Y-66482940D01*
X83226567Y-66351399D01*
X83512372Y-66160430D01*
X83755430Y-65917372D01*
X83946399Y-65631567D01*
X84077940Y-65313998D01*
X84145000Y-64976867D01*
X84145000Y-64633133D01*
X85955000Y-64633133D01*
X85955000Y-64976867D01*
X86022060Y-65313998D01*
X86153601Y-65631567D01*
X86344570Y-65917372D01*
X86587628Y-66160430D01*
X86873433Y-66351399D01*
X87191002Y-66482940D01*
X87528133Y-66550000D01*
X87871867Y-66550000D01*
X88208998Y-66482940D01*
X88526567Y-66351399D01*
X88812372Y-66160430D01*
X89055430Y-65917372D01*
X89246399Y-65631567D01*
X89377940Y-65313998D01*
X89445000Y-64976867D01*
X89445000Y-64633133D01*
X91255000Y-64633133D01*
X91255000Y-64976867D01*
X91322060Y-65313998D01*
X91453601Y-65631567D01*
X91644570Y-65917372D01*
X91887628Y-66160430D01*
X92173433Y-66351399D01*
X92491002Y-66482940D01*
X92828133Y-66550000D01*
X93171867Y-66550000D01*
X93508998Y-66482940D01*
X93826567Y-66351399D01*
X94112372Y-66160430D01*
X94355430Y-65917372D01*
X94546399Y-65631567D01*
X94677940Y-65313998D01*
X94745000Y-64976867D01*
X94745000Y-64633133D01*
X94677940Y-64296002D01*
X94546399Y-63978433D01*
X94355430Y-63692628D01*
X94112372Y-63449570D01*
X93826567Y-63258601D01*
X93508998Y-63127060D01*
X93171867Y-63060000D01*
X92828133Y-63060000D01*
X92491002Y-63127060D01*
X92173433Y-63258601D01*
X91887628Y-63449570D01*
X91644570Y-63692628D01*
X91453601Y-63978433D01*
X91322060Y-64296002D01*
X91255000Y-64633133D01*
X89445000Y-64633133D01*
X89377940Y-64296002D01*
X89246399Y-63978433D01*
X89055430Y-63692628D01*
X88812372Y-63449570D01*
X88526567Y-63258601D01*
X88208998Y-63127060D01*
X87871867Y-63060000D01*
X87528133Y-63060000D01*
X87191002Y-63127060D01*
X86873433Y-63258601D01*
X86587628Y-63449570D01*
X86344570Y-63692628D01*
X86153601Y-63978433D01*
X86022060Y-64296002D01*
X85955000Y-64633133D01*
X84145000Y-64633133D01*
X84077940Y-64296002D01*
X83946399Y-63978433D01*
X83755430Y-63692628D01*
X83512372Y-63449570D01*
X83226567Y-63258601D01*
X82908998Y-63127060D01*
X82571867Y-63060000D01*
X82228133Y-63060000D01*
X81891002Y-63127060D01*
X81573433Y-63258601D01*
X81287628Y-63449570D01*
X81044570Y-63692628D01*
X80853601Y-63978433D01*
X80722060Y-64296002D01*
X80655000Y-64633133D01*
X75833072Y-64633133D01*
X75833072Y-63870000D01*
X75820812Y-63745518D01*
X75784502Y-63625820D01*
X75725537Y-63515506D01*
X75646185Y-63418815D01*
X75549494Y-63339463D01*
X75439180Y-63280498D01*
X75420873Y-63274944D01*
X75487312Y-63208505D01*
X75655299Y-62957095D01*
X75771011Y-62677743D01*
X75830000Y-62381184D01*
X75830000Y-62078816D01*
X75771011Y-61782257D01*
X75655299Y-61502905D01*
X75487312Y-61251495D01*
X75454656Y-61218839D01*
X81365766Y-61218839D01*
X81474804Y-61494489D01*
X81783166Y-61646365D01*
X82115233Y-61735165D01*
X82458244Y-61757476D01*
X82799015Y-61712440D01*
X83124454Y-61601789D01*
X83325196Y-61494489D01*
X83434234Y-61218839D01*
X82400000Y-60184605D01*
X81365766Y-61218839D01*
X75454656Y-61218839D01*
X75273505Y-61037688D01*
X75022095Y-60869701D01*
X74742743Y-60753989D01*
X74446184Y-60695000D01*
X74143816Y-60695000D01*
X73847257Y-60753989D01*
X73567905Y-60869701D01*
X73316495Y-61037688D01*
X73102688Y-61251495D01*
X72934701Y-61502905D01*
X72818989Y-61782257D01*
X72760000Y-62078816D01*
X72760000Y-62381184D01*
X72818989Y-62677743D01*
X72934701Y-62957095D01*
X73102688Y-63208505D01*
X73169127Y-63274944D01*
X73150820Y-63280498D01*
X73040506Y-63339463D01*
X72943815Y-63418815D01*
X72864463Y-63515506D01*
X72805498Y-63625820D01*
X72769188Y-63745518D01*
X72756928Y-63870000D01*
X72542000Y-63870000D01*
X72542000Y-60063244D01*
X80647524Y-60063244D01*
X80692560Y-60404015D01*
X80803211Y-60729454D01*
X80910511Y-60930196D01*
X81186161Y-61039234D01*
X82220395Y-60005000D01*
X82579605Y-60005000D01*
X83613839Y-61039234D01*
X83889489Y-60930196D01*
X84041365Y-60621834D01*
X84130165Y-60289767D01*
X84152476Y-59946756D01*
X84137460Y-59833133D01*
X85955000Y-59833133D01*
X85955000Y-60176867D01*
X86022060Y-60513998D01*
X86153601Y-60831567D01*
X86344570Y-61117372D01*
X86587628Y-61360430D01*
X86873433Y-61551399D01*
X87191002Y-61682940D01*
X87528133Y-61750000D01*
X87871867Y-61750000D01*
X88208998Y-61682940D01*
X88526567Y-61551399D01*
X88812372Y-61360430D01*
X89055430Y-61117372D01*
X89246399Y-60831567D01*
X89377940Y-60513998D01*
X89445000Y-60176867D01*
X89445000Y-59833133D01*
X91255000Y-59833133D01*
X91255000Y-60176867D01*
X91322060Y-60513998D01*
X91453601Y-60831567D01*
X91644570Y-61117372D01*
X91887628Y-61360430D01*
X92173433Y-61551399D01*
X92491002Y-61682940D01*
X92828133Y-61750000D01*
X93171867Y-61750000D01*
X93508998Y-61682940D01*
X93826567Y-61551399D01*
X94112372Y-61360430D01*
X94355430Y-61117372D01*
X94546399Y-60831567D01*
X94677940Y-60513998D01*
X94745000Y-60176867D01*
X94745000Y-59833133D01*
X94677940Y-59496002D01*
X94546399Y-59178433D01*
X94355430Y-58892628D01*
X94112372Y-58649570D01*
X93826567Y-58458601D01*
X93508998Y-58327060D01*
X93171867Y-58260000D01*
X92828133Y-58260000D01*
X92491002Y-58327060D01*
X92173433Y-58458601D01*
X91887628Y-58649570D01*
X91644570Y-58892628D01*
X91453601Y-59178433D01*
X91322060Y-59496002D01*
X91255000Y-59833133D01*
X89445000Y-59833133D01*
X89377940Y-59496002D01*
X89246399Y-59178433D01*
X89055430Y-58892628D01*
X88812372Y-58649570D01*
X88526567Y-58458601D01*
X88208998Y-58327060D01*
X87871867Y-58260000D01*
X87528133Y-58260000D01*
X87191002Y-58327060D01*
X86873433Y-58458601D01*
X86587628Y-58649570D01*
X86344570Y-58892628D01*
X86153601Y-59178433D01*
X86022060Y-59496002D01*
X85955000Y-59833133D01*
X84137460Y-59833133D01*
X84107440Y-59605985D01*
X83996789Y-59280546D01*
X83889489Y-59079804D01*
X83613839Y-58970766D01*
X82579605Y-60005000D01*
X82220395Y-60005000D01*
X81186161Y-58970766D01*
X80910511Y-59079804D01*
X80758635Y-59388166D01*
X80669835Y-59720233D01*
X80647524Y-60063244D01*
X72542000Y-60063244D01*
X72542000Y-57785000D01*
X73588541Y-57785000D01*
X73614317Y-58046706D01*
X73690653Y-58298354D01*
X73814618Y-58530275D01*
X73981445Y-58733555D01*
X74184725Y-58900382D01*
X74416646Y-59024347D01*
X74668294Y-59100683D01*
X74864421Y-59120000D01*
X74995579Y-59120000D01*
X75191706Y-59100683D01*
X75443354Y-59024347D01*
X75675275Y-58900382D01*
X75808361Y-58791161D01*
X81365766Y-58791161D01*
X82400000Y-59825395D01*
X83434234Y-58791161D01*
X83325196Y-58515511D01*
X83016834Y-58363635D01*
X82684767Y-58274835D01*
X82341756Y-58252524D01*
X82000985Y-58297560D01*
X81675546Y-58408211D01*
X81474804Y-58515511D01*
X81365766Y-58791161D01*
X75808361Y-58791161D01*
X75878555Y-58733555D01*
X76045382Y-58530275D01*
X76169347Y-58298354D01*
X76245683Y-58046706D01*
X76271459Y-57785000D01*
X76245683Y-57523294D01*
X76169347Y-57271646D01*
X76045382Y-57039725D01*
X75878555Y-56836445D01*
X75675275Y-56669618D01*
X75443354Y-56545653D01*
X75191706Y-56469317D01*
X74995579Y-56450000D01*
X74864421Y-56450000D01*
X74668294Y-56469317D01*
X74416646Y-56545653D01*
X74184725Y-56669618D01*
X73981445Y-56836445D01*
X73814618Y-57039725D01*
X73690653Y-57271646D01*
X73614317Y-57523294D01*
X73588541Y-57785000D01*
X72542000Y-57785000D01*
X72542000Y-55033133D01*
X80655000Y-55033133D01*
X80655000Y-55376867D01*
X80722060Y-55713998D01*
X80853601Y-56031567D01*
X81044570Y-56317372D01*
X81287628Y-56560430D01*
X81573433Y-56751399D01*
X81891002Y-56882940D01*
X82228133Y-56950000D01*
X82571867Y-56950000D01*
X82908998Y-56882940D01*
X83226567Y-56751399D01*
X83512372Y-56560430D01*
X83755430Y-56317372D01*
X83946399Y-56031567D01*
X84077940Y-55713998D01*
X84145000Y-55376867D01*
X84145000Y-55033133D01*
X85955000Y-55033133D01*
X85955000Y-55376867D01*
X86022060Y-55713998D01*
X86153601Y-56031567D01*
X86344570Y-56317372D01*
X86587628Y-56560430D01*
X86873433Y-56751399D01*
X87191002Y-56882940D01*
X87528133Y-56950000D01*
X87871867Y-56950000D01*
X88208998Y-56882940D01*
X88526567Y-56751399D01*
X88812372Y-56560430D01*
X89055430Y-56317372D01*
X89204683Y-56094000D01*
X91495317Y-56094000D01*
X91644570Y-56317372D01*
X91887628Y-56560430D01*
X92173433Y-56751399D01*
X92491002Y-56882940D01*
X92828133Y-56950000D01*
X93171867Y-56950000D01*
X93508998Y-56882940D01*
X93826567Y-56751399D01*
X94112372Y-56560430D01*
X94355430Y-56317372D01*
X94546399Y-56031567D01*
X94677940Y-55713998D01*
X94745000Y-55376867D01*
X94745000Y-55033133D01*
X94677940Y-54696002D01*
X94546399Y-54378433D01*
X94355430Y-54092628D01*
X94112372Y-53849570D01*
X93826567Y-53658601D01*
X93508998Y-53527060D01*
X93171867Y-53460000D01*
X92828133Y-53460000D01*
X92491002Y-53527060D01*
X92173433Y-53658601D01*
X91887628Y-53849570D01*
X91644570Y-54092628D01*
X91495317Y-54316000D01*
X89204683Y-54316000D01*
X89055430Y-54092628D01*
X88812372Y-53849570D01*
X88526567Y-53658601D01*
X88208998Y-53527060D01*
X87871867Y-53460000D01*
X87528133Y-53460000D01*
X87191002Y-53527060D01*
X86873433Y-53658601D01*
X86587628Y-53849570D01*
X86344570Y-54092628D01*
X86153601Y-54378433D01*
X86022060Y-54696002D01*
X85955000Y-55033133D01*
X84145000Y-55033133D01*
X84077940Y-54696002D01*
X83946399Y-54378433D01*
X83755430Y-54092628D01*
X83512372Y-53849570D01*
X83226567Y-53658601D01*
X82908998Y-53527060D01*
X82571867Y-53460000D01*
X82228133Y-53460000D01*
X81891002Y-53527060D01*
X81573433Y-53658601D01*
X81287628Y-53849570D01*
X81044570Y-54092628D01*
X80853601Y-54378433D01*
X80722060Y-54696002D01*
X80655000Y-55033133D01*
X72542000Y-55033133D01*
X72542000Y-52573514D01*
X73595000Y-52573514D01*
X73595000Y-52836486D01*
X73646304Y-53094405D01*
X73746939Y-53337359D01*
X73893038Y-53556013D01*
X74078987Y-53741962D01*
X74297641Y-53888061D01*
X74540595Y-53988696D01*
X74798514Y-54040000D01*
X75061486Y-54040000D01*
X75319405Y-53988696D01*
X75562359Y-53888061D01*
X75781013Y-53741962D01*
X75966962Y-53556013D01*
X76113061Y-53337359D01*
X76213696Y-53094405D01*
X76265000Y-52836486D01*
X76265000Y-52573514D01*
X76213696Y-52315595D01*
X76113061Y-52072641D01*
X75966962Y-51853987D01*
X75781013Y-51668038D01*
X75562359Y-51521939D01*
X75319405Y-51421304D01*
X75061486Y-51370000D01*
X74798514Y-51370000D01*
X74540595Y-51421304D01*
X74297641Y-51521939D01*
X74078987Y-51668038D01*
X73893038Y-51853987D01*
X73746939Y-52072641D01*
X73646304Y-52315595D01*
X73595000Y-52573514D01*
X72542000Y-52573514D01*
X72542000Y-49570000D01*
X80601928Y-49570000D01*
X80614188Y-49694482D01*
X80650498Y-49814180D01*
X80709463Y-49924494D01*
X80788815Y-50021185D01*
X80885506Y-50100537D01*
X80995820Y-50159502D01*
X81115518Y-50195812D01*
X81240000Y-50208072D01*
X81629250Y-50205000D01*
X81788000Y-50046250D01*
X81788000Y-49022000D01*
X80763750Y-49022000D01*
X80605000Y-49180750D01*
X80601928Y-49570000D01*
X72542000Y-49570000D01*
X72542000Y-47904000D01*
X80688887Y-47904000D01*
X80650498Y-47975820D01*
X80650498Y-47975820D01*
G37*
X80650498Y-47975820D02*
X80614188Y-48095518D01*
X80601928Y-48220000D01*
X80605000Y-48609250D01*
X80763750Y-48768000D01*
X81788000Y-48768000D01*
X81788000Y-48748000D01*
X82042000Y-48748000D01*
X82042000Y-48768000D01*
X82062000Y-48768000D01*
X82062000Y-49022000D01*
X82042000Y-49022000D01*
X82042000Y-50046250D01*
X82200750Y-50205000D01*
X82590000Y-50208072D01*
X82714482Y-50195812D01*
X82834180Y-50159502D01*
X82944494Y-50100537D01*
X83041185Y-50021185D01*
X83114074Y-49932369D01*
X83183682Y-49989495D01*
X83411259Y-50111138D01*
X83658195Y-50186045D01*
X83850649Y-50205000D01*
X83979351Y-50205000D01*
X84171805Y-50186045D01*
X84418741Y-50111138D01*
X84646318Y-49989495D01*
X84845792Y-49825792D01*
X84915000Y-49741461D01*
X84984208Y-49825792D01*
X85183682Y-49989495D01*
X85411259Y-50111138D01*
X85658195Y-50186045D01*
X85850649Y-50205000D01*
X85979351Y-50205000D01*
X86171805Y-50186045D01*
X86418741Y-50111138D01*
X86646318Y-49989495D01*
X86845792Y-49825792D01*
X86915000Y-49741461D01*
X86984208Y-49825792D01*
X87183682Y-49989495D01*
X87411259Y-50111138D01*
X87658195Y-50186045D01*
X87850649Y-50205000D01*
X87979351Y-50205000D01*
X88171805Y-50186045D01*
X88418741Y-50111138D01*
X88646318Y-49989495D01*
X88845792Y-49825792D01*
X88915000Y-49741461D01*
X88984208Y-49825792D01*
X89183682Y-49989495D01*
X89411259Y-50111138D01*
X89658195Y-50186045D01*
X89850649Y-50205000D01*
X89979351Y-50205000D01*
X90171805Y-50186045D01*
X90418741Y-50111138D01*
X90646318Y-49989495D01*
X90845792Y-49825792D01*
X90915000Y-49741461D01*
X90984208Y-49825792D01*
X91183682Y-49989495D01*
X91411259Y-50111138D01*
X91658195Y-50186045D01*
X91850649Y-50205000D01*
X91979351Y-50205000D01*
X92171805Y-50186045D01*
X92418741Y-50111138D01*
X92646318Y-49989495D01*
X92845792Y-49825792D01*
X93009495Y-49626318D01*
X93131138Y-49398741D01*
X93206045Y-49151805D01*
X93231338Y-48895000D01*
X93206045Y-48638195D01*
X93131138Y-48391259D01*
X93009495Y-48163682D01*
X92845792Y-47964208D01*
X92772428Y-47904000D01*
X98400000Y-47904000D01*
X98400001Y-68936000D01*
X72542000Y-68936000D01*
X72542000Y-63870000D01*
X72756928Y-63870000D01*
X72756928Y-65670000D01*
X72769188Y-65794482D01*
X72805498Y-65914180D01*
X72864463Y-66024494D01*
X72943815Y-66121185D01*
X73040506Y-66200537D01*
X73150820Y-66259502D01*
X73270518Y-66295812D01*
X73395000Y-66308072D01*
X75195000Y-66308072D01*
X75319482Y-66295812D01*
X75439180Y-66259502D01*
X75549494Y-66200537D01*
X75646185Y-66121185D01*
X75725537Y-66024494D01*
X75784502Y-65914180D01*
X75820812Y-65794482D01*
X75833072Y-65670000D01*
X75833072Y-64633133D01*
X80655000Y-64633133D01*
X80655000Y-64976867D01*
X80722060Y-65313998D01*
X80853601Y-65631567D01*
X81044570Y-65917372D01*
X81287628Y-66160430D01*
X81573433Y-66351399D01*
X81891002Y-66482940D01*
X82228133Y-66550000D01*
X82571867Y-66550000D01*
X82908998Y-66482940D01*
X83226567Y-66351399D01*
X83512372Y-66160430D01*
X83755430Y-65917372D01*
X83946399Y-65631567D01*
X84077940Y-65313998D01*
X84145000Y-64976867D01*
X84145000Y-64633133D01*
X85955000Y-64633133D01*
X85955000Y-64976867D01*
X86022060Y-65313998D01*
X86153601Y-65631567D01*
X86344570Y-65917372D01*
X86587628Y-66160430D01*
X86873433Y-66351399D01*
X87191002Y-66482940D01*
X87528133Y-66550000D01*
X87871867Y-66550000D01*
X88208998Y-66482940D01*
X88526567Y-66351399D01*
X88812372Y-66160430D01*
X89055430Y-65917372D01*
X89246399Y-65631567D01*
X89377940Y-65313998D01*
X89445000Y-64976867D01*
X89445000Y-64633133D01*
X91255000Y-64633133D01*
X91255000Y-64976867D01*
X91322060Y-65313998D01*
X91453601Y-65631567D01*
X91644570Y-65917372D01*
X91887628Y-66160430D01*
X92173433Y-66351399D01*
X92491002Y-66482940D01*
X92828133Y-66550000D01*
X93171867Y-66550000D01*
X93508998Y-66482940D01*
X93826567Y-66351399D01*
X94112372Y-66160430D01*
X94355430Y-65917372D01*
X94546399Y-65631567D01*
X94677940Y-65313998D01*
X94745000Y-64976867D01*
X94745000Y-64633133D01*
X94677940Y-64296002D01*
X94546399Y-63978433D01*
X94355430Y-63692628D01*
X94112372Y-63449570D01*
X93826567Y-63258601D01*
X93508998Y-63127060D01*
X93171867Y-63060000D01*
X92828133Y-63060000D01*
X92491002Y-63127060D01*
X92173433Y-63258601D01*
X91887628Y-63449570D01*
X91644570Y-63692628D01*
X91453601Y-63978433D01*
X91322060Y-64296002D01*
X91255000Y-64633133D01*
X89445000Y-64633133D01*
X89377940Y-64296002D01*
X89246399Y-63978433D01*
X89055430Y-63692628D01*
X88812372Y-63449570D01*
X88526567Y-63258601D01*
X88208998Y-63127060D01*
X87871867Y-63060000D01*
X87528133Y-63060000D01*
X87191002Y-63127060D01*
X86873433Y-63258601D01*
X86587628Y-63449570D01*
X86344570Y-63692628D01*
X86153601Y-63978433D01*
X86022060Y-64296002D01*
X85955000Y-64633133D01*
X84145000Y-64633133D01*
X84077940Y-64296002D01*
X83946399Y-63978433D01*
X83755430Y-63692628D01*
X83512372Y-63449570D01*
X83226567Y-63258601D01*
X82908998Y-63127060D01*
X82571867Y-63060000D01*
X82228133Y-63060000D01*
X81891002Y-63127060D01*
X81573433Y-63258601D01*
X81287628Y-63449570D01*
X81044570Y-63692628D01*
X80853601Y-63978433D01*
X80722060Y-64296002D01*
X80655000Y-64633133D01*
X75833072Y-64633133D01*
X75833072Y-63870000D01*
X75820812Y-63745518D01*
X75784502Y-63625820D01*
X75725537Y-63515506D01*
X75646185Y-63418815D01*
X75549494Y-63339463D01*
X75439180Y-63280498D01*
X75420873Y-63274944D01*
X75487312Y-63208505D01*
X75655299Y-62957095D01*
X75771011Y-62677743D01*
X75830000Y-62381184D01*
X75830000Y-62078816D01*
X75771011Y-61782257D01*
X75655299Y-61502905D01*
X75487312Y-61251495D01*
X75454656Y-61218839D01*
X81365766Y-61218839D01*
X81474804Y-61494489D01*
X81783166Y-61646365D01*
X82115233Y-61735165D01*
X82458244Y-61757476D01*
X82799015Y-61712440D01*
X83124454Y-61601789D01*
X83325196Y-61494489D01*
X83434234Y-61218839D01*
X82400000Y-60184605D01*
X81365766Y-61218839D01*
X75454656Y-61218839D01*
X75273505Y-61037688D01*
X75022095Y-60869701D01*
X74742743Y-60753989D01*
X74446184Y-60695000D01*
X74143816Y-60695000D01*
X73847257Y-60753989D01*
X73567905Y-60869701D01*
X73316495Y-61037688D01*
X73102688Y-61251495D01*
X72934701Y-61502905D01*
X72818989Y-61782257D01*
X72760000Y-62078816D01*
X72760000Y-62381184D01*
X72818989Y-62677743D01*
X72934701Y-62957095D01*
X73102688Y-63208505D01*
X73169127Y-63274944D01*
X73150820Y-63280498D01*
X73040506Y-63339463D01*
X72943815Y-63418815D01*
X72864463Y-63515506D01*
X72805498Y-63625820D01*
X72769188Y-63745518D01*
X72756928Y-63870000D01*
X72542000Y-63870000D01*
X72542000Y-60063244D01*
X80647524Y-60063244D01*
X80692560Y-60404015D01*
X80803211Y-60729454D01*
X80910511Y-60930196D01*
X81186161Y-61039234D01*
X82220395Y-60005000D01*
X82579605Y-60005000D01*
X83613839Y-61039234D01*
X83889489Y-60930196D01*
X84041365Y-60621834D01*
X84130165Y-60289767D01*
X84152476Y-59946756D01*
X84137460Y-59833133D01*
X85955000Y-59833133D01*
X85955000Y-60176867D01*
X86022060Y-60513998D01*
X86153601Y-60831567D01*
X86344570Y-61117372D01*
X86587628Y-61360430D01*
X86873433Y-61551399D01*
X87191002Y-61682940D01*
X87528133Y-61750000D01*
X87871867Y-61750000D01*
X88208998Y-61682940D01*
X88526567Y-61551399D01*
X88812372Y-61360430D01*
X89055430Y-61117372D01*
X89246399Y-60831567D01*
X89377940Y-60513998D01*
X89445000Y-60176867D01*
X89445000Y-59833133D01*
X91255000Y-59833133D01*
X91255000Y-60176867D01*
X91322060Y-60513998D01*
X91453601Y-60831567D01*
X91644570Y-61117372D01*
X91887628Y-61360430D01*
X92173433Y-61551399D01*
X92491002Y-61682940D01*
X92828133Y-61750000D01*
X93171867Y-61750000D01*
X93508998Y-61682940D01*
X93826567Y-61551399D01*
X94112372Y-61360430D01*
X94355430Y-61117372D01*
X94546399Y-60831567D01*
X94677940Y-60513998D01*
X94745000Y-60176867D01*
X94745000Y-59833133D01*
X94677940Y-59496002D01*
X94546399Y-59178433D01*
X94355430Y-58892628D01*
X94112372Y-58649570D01*
X93826567Y-58458601D01*
X93508998Y-58327060D01*
X93171867Y-58260000D01*
X92828133Y-58260000D01*
X92491002Y-58327060D01*
X92173433Y-58458601D01*
X91887628Y-58649570D01*
X91644570Y-58892628D01*
X91453601Y-59178433D01*
X91322060Y-59496002D01*
X91255000Y-59833133D01*
X89445000Y-59833133D01*
X89377940Y-59496002D01*
X89246399Y-59178433D01*
X89055430Y-58892628D01*
X88812372Y-58649570D01*
X88526567Y-58458601D01*
X88208998Y-58327060D01*
X87871867Y-58260000D01*
X87528133Y-58260000D01*
X87191002Y-58327060D01*
X86873433Y-58458601D01*
X86587628Y-58649570D01*
X86344570Y-58892628D01*
X86153601Y-59178433D01*
X86022060Y-59496002D01*
X85955000Y-59833133D01*
X84137460Y-59833133D01*
X84107440Y-59605985D01*
X83996789Y-59280546D01*
X83889489Y-59079804D01*
X83613839Y-58970766D01*
X82579605Y-60005000D01*
X82220395Y-60005000D01*
X81186161Y-58970766D01*
X80910511Y-59079804D01*
X80758635Y-59388166D01*
X80669835Y-59720233D01*
X80647524Y-60063244D01*
X72542000Y-60063244D01*
X72542000Y-57785000D01*
X73588541Y-57785000D01*
X73614317Y-58046706D01*
X73690653Y-58298354D01*
X73814618Y-58530275D01*
X73981445Y-58733555D01*
X74184725Y-58900382D01*
X74416646Y-59024347D01*
X74668294Y-59100683D01*
X74864421Y-59120000D01*
X74995579Y-59120000D01*
X75191706Y-59100683D01*
X75443354Y-59024347D01*
X75675275Y-58900382D01*
X75808361Y-58791161D01*
X81365766Y-58791161D01*
X82400000Y-59825395D01*
X83434234Y-58791161D01*
X83325196Y-58515511D01*
X83016834Y-58363635D01*
X82684767Y-58274835D01*
X82341756Y-58252524D01*
X82000985Y-58297560D01*
X81675546Y-58408211D01*
X81474804Y-58515511D01*
X81365766Y-58791161D01*
X75808361Y-58791161D01*
X75878555Y-58733555D01*
X76045382Y-58530275D01*
X76169347Y-58298354D01*
X76245683Y-58046706D01*
X76271459Y-57785000D01*
X76245683Y-57523294D01*
X76169347Y-57271646D01*
X76045382Y-57039725D01*
X75878555Y-56836445D01*
X75675275Y-56669618D01*
X75443354Y-56545653D01*
X75191706Y-56469317D01*
X74995579Y-56450000D01*
X74864421Y-56450000D01*
X74668294Y-56469317D01*
X74416646Y-56545653D01*
X74184725Y-56669618D01*
X73981445Y-56836445D01*
X73814618Y-57039725D01*
X73690653Y-57271646D01*
X73614317Y-57523294D01*
X73588541Y-57785000D01*
X72542000Y-57785000D01*
X72542000Y-55033133D01*
X80655000Y-55033133D01*
X80655000Y-55376867D01*
X80722060Y-55713998D01*
X80853601Y-56031567D01*
X81044570Y-56317372D01*
X81287628Y-56560430D01*
X81573433Y-56751399D01*
X81891002Y-56882940D01*
X82228133Y-56950000D01*
X82571867Y-56950000D01*
X82908998Y-56882940D01*
X83226567Y-56751399D01*
X83512372Y-56560430D01*
X83755430Y-56317372D01*
X83946399Y-56031567D01*
X84077940Y-55713998D01*
X84145000Y-55376867D01*
X84145000Y-55033133D01*
X85955000Y-55033133D01*
X85955000Y-55376867D01*
X86022060Y-55713998D01*
X86153601Y-56031567D01*
X86344570Y-56317372D01*
X86587628Y-56560430D01*
X86873433Y-56751399D01*
X87191002Y-56882940D01*
X87528133Y-56950000D01*
X87871867Y-56950000D01*
X88208998Y-56882940D01*
X88526567Y-56751399D01*
X88812372Y-56560430D01*
X89055430Y-56317372D01*
X89204683Y-56094000D01*
X91495317Y-56094000D01*
X91644570Y-56317372D01*
X91887628Y-56560430D01*
X92173433Y-56751399D01*
X92491002Y-56882940D01*
X92828133Y-56950000D01*
X93171867Y-56950000D01*
X93508998Y-56882940D01*
X93826567Y-56751399D01*
X94112372Y-56560430D01*
X94355430Y-56317372D01*
X94546399Y-56031567D01*
X94677940Y-55713998D01*
X94745000Y-55376867D01*
X94745000Y-55033133D01*
X94677940Y-54696002D01*
X94546399Y-54378433D01*
X94355430Y-54092628D01*
X94112372Y-53849570D01*
X93826567Y-53658601D01*
X93508998Y-53527060D01*
X93171867Y-53460000D01*
X92828133Y-53460000D01*
X92491002Y-53527060D01*
X92173433Y-53658601D01*
X91887628Y-53849570D01*
X91644570Y-54092628D01*
X91495317Y-54316000D01*
X89204683Y-54316000D01*
X89055430Y-54092628D01*
X88812372Y-53849570D01*
X88526567Y-53658601D01*
X88208998Y-53527060D01*
X87871867Y-53460000D01*
X87528133Y-53460000D01*
X87191002Y-53527060D01*
X86873433Y-53658601D01*
X86587628Y-53849570D01*
X86344570Y-54092628D01*
X86153601Y-54378433D01*
X86022060Y-54696002D01*
X85955000Y-55033133D01*
X84145000Y-55033133D01*
X84077940Y-54696002D01*
X83946399Y-54378433D01*
X83755430Y-54092628D01*
X83512372Y-53849570D01*
X83226567Y-53658601D01*
X82908998Y-53527060D01*
X82571867Y-53460000D01*
X82228133Y-53460000D01*
X81891002Y-53527060D01*
X81573433Y-53658601D01*
X81287628Y-53849570D01*
X81044570Y-54092628D01*
X80853601Y-54378433D01*
X80722060Y-54696002D01*
X80655000Y-55033133D01*
X72542000Y-55033133D01*
X72542000Y-52573514D01*
X73595000Y-52573514D01*
X73595000Y-52836486D01*
X73646304Y-53094405D01*
X73746939Y-53337359D01*
X73893038Y-53556013D01*
X74078987Y-53741962D01*
X74297641Y-53888061D01*
X74540595Y-53988696D01*
X74798514Y-54040000D01*
X75061486Y-54040000D01*
X75319405Y-53988696D01*
X75562359Y-53888061D01*
X75781013Y-53741962D01*
X75966962Y-53556013D01*
X76113061Y-53337359D01*
X76213696Y-53094405D01*
X76265000Y-52836486D01*
X76265000Y-52573514D01*
X76213696Y-52315595D01*
X76113061Y-52072641D01*
X75966962Y-51853987D01*
X75781013Y-51668038D01*
X75562359Y-51521939D01*
X75319405Y-51421304D01*
X75061486Y-51370000D01*
X74798514Y-51370000D01*
X74540595Y-51421304D01*
X74297641Y-51521939D01*
X74078987Y-51668038D01*
X73893038Y-51853987D01*
X73746939Y-52072641D01*
X73646304Y-52315595D01*
X73595000Y-52573514D01*
X72542000Y-52573514D01*
X72542000Y-49570000D01*
X80601928Y-49570000D01*
X80614188Y-49694482D01*
X80650498Y-49814180D01*
X80709463Y-49924494D01*
X80788815Y-50021185D01*
X80885506Y-50100537D01*
X80995820Y-50159502D01*
X81115518Y-50195812D01*
X81240000Y-50208072D01*
X81629250Y-50205000D01*
X81788000Y-50046250D01*
X81788000Y-49022000D01*
X80763750Y-49022000D01*
X80605000Y-49180750D01*
X80601928Y-49570000D01*
X72542000Y-49570000D01*
X72542000Y-47904000D01*
X80688887Y-47904000D01*
X80650498Y-47975820D01*
M02*
