G04 #@! TF.GenerationSoftware,KiCad,Pcbnew,(5.1.2-1)-1*
G04 #@! TF.CreationDate,2019-05-17T13:10:03-07:00*
G04 #@! TF.ProjectId,ButtonBoard,42757474-6f6e-4426-9f61-72642e6b6963,rev?*
G04 #@! TF.SameCoordinates,Original*
G04 #@! TF.FileFunction,Copper,L2,Bot*
G04 #@! TF.FilePolarity,Positive*
%FSLAX46Y46*%
G04 Gerber Fmt 4.6, Leading zero omitted, Abs format (unit mm)*
G04 Created by KiCad (PCBNEW (5.1.2-1)-1) date 2019-05-17 13:10:03*
%MOMM*%
%LPD*%
G04 APERTURE LIST*
%ADD10R,1.800000X1.800000*%
%ADD11C,1.800000*%
%ADD12O,1.350000X1.350000*%
%ADD13R,1.350000X1.350000*%
%ADD14C,2.220000*%
%ADD15O,1.400000X1.400000*%
%ADD16C,1.400000*%
%ADD17C,0.508000*%
%ADD18C,0.254000*%
G04 APERTURE END LIST*
D10*
X74168000Y-48895000D03*
D11*
X76708000Y-48895000D03*
D12*
X97376000Y-48895000D03*
X95376000Y-48895000D03*
X93376000Y-48895000D03*
X91376000Y-48895000D03*
X89376000Y-48895000D03*
D13*
X87376000Y-48895000D03*
D14*
X82400000Y-55205000D03*
X82400000Y-60005000D03*
X82400000Y-64805000D03*
X87700000Y-55205000D03*
X87700000Y-60005000D03*
X87700000Y-64805000D03*
X93000000Y-55205000D03*
X93000000Y-60005000D03*
X93000000Y-64805000D03*
D15*
X79248000Y-48895000D03*
D16*
X84328000Y-48895000D03*
D17*
X93000000Y-55205000D02*
X87700000Y-55205000D01*
D18*
G36*
X83291038Y-48043987D02*
G01*
X83144939Y-48262641D01*
X83044304Y-48505595D01*
X82993000Y-48763514D01*
X82993000Y-49026486D01*
X83044304Y-49284405D01*
X83144939Y-49527359D01*
X83291038Y-49746013D01*
X83476987Y-49931962D01*
X83695641Y-50078061D01*
X83938595Y-50178696D01*
X84196514Y-50230000D01*
X84459486Y-50230000D01*
X84717405Y-50178696D01*
X84960359Y-50078061D01*
X85179013Y-49931962D01*
X85364962Y-49746013D01*
X85482569Y-49570000D01*
X86062928Y-49570000D01*
X86075188Y-49694482D01*
X86111498Y-49814180D01*
X86170463Y-49924494D01*
X86249815Y-50021185D01*
X86346506Y-50100537D01*
X86456820Y-50159502D01*
X86576518Y-50195812D01*
X86701000Y-50208072D01*
X87090250Y-50205000D01*
X87249000Y-50046250D01*
X87249000Y-49022000D01*
X86224750Y-49022000D01*
X86066000Y-49180750D01*
X86062928Y-49570000D01*
X85482569Y-49570000D01*
X85511061Y-49527359D01*
X85611696Y-49284405D01*
X85663000Y-49026486D01*
X85663000Y-48763514D01*
X85611696Y-48505595D01*
X85511061Y-48262641D01*
X85364962Y-48043987D01*
X85224975Y-47904000D01*
X86149887Y-47904000D01*
X86111498Y-47975820D01*
X86075188Y-48095518D01*
X86062928Y-48220000D01*
X86066000Y-48609250D01*
X86224750Y-48768000D01*
X87249000Y-48768000D01*
X87249000Y-48748000D01*
X87503000Y-48748000D01*
X87503000Y-48768000D01*
X87523000Y-48768000D01*
X87523000Y-49022000D01*
X87503000Y-49022000D01*
X87503000Y-50046250D01*
X87661750Y-50205000D01*
X88051000Y-50208072D01*
X88175482Y-50195812D01*
X88295180Y-50159502D01*
X88405494Y-50100537D01*
X88502185Y-50021185D01*
X88575074Y-49932369D01*
X88644682Y-49989495D01*
X88872259Y-50111138D01*
X89119195Y-50186045D01*
X89311649Y-50205000D01*
X89440351Y-50205000D01*
X89632805Y-50186045D01*
X89879741Y-50111138D01*
X90107318Y-49989495D01*
X90306792Y-49825792D01*
X90376000Y-49741461D01*
X90445208Y-49825792D01*
X90644682Y-49989495D01*
X90872259Y-50111138D01*
X91119195Y-50186045D01*
X91311649Y-50205000D01*
X91440351Y-50205000D01*
X91632805Y-50186045D01*
X91879741Y-50111138D01*
X92107318Y-49989495D01*
X92306792Y-49825792D01*
X92376000Y-49741461D01*
X92445208Y-49825792D01*
X92644682Y-49989495D01*
X92872259Y-50111138D01*
X93119195Y-50186045D01*
X93311649Y-50205000D01*
X93440351Y-50205000D01*
X93632805Y-50186045D01*
X93879741Y-50111138D01*
X94107318Y-49989495D01*
X94306792Y-49825792D01*
X94376000Y-49741461D01*
X94445208Y-49825792D01*
X94644682Y-49989495D01*
X94872259Y-50111138D01*
X95119195Y-50186045D01*
X95311649Y-50205000D01*
X95440351Y-50205000D01*
X95632805Y-50186045D01*
X95879741Y-50111138D01*
X96107318Y-49989495D01*
X96306792Y-49825792D01*
X96376000Y-49741461D01*
X96445208Y-49825792D01*
X96644682Y-49989495D01*
X96872259Y-50111138D01*
X97119195Y-50186045D01*
X97311649Y-50205000D01*
X97440351Y-50205000D01*
X97632805Y-50186045D01*
X97879741Y-50111138D01*
X98107318Y-49989495D01*
X98306792Y-49825792D01*
X98400000Y-49712217D01*
X98400001Y-68936000D01*
X72923000Y-68936000D01*
X72923000Y-64633133D01*
X80655000Y-64633133D01*
X80655000Y-64976867D01*
X80722060Y-65313998D01*
X80853601Y-65631567D01*
X81044570Y-65917372D01*
X81287628Y-66160430D01*
X81573433Y-66351399D01*
X81891002Y-66482940D01*
X82228133Y-66550000D01*
X82571867Y-66550000D01*
X82908998Y-66482940D01*
X83226567Y-66351399D01*
X83512372Y-66160430D01*
X83755430Y-65917372D01*
X83946399Y-65631567D01*
X84077940Y-65313998D01*
X84145000Y-64976867D01*
X84145000Y-64633133D01*
X85955000Y-64633133D01*
X85955000Y-64976867D01*
X86022060Y-65313998D01*
X86153601Y-65631567D01*
X86344570Y-65917372D01*
X86587628Y-66160430D01*
X86873433Y-66351399D01*
X87191002Y-66482940D01*
X87528133Y-66550000D01*
X87871867Y-66550000D01*
X88208998Y-66482940D01*
X88526567Y-66351399D01*
X88812372Y-66160430D01*
X89055430Y-65917372D01*
X89246399Y-65631567D01*
X89377940Y-65313998D01*
X89445000Y-64976867D01*
X89445000Y-64633133D01*
X91255000Y-64633133D01*
X91255000Y-64976867D01*
X91322060Y-65313998D01*
X91453601Y-65631567D01*
X91644570Y-65917372D01*
X91887628Y-66160430D01*
X92173433Y-66351399D01*
X92491002Y-66482940D01*
X92828133Y-66550000D01*
X93171867Y-66550000D01*
X93508998Y-66482940D01*
X93826567Y-66351399D01*
X94112372Y-66160430D01*
X94355430Y-65917372D01*
X94546399Y-65631567D01*
X94677940Y-65313998D01*
X94745000Y-64976867D01*
X94745000Y-64633133D01*
X94677940Y-64296002D01*
X94546399Y-63978433D01*
X94355430Y-63692628D01*
X94112372Y-63449570D01*
X93826567Y-63258601D01*
X93508998Y-63127060D01*
X93171867Y-63060000D01*
X92828133Y-63060000D01*
X92491002Y-63127060D01*
X92173433Y-63258601D01*
X91887628Y-63449570D01*
X91644570Y-63692628D01*
X91453601Y-63978433D01*
X91322060Y-64296002D01*
X91255000Y-64633133D01*
X89445000Y-64633133D01*
X89377940Y-64296002D01*
X89246399Y-63978433D01*
X89055430Y-63692628D01*
X88812372Y-63449570D01*
X88526567Y-63258601D01*
X88208998Y-63127060D01*
X87871867Y-63060000D01*
X87528133Y-63060000D01*
X87191002Y-63127060D01*
X86873433Y-63258601D01*
X86587628Y-63449570D01*
X86344570Y-63692628D01*
X86153601Y-63978433D01*
X86022060Y-64296002D01*
X85955000Y-64633133D01*
X84145000Y-64633133D01*
X84077940Y-64296002D01*
X83946399Y-63978433D01*
X83755430Y-63692628D01*
X83512372Y-63449570D01*
X83226567Y-63258601D01*
X82908998Y-63127060D01*
X82571867Y-63060000D01*
X82228133Y-63060000D01*
X81891002Y-63127060D01*
X81573433Y-63258601D01*
X81287628Y-63449570D01*
X81044570Y-63692628D01*
X80853601Y-63978433D01*
X80722060Y-64296002D01*
X80655000Y-64633133D01*
X72923000Y-64633133D01*
X72923000Y-61218839D01*
X81365766Y-61218839D01*
X81474804Y-61494489D01*
X81783166Y-61646365D01*
X82115233Y-61735165D01*
X82458244Y-61757476D01*
X82799015Y-61712440D01*
X83124454Y-61601789D01*
X83325196Y-61494489D01*
X83434234Y-61218839D01*
X82400000Y-60184605D01*
X81365766Y-61218839D01*
X72923000Y-61218839D01*
X72923000Y-60063244D01*
X80647524Y-60063244D01*
X80692560Y-60404015D01*
X80803211Y-60729454D01*
X80910511Y-60930196D01*
X81186161Y-61039234D01*
X82220395Y-60005000D01*
X82579605Y-60005000D01*
X83613839Y-61039234D01*
X83889489Y-60930196D01*
X84041365Y-60621834D01*
X84130165Y-60289767D01*
X84152476Y-59946756D01*
X84137460Y-59833133D01*
X85955000Y-59833133D01*
X85955000Y-60176867D01*
X86022060Y-60513998D01*
X86153601Y-60831567D01*
X86344570Y-61117372D01*
X86587628Y-61360430D01*
X86873433Y-61551399D01*
X87191002Y-61682940D01*
X87528133Y-61750000D01*
X87871867Y-61750000D01*
X88208998Y-61682940D01*
X88526567Y-61551399D01*
X88812372Y-61360430D01*
X89055430Y-61117372D01*
X89246399Y-60831567D01*
X89377940Y-60513998D01*
X89445000Y-60176867D01*
X89445000Y-59833133D01*
X91255000Y-59833133D01*
X91255000Y-60176867D01*
X91322060Y-60513998D01*
X91453601Y-60831567D01*
X91644570Y-61117372D01*
X91887628Y-61360430D01*
X92173433Y-61551399D01*
X92491002Y-61682940D01*
X92828133Y-61750000D01*
X93171867Y-61750000D01*
X93508998Y-61682940D01*
X93826567Y-61551399D01*
X94112372Y-61360430D01*
X94355430Y-61117372D01*
X94546399Y-60831567D01*
X94677940Y-60513998D01*
X94745000Y-60176867D01*
X94745000Y-59833133D01*
X94677940Y-59496002D01*
X94546399Y-59178433D01*
X94355430Y-58892628D01*
X94112372Y-58649570D01*
X93826567Y-58458601D01*
X93508998Y-58327060D01*
X93171867Y-58260000D01*
X92828133Y-58260000D01*
X92491002Y-58327060D01*
X92173433Y-58458601D01*
X91887628Y-58649570D01*
X91644570Y-58892628D01*
X91453601Y-59178433D01*
X91322060Y-59496002D01*
X91255000Y-59833133D01*
X89445000Y-59833133D01*
X89377940Y-59496002D01*
X89246399Y-59178433D01*
X89055430Y-58892628D01*
X88812372Y-58649570D01*
X88526567Y-58458601D01*
X88208998Y-58327060D01*
X87871867Y-58260000D01*
X87528133Y-58260000D01*
X87191002Y-58327060D01*
X86873433Y-58458601D01*
X86587628Y-58649570D01*
X86344570Y-58892628D01*
X86153601Y-59178433D01*
X86022060Y-59496002D01*
X85955000Y-59833133D01*
X84137460Y-59833133D01*
X84107440Y-59605985D01*
X83996789Y-59280546D01*
X83889489Y-59079804D01*
X83613839Y-58970766D01*
X82579605Y-60005000D01*
X82220395Y-60005000D01*
X81186161Y-58970766D01*
X80910511Y-59079804D01*
X80758635Y-59388166D01*
X80669835Y-59720233D01*
X80647524Y-60063244D01*
X72923000Y-60063244D01*
X72923000Y-58791161D01*
X81365766Y-58791161D01*
X82400000Y-59825395D01*
X83434234Y-58791161D01*
X83325196Y-58515511D01*
X83016834Y-58363635D01*
X82684767Y-58274835D01*
X82341756Y-58252524D01*
X82000985Y-58297560D01*
X81675546Y-58408211D01*
X81474804Y-58515511D01*
X81365766Y-58791161D01*
X72923000Y-58791161D01*
X72923000Y-55033133D01*
X80655000Y-55033133D01*
X80655000Y-55376867D01*
X80722060Y-55713998D01*
X80853601Y-56031567D01*
X81044570Y-56317372D01*
X81287628Y-56560430D01*
X81573433Y-56751399D01*
X81891002Y-56882940D01*
X82228133Y-56950000D01*
X82571867Y-56950000D01*
X82908998Y-56882940D01*
X83226567Y-56751399D01*
X83512372Y-56560430D01*
X83755430Y-56317372D01*
X83946399Y-56031567D01*
X84077940Y-55713998D01*
X84145000Y-55376867D01*
X84145000Y-55033133D01*
X85955000Y-55033133D01*
X85955000Y-55376867D01*
X86022060Y-55713998D01*
X86153601Y-56031567D01*
X86344570Y-56317372D01*
X86587628Y-56560430D01*
X86873433Y-56751399D01*
X87191002Y-56882940D01*
X87528133Y-56950000D01*
X87871867Y-56950000D01*
X88208998Y-56882940D01*
X88526567Y-56751399D01*
X88812372Y-56560430D01*
X89055430Y-56317372D01*
X89204683Y-56094000D01*
X91495317Y-56094000D01*
X91644570Y-56317372D01*
X91887628Y-56560430D01*
X92173433Y-56751399D01*
X92491002Y-56882940D01*
X92828133Y-56950000D01*
X93171867Y-56950000D01*
X93508998Y-56882940D01*
X93826567Y-56751399D01*
X94112372Y-56560430D01*
X94355430Y-56317372D01*
X94546399Y-56031567D01*
X94677940Y-55713998D01*
X94745000Y-55376867D01*
X94745000Y-55033133D01*
X94677940Y-54696002D01*
X94546399Y-54378433D01*
X94355430Y-54092628D01*
X94112372Y-53849570D01*
X93826567Y-53658601D01*
X93508998Y-53527060D01*
X93171867Y-53460000D01*
X92828133Y-53460000D01*
X92491002Y-53527060D01*
X92173433Y-53658601D01*
X91887628Y-53849570D01*
X91644570Y-54092628D01*
X91495317Y-54316000D01*
X89204683Y-54316000D01*
X89055430Y-54092628D01*
X88812372Y-53849570D01*
X88526567Y-53658601D01*
X88208998Y-53527060D01*
X87871867Y-53460000D01*
X87528133Y-53460000D01*
X87191002Y-53527060D01*
X86873433Y-53658601D01*
X86587628Y-53849570D01*
X86344570Y-54092628D01*
X86153601Y-54378433D01*
X86022060Y-54696002D01*
X85955000Y-55033133D01*
X84145000Y-55033133D01*
X84077940Y-54696002D01*
X83946399Y-54378433D01*
X83755430Y-54092628D01*
X83512372Y-53849570D01*
X83226567Y-53658601D01*
X82908998Y-53527060D01*
X82571867Y-53460000D01*
X82228133Y-53460000D01*
X81891002Y-53527060D01*
X81573433Y-53658601D01*
X81287628Y-53849570D01*
X81044570Y-54092628D01*
X80853601Y-54378433D01*
X80722060Y-54696002D01*
X80655000Y-55033133D01*
X72923000Y-55033133D01*
X72923000Y-50330612D01*
X73023820Y-50384502D01*
X73143518Y-50420812D01*
X73268000Y-50433072D01*
X75068000Y-50433072D01*
X75192482Y-50420812D01*
X75312180Y-50384502D01*
X75422494Y-50325537D01*
X75519185Y-50246185D01*
X75598537Y-50149494D01*
X75657502Y-50039180D01*
X75663056Y-50020873D01*
X75729495Y-50087312D01*
X75980905Y-50255299D01*
X76260257Y-50371011D01*
X76556816Y-50430000D01*
X76859184Y-50430000D01*
X77155743Y-50371011D01*
X77435095Y-50255299D01*
X77686505Y-50087312D01*
X77900312Y-49873505D01*
X78068299Y-49622095D01*
X78092138Y-49564543D01*
X78132618Y-49640275D01*
X78299445Y-49843555D01*
X78502725Y-50010382D01*
X78734646Y-50134347D01*
X78986294Y-50210683D01*
X79182421Y-50230000D01*
X79313579Y-50230000D01*
X79509706Y-50210683D01*
X79761354Y-50134347D01*
X79993275Y-50010382D01*
X80196555Y-49843555D01*
X80363382Y-49640275D01*
X80487347Y-49408354D01*
X80563683Y-49156706D01*
X80589459Y-48895000D01*
X80563683Y-48633294D01*
X80487347Y-48381646D01*
X80363382Y-48149725D01*
X80196555Y-47946445D01*
X80144835Y-47904000D01*
X83431025Y-47904000D01*
X83291038Y-48043987D01*
X83291038Y-48043987D01*
G37*
X83291038Y-48043987D02*
X83144939Y-48262641D01*
X83044304Y-48505595D01*
X82993000Y-48763514D01*
X82993000Y-49026486D01*
X83044304Y-49284405D01*
X83144939Y-49527359D01*
X83291038Y-49746013D01*
X83476987Y-49931962D01*
X83695641Y-50078061D01*
X83938595Y-50178696D01*
X84196514Y-50230000D01*
X84459486Y-50230000D01*
X84717405Y-50178696D01*
X84960359Y-50078061D01*
X85179013Y-49931962D01*
X85364962Y-49746013D01*
X85482569Y-49570000D01*
X86062928Y-49570000D01*
X86075188Y-49694482D01*
X86111498Y-49814180D01*
X86170463Y-49924494D01*
X86249815Y-50021185D01*
X86346506Y-50100537D01*
X86456820Y-50159502D01*
X86576518Y-50195812D01*
X86701000Y-50208072D01*
X87090250Y-50205000D01*
X87249000Y-50046250D01*
X87249000Y-49022000D01*
X86224750Y-49022000D01*
X86066000Y-49180750D01*
X86062928Y-49570000D01*
X85482569Y-49570000D01*
X85511061Y-49527359D01*
X85611696Y-49284405D01*
X85663000Y-49026486D01*
X85663000Y-48763514D01*
X85611696Y-48505595D01*
X85511061Y-48262641D01*
X85364962Y-48043987D01*
X85224975Y-47904000D01*
X86149887Y-47904000D01*
X86111498Y-47975820D01*
X86075188Y-48095518D01*
X86062928Y-48220000D01*
X86066000Y-48609250D01*
X86224750Y-48768000D01*
X87249000Y-48768000D01*
X87249000Y-48748000D01*
X87503000Y-48748000D01*
X87503000Y-48768000D01*
X87523000Y-48768000D01*
X87523000Y-49022000D01*
X87503000Y-49022000D01*
X87503000Y-50046250D01*
X87661750Y-50205000D01*
X88051000Y-50208072D01*
X88175482Y-50195812D01*
X88295180Y-50159502D01*
X88405494Y-50100537D01*
X88502185Y-50021185D01*
X88575074Y-49932369D01*
X88644682Y-49989495D01*
X88872259Y-50111138D01*
X89119195Y-50186045D01*
X89311649Y-50205000D01*
X89440351Y-50205000D01*
X89632805Y-50186045D01*
X89879741Y-50111138D01*
X90107318Y-49989495D01*
X90306792Y-49825792D01*
X90376000Y-49741461D01*
X90445208Y-49825792D01*
X90644682Y-49989495D01*
X90872259Y-50111138D01*
X91119195Y-50186045D01*
X91311649Y-50205000D01*
X91440351Y-50205000D01*
X91632805Y-50186045D01*
X91879741Y-50111138D01*
X92107318Y-49989495D01*
X92306792Y-49825792D01*
X92376000Y-49741461D01*
X92445208Y-49825792D01*
X92644682Y-49989495D01*
X92872259Y-50111138D01*
X93119195Y-50186045D01*
X93311649Y-50205000D01*
X93440351Y-50205000D01*
X93632805Y-50186045D01*
X93879741Y-50111138D01*
X94107318Y-49989495D01*
X94306792Y-49825792D01*
X94376000Y-49741461D01*
X94445208Y-49825792D01*
X94644682Y-49989495D01*
X94872259Y-50111138D01*
X95119195Y-50186045D01*
X95311649Y-50205000D01*
X95440351Y-50205000D01*
X95632805Y-50186045D01*
X95879741Y-50111138D01*
X96107318Y-49989495D01*
X96306792Y-49825792D01*
X96376000Y-49741461D01*
X96445208Y-49825792D01*
X96644682Y-49989495D01*
X96872259Y-50111138D01*
X97119195Y-50186045D01*
X97311649Y-50205000D01*
X97440351Y-50205000D01*
X97632805Y-50186045D01*
X97879741Y-50111138D01*
X98107318Y-49989495D01*
X98306792Y-49825792D01*
X98400000Y-49712217D01*
X98400001Y-68936000D01*
X72923000Y-68936000D01*
X72923000Y-64633133D01*
X80655000Y-64633133D01*
X80655000Y-64976867D01*
X80722060Y-65313998D01*
X80853601Y-65631567D01*
X81044570Y-65917372D01*
X81287628Y-66160430D01*
X81573433Y-66351399D01*
X81891002Y-66482940D01*
X82228133Y-66550000D01*
X82571867Y-66550000D01*
X82908998Y-66482940D01*
X83226567Y-66351399D01*
X83512372Y-66160430D01*
X83755430Y-65917372D01*
X83946399Y-65631567D01*
X84077940Y-65313998D01*
X84145000Y-64976867D01*
X84145000Y-64633133D01*
X85955000Y-64633133D01*
X85955000Y-64976867D01*
X86022060Y-65313998D01*
X86153601Y-65631567D01*
X86344570Y-65917372D01*
X86587628Y-66160430D01*
X86873433Y-66351399D01*
X87191002Y-66482940D01*
X87528133Y-66550000D01*
X87871867Y-66550000D01*
X88208998Y-66482940D01*
X88526567Y-66351399D01*
X88812372Y-66160430D01*
X89055430Y-65917372D01*
X89246399Y-65631567D01*
X89377940Y-65313998D01*
X89445000Y-64976867D01*
X89445000Y-64633133D01*
X91255000Y-64633133D01*
X91255000Y-64976867D01*
X91322060Y-65313998D01*
X91453601Y-65631567D01*
X91644570Y-65917372D01*
X91887628Y-66160430D01*
X92173433Y-66351399D01*
X92491002Y-66482940D01*
X92828133Y-66550000D01*
X93171867Y-66550000D01*
X93508998Y-66482940D01*
X93826567Y-66351399D01*
X94112372Y-66160430D01*
X94355430Y-65917372D01*
X94546399Y-65631567D01*
X94677940Y-65313998D01*
X94745000Y-64976867D01*
X94745000Y-64633133D01*
X94677940Y-64296002D01*
X94546399Y-63978433D01*
X94355430Y-63692628D01*
X94112372Y-63449570D01*
X93826567Y-63258601D01*
X93508998Y-63127060D01*
X93171867Y-63060000D01*
X92828133Y-63060000D01*
X92491002Y-63127060D01*
X92173433Y-63258601D01*
X91887628Y-63449570D01*
X91644570Y-63692628D01*
X91453601Y-63978433D01*
X91322060Y-64296002D01*
X91255000Y-64633133D01*
X89445000Y-64633133D01*
X89377940Y-64296002D01*
X89246399Y-63978433D01*
X89055430Y-63692628D01*
X88812372Y-63449570D01*
X88526567Y-63258601D01*
X88208998Y-63127060D01*
X87871867Y-63060000D01*
X87528133Y-63060000D01*
X87191002Y-63127060D01*
X86873433Y-63258601D01*
X86587628Y-63449570D01*
X86344570Y-63692628D01*
X86153601Y-63978433D01*
X86022060Y-64296002D01*
X85955000Y-64633133D01*
X84145000Y-64633133D01*
X84077940Y-64296002D01*
X83946399Y-63978433D01*
X83755430Y-63692628D01*
X83512372Y-63449570D01*
X83226567Y-63258601D01*
X82908998Y-63127060D01*
X82571867Y-63060000D01*
X82228133Y-63060000D01*
X81891002Y-63127060D01*
X81573433Y-63258601D01*
X81287628Y-63449570D01*
X81044570Y-63692628D01*
X80853601Y-63978433D01*
X80722060Y-64296002D01*
X80655000Y-64633133D01*
X72923000Y-64633133D01*
X72923000Y-61218839D01*
X81365766Y-61218839D01*
X81474804Y-61494489D01*
X81783166Y-61646365D01*
X82115233Y-61735165D01*
X82458244Y-61757476D01*
X82799015Y-61712440D01*
X83124454Y-61601789D01*
X83325196Y-61494489D01*
X83434234Y-61218839D01*
X82400000Y-60184605D01*
X81365766Y-61218839D01*
X72923000Y-61218839D01*
X72923000Y-60063244D01*
X80647524Y-60063244D01*
X80692560Y-60404015D01*
X80803211Y-60729454D01*
X80910511Y-60930196D01*
X81186161Y-61039234D01*
X82220395Y-60005000D01*
X82579605Y-60005000D01*
X83613839Y-61039234D01*
X83889489Y-60930196D01*
X84041365Y-60621834D01*
X84130165Y-60289767D01*
X84152476Y-59946756D01*
X84137460Y-59833133D01*
X85955000Y-59833133D01*
X85955000Y-60176867D01*
X86022060Y-60513998D01*
X86153601Y-60831567D01*
X86344570Y-61117372D01*
X86587628Y-61360430D01*
X86873433Y-61551399D01*
X87191002Y-61682940D01*
X87528133Y-61750000D01*
X87871867Y-61750000D01*
X88208998Y-61682940D01*
X88526567Y-61551399D01*
X88812372Y-61360430D01*
X89055430Y-61117372D01*
X89246399Y-60831567D01*
X89377940Y-60513998D01*
X89445000Y-60176867D01*
X89445000Y-59833133D01*
X91255000Y-59833133D01*
X91255000Y-60176867D01*
X91322060Y-60513998D01*
X91453601Y-60831567D01*
X91644570Y-61117372D01*
X91887628Y-61360430D01*
X92173433Y-61551399D01*
X92491002Y-61682940D01*
X92828133Y-61750000D01*
X93171867Y-61750000D01*
X93508998Y-61682940D01*
X93826567Y-61551399D01*
X94112372Y-61360430D01*
X94355430Y-61117372D01*
X94546399Y-60831567D01*
X94677940Y-60513998D01*
X94745000Y-60176867D01*
X94745000Y-59833133D01*
X94677940Y-59496002D01*
X94546399Y-59178433D01*
X94355430Y-58892628D01*
X94112372Y-58649570D01*
X93826567Y-58458601D01*
X93508998Y-58327060D01*
X93171867Y-58260000D01*
X92828133Y-58260000D01*
X92491002Y-58327060D01*
X92173433Y-58458601D01*
X91887628Y-58649570D01*
X91644570Y-58892628D01*
X91453601Y-59178433D01*
X91322060Y-59496002D01*
X91255000Y-59833133D01*
X89445000Y-59833133D01*
X89377940Y-59496002D01*
X89246399Y-59178433D01*
X89055430Y-58892628D01*
X88812372Y-58649570D01*
X88526567Y-58458601D01*
X88208998Y-58327060D01*
X87871867Y-58260000D01*
X87528133Y-58260000D01*
X87191002Y-58327060D01*
X86873433Y-58458601D01*
X86587628Y-58649570D01*
X86344570Y-58892628D01*
X86153601Y-59178433D01*
X86022060Y-59496002D01*
X85955000Y-59833133D01*
X84137460Y-59833133D01*
X84107440Y-59605985D01*
X83996789Y-59280546D01*
X83889489Y-59079804D01*
X83613839Y-58970766D01*
X82579605Y-60005000D01*
X82220395Y-60005000D01*
X81186161Y-58970766D01*
X80910511Y-59079804D01*
X80758635Y-59388166D01*
X80669835Y-59720233D01*
X80647524Y-60063244D01*
X72923000Y-60063244D01*
X72923000Y-58791161D01*
X81365766Y-58791161D01*
X82400000Y-59825395D01*
X83434234Y-58791161D01*
X83325196Y-58515511D01*
X83016834Y-58363635D01*
X82684767Y-58274835D01*
X82341756Y-58252524D01*
X82000985Y-58297560D01*
X81675546Y-58408211D01*
X81474804Y-58515511D01*
X81365766Y-58791161D01*
X72923000Y-58791161D01*
X72923000Y-55033133D01*
X80655000Y-55033133D01*
X80655000Y-55376867D01*
X80722060Y-55713998D01*
X80853601Y-56031567D01*
X81044570Y-56317372D01*
X81287628Y-56560430D01*
X81573433Y-56751399D01*
X81891002Y-56882940D01*
X82228133Y-56950000D01*
X82571867Y-56950000D01*
X82908998Y-56882940D01*
X83226567Y-56751399D01*
X83512372Y-56560430D01*
X83755430Y-56317372D01*
X83946399Y-56031567D01*
X84077940Y-55713998D01*
X84145000Y-55376867D01*
X84145000Y-55033133D01*
X85955000Y-55033133D01*
X85955000Y-55376867D01*
X86022060Y-55713998D01*
X86153601Y-56031567D01*
X86344570Y-56317372D01*
X86587628Y-56560430D01*
X86873433Y-56751399D01*
X87191002Y-56882940D01*
X87528133Y-56950000D01*
X87871867Y-56950000D01*
X88208998Y-56882940D01*
X88526567Y-56751399D01*
X88812372Y-56560430D01*
X89055430Y-56317372D01*
X89204683Y-56094000D01*
X91495317Y-56094000D01*
X91644570Y-56317372D01*
X91887628Y-56560430D01*
X92173433Y-56751399D01*
X92491002Y-56882940D01*
X92828133Y-56950000D01*
X93171867Y-56950000D01*
X93508998Y-56882940D01*
X93826567Y-56751399D01*
X94112372Y-56560430D01*
X94355430Y-56317372D01*
X94546399Y-56031567D01*
X94677940Y-55713998D01*
X94745000Y-55376867D01*
X94745000Y-55033133D01*
X94677940Y-54696002D01*
X94546399Y-54378433D01*
X94355430Y-54092628D01*
X94112372Y-53849570D01*
X93826567Y-53658601D01*
X93508998Y-53527060D01*
X93171867Y-53460000D01*
X92828133Y-53460000D01*
X92491002Y-53527060D01*
X92173433Y-53658601D01*
X91887628Y-53849570D01*
X91644570Y-54092628D01*
X91495317Y-54316000D01*
X89204683Y-54316000D01*
X89055430Y-54092628D01*
X88812372Y-53849570D01*
X88526567Y-53658601D01*
X88208998Y-53527060D01*
X87871867Y-53460000D01*
X87528133Y-53460000D01*
X87191002Y-53527060D01*
X86873433Y-53658601D01*
X86587628Y-53849570D01*
X86344570Y-54092628D01*
X86153601Y-54378433D01*
X86022060Y-54696002D01*
X85955000Y-55033133D01*
X84145000Y-55033133D01*
X84077940Y-54696002D01*
X83946399Y-54378433D01*
X83755430Y-54092628D01*
X83512372Y-53849570D01*
X83226567Y-53658601D01*
X82908998Y-53527060D01*
X82571867Y-53460000D01*
X82228133Y-53460000D01*
X81891002Y-53527060D01*
X81573433Y-53658601D01*
X81287628Y-53849570D01*
X81044570Y-54092628D01*
X80853601Y-54378433D01*
X80722060Y-54696002D01*
X80655000Y-55033133D01*
X72923000Y-55033133D01*
X72923000Y-50330612D01*
X73023820Y-50384502D01*
X73143518Y-50420812D01*
X73268000Y-50433072D01*
X75068000Y-50433072D01*
X75192482Y-50420812D01*
X75312180Y-50384502D01*
X75422494Y-50325537D01*
X75519185Y-50246185D01*
X75598537Y-50149494D01*
X75657502Y-50039180D01*
X75663056Y-50020873D01*
X75729495Y-50087312D01*
X75980905Y-50255299D01*
X76260257Y-50371011D01*
X76556816Y-50430000D01*
X76859184Y-50430000D01*
X77155743Y-50371011D01*
X77435095Y-50255299D01*
X77686505Y-50087312D01*
X77900312Y-49873505D01*
X78068299Y-49622095D01*
X78092138Y-49564543D01*
X78132618Y-49640275D01*
X78299445Y-49843555D01*
X78502725Y-50010382D01*
X78734646Y-50134347D01*
X78986294Y-50210683D01*
X79182421Y-50230000D01*
X79313579Y-50230000D01*
X79509706Y-50210683D01*
X79761354Y-50134347D01*
X79993275Y-50010382D01*
X80196555Y-49843555D01*
X80363382Y-49640275D01*
X80487347Y-49408354D01*
X80563683Y-49156706D01*
X80589459Y-48895000D01*
X80563683Y-48633294D01*
X80487347Y-48381646D01*
X80363382Y-48149725D01*
X80196555Y-47946445D01*
X80144835Y-47904000D01*
X83431025Y-47904000D01*
X83291038Y-48043987D01*
M02*
