G04 #@! TF.GenerationSoftware,KiCad,Pcbnew,(5.1.2-1)-1*
G04 #@! TF.CreationDate,2019-05-23T08:12:27-07:00*
G04 #@! TF.ProjectId,ButtonBoard,42757474-6f6e-4426-9f61-72642e6b6963,rev?*
G04 #@! TF.SameCoordinates,Original*
G04 #@! TF.FileFunction,Copper,L1,Top*
G04 #@! TF.FilePolarity,Positive*
%FSLAX46Y46*%
G04 Gerber Fmt 4.6, Leading zero omitted, Abs format (unit mm)*
G04 Created by KiCad (PCBNEW (5.1.2-1)-1) date 2019-05-23 08:12:27*
%MOMM*%
%LPD*%
G04 APERTURE LIST*
%ADD10C,3.250000*%
%ADD11R,1.800000X1.800000*%
%ADD12C,1.800000*%
%ADD13O,1.350000X1.350000*%
%ADD14R,1.350000X1.350000*%
%ADD15O,1.400000X1.400000*%
%ADD16C,1.400000*%
%ADD17C,0.508000*%
G04 APERTURE END LIST*
D10*
X82400000Y-55205000D03*
X82400000Y-60005000D03*
X82400000Y-64805000D03*
X87700000Y-55205000D03*
X87700000Y-60005000D03*
X87700000Y-64805000D03*
X93000000Y-55205000D03*
X93000000Y-60005000D03*
X93000000Y-64805000D03*
D11*
X88900000Y-48895000D03*
D12*
X86360000Y-48895000D03*
D13*
X75184000Y-59276000D03*
X75184000Y-57276000D03*
X75184000Y-55276000D03*
X75184000Y-53276000D03*
X75184000Y-51276000D03*
D14*
X75184000Y-49276000D03*
D15*
X83032600Y-48869600D03*
D16*
X77952600Y-48869600D03*
D17*
X86436200Y-48869600D02*
X86461600Y-48895000D01*
X83032600Y-48869600D02*
X86436200Y-48869600D01*
X89779001Y-61002921D02*
X89779001Y-51080401D01*
X88697921Y-62084001D02*
X89779001Y-61002921D01*
X85120999Y-62084001D02*
X88697921Y-62084001D01*
X89779001Y-51080401D02*
X89001600Y-50303000D01*
X82400000Y-64805000D02*
X85120999Y-62084001D01*
X89001600Y-48996600D02*
X88900000Y-48895000D01*
X89001600Y-50303000D02*
X89001600Y-48996600D01*
X75184000Y-59276000D02*
X75184000Y-65024000D01*
X75184000Y-65024000D02*
X78232000Y-68072000D01*
X89733000Y-68072000D02*
X93000000Y-64805000D01*
X78232000Y-68072000D02*
X89733000Y-68072000D01*
X93000000Y-60005000D02*
X93965000Y-59040000D01*
X85620999Y-66884001D02*
X79330001Y-66884001D01*
X87700000Y-64805000D02*
X85620999Y-66884001D01*
X79330001Y-66884001D02*
X76962000Y-64516000D01*
X76962000Y-57054000D02*
X75184000Y-55276000D01*
X76962000Y-64516000D02*
X76962000Y-57054000D01*
X75858999Y-53950999D02*
X75184000Y-53276000D01*
X79192001Y-57284001D02*
X75858999Y-53950999D01*
X84979001Y-57284001D02*
X79192001Y-57284001D01*
X87700000Y-60005000D02*
X84979001Y-57284001D01*
X75546200Y-51276000D02*
X77952600Y-48869600D01*
X75184000Y-51276000D02*
X75546200Y-51276000D01*
M02*
