G04 #@! TF.GenerationSoftware,KiCad,Pcbnew,(5.1.2-1)-1*
G04 #@! TF.CreationDate,2019-07-10T15:39:13-07:00*
G04 #@! TF.ProjectId,ButtonBoard,42757474-6f6e-4426-9f61-72642e6b6963,rev?*
G04 #@! TF.SameCoordinates,Original*
G04 #@! TF.FileFunction,Soldermask,Bot*
G04 #@! TF.FilePolarity,Negative*
%FSLAX46Y46*%
G04 Gerber Fmt 4.6, Leading zero omitted, Abs format (unit mm)*
G04 Created by KiCad (PCBNEW (5.1.2-1)-1) date 2019-07-10 15:39:13*
%MOMM*%
%LPD*%
G04 APERTURE LIST*
%ADD10C,0.100000*%
G04 APERTURE END LIST*
D10*
G36*
X76071393Y-66059304D02*
G01*
X76308101Y-66157352D01*
X76308103Y-66157353D01*
X76521135Y-66299696D01*
X76702304Y-66480865D01*
X76758713Y-66565288D01*
X76844648Y-66693899D01*
X76942696Y-66930607D01*
X76992680Y-67181893D01*
X76992680Y-67438107D01*
X76942696Y-67689393D01*
X76844648Y-67926101D01*
X76844647Y-67926103D01*
X76702304Y-68139135D01*
X76521135Y-68320304D01*
X76308103Y-68462647D01*
X76308102Y-68462648D01*
X76308101Y-68462648D01*
X76071393Y-68560696D01*
X75820107Y-68610680D01*
X75563893Y-68610680D01*
X75312607Y-68560696D01*
X75075899Y-68462648D01*
X75075898Y-68462648D01*
X75075897Y-68462647D01*
X74862865Y-68320304D01*
X74681696Y-68139135D01*
X74539353Y-67926103D01*
X74539352Y-67926101D01*
X74441304Y-67689393D01*
X74391320Y-67438107D01*
X74391320Y-67181893D01*
X74441304Y-66930607D01*
X74539352Y-66693899D01*
X74625287Y-66565288D01*
X74681696Y-66480865D01*
X74862865Y-66299696D01*
X75075897Y-66157353D01*
X75075899Y-66157352D01*
X75312607Y-66059304D01*
X75563893Y-66009320D01*
X75820107Y-66009320D01*
X76071393Y-66059304D01*
X76071393Y-66059304D01*
G37*
G36*
X93548331Y-63101711D02*
G01*
X93876092Y-63237474D01*
X94171070Y-63434572D01*
X94421928Y-63685430D01*
X94619026Y-63980408D01*
X94754789Y-64308169D01*
X94824000Y-64656116D01*
X94824000Y-65010884D01*
X94754789Y-65358831D01*
X94619026Y-65686592D01*
X94421928Y-65981570D01*
X94171070Y-66232428D01*
X93876092Y-66429526D01*
X93548331Y-66565289D01*
X93200384Y-66634500D01*
X92845616Y-66634500D01*
X92497669Y-66565289D01*
X92169908Y-66429526D01*
X91874930Y-66232428D01*
X91624072Y-65981570D01*
X91426974Y-65686592D01*
X91291211Y-65358831D01*
X91222000Y-65010884D01*
X91222000Y-64656116D01*
X91291211Y-64308169D01*
X91426974Y-63980408D01*
X91624072Y-63685430D01*
X91874930Y-63434572D01*
X92169908Y-63237474D01*
X92497669Y-63101711D01*
X92845616Y-63032500D01*
X93200384Y-63032500D01*
X93548331Y-63101711D01*
X93548331Y-63101711D01*
G37*
G36*
X88248331Y-63101711D02*
G01*
X88576092Y-63237474D01*
X88871070Y-63434572D01*
X89121928Y-63685430D01*
X89319026Y-63980408D01*
X89454789Y-64308169D01*
X89524000Y-64656116D01*
X89524000Y-65010884D01*
X89454789Y-65358831D01*
X89319026Y-65686592D01*
X89121928Y-65981570D01*
X88871070Y-66232428D01*
X88576092Y-66429526D01*
X88248331Y-66565289D01*
X87900384Y-66634500D01*
X87545616Y-66634500D01*
X87197669Y-66565289D01*
X86869908Y-66429526D01*
X86574930Y-66232428D01*
X86324072Y-65981570D01*
X86126974Y-65686592D01*
X85991211Y-65358831D01*
X85922000Y-65010884D01*
X85922000Y-64656116D01*
X85991211Y-64308169D01*
X86126974Y-63980408D01*
X86324072Y-63685430D01*
X86574930Y-63434572D01*
X86869908Y-63237474D01*
X87197669Y-63101711D01*
X87545616Y-63032500D01*
X87900384Y-63032500D01*
X88248331Y-63101711D01*
X88248331Y-63101711D01*
G37*
G36*
X82948331Y-63101711D02*
G01*
X83276092Y-63237474D01*
X83571070Y-63434572D01*
X83821928Y-63685430D01*
X84019026Y-63980408D01*
X84154789Y-64308169D01*
X84224000Y-64656116D01*
X84224000Y-65010884D01*
X84154789Y-65358831D01*
X84019026Y-65686592D01*
X83821928Y-65981570D01*
X83571070Y-66232428D01*
X83276092Y-66429526D01*
X82948331Y-66565289D01*
X82600384Y-66634500D01*
X82245616Y-66634500D01*
X81897669Y-66565289D01*
X81569908Y-66429526D01*
X81274930Y-66232428D01*
X81024072Y-65981570D01*
X80826974Y-65686592D01*
X80691211Y-65358831D01*
X80622000Y-65010884D01*
X80622000Y-64656116D01*
X80691211Y-64308169D01*
X80826974Y-63980408D01*
X81024072Y-63685430D01*
X81274930Y-63434572D01*
X81569908Y-63237474D01*
X81897669Y-63101711D01*
X82245616Y-63032500D01*
X82600384Y-63032500D01*
X82948331Y-63101711D01*
X82948331Y-63101711D01*
G37*
G36*
X75421442Y-61081518D02*
G01*
X75487627Y-61088037D01*
X75657466Y-61139557D01*
X75813991Y-61223222D01*
X75849729Y-61252552D01*
X75951186Y-61335814D01*
X76030474Y-61432428D01*
X76063778Y-61473009D01*
X76147443Y-61629534D01*
X76198963Y-61799373D01*
X76216359Y-61976000D01*
X76198963Y-62152627D01*
X76147443Y-62322466D01*
X76063778Y-62478991D01*
X76034448Y-62514729D01*
X75951186Y-62616186D01*
X75849729Y-62699448D01*
X75813991Y-62728778D01*
X75657466Y-62812443D01*
X75487627Y-62863963D01*
X75421443Y-62870481D01*
X75355260Y-62877000D01*
X75266740Y-62877000D01*
X75200557Y-62870481D01*
X75134373Y-62863963D01*
X74964534Y-62812443D01*
X74808009Y-62728778D01*
X74772271Y-62699448D01*
X74670814Y-62616186D01*
X74587552Y-62514729D01*
X74558222Y-62478991D01*
X74474557Y-62322466D01*
X74423037Y-62152627D01*
X74405641Y-61976000D01*
X74423037Y-61799373D01*
X74474557Y-61629534D01*
X74558222Y-61473009D01*
X74591526Y-61432428D01*
X74670814Y-61335814D01*
X74772271Y-61252552D01*
X74808009Y-61223222D01*
X74964534Y-61139557D01*
X75134373Y-61088037D01*
X75200558Y-61081518D01*
X75266740Y-61075000D01*
X75355260Y-61075000D01*
X75421442Y-61081518D01*
X75421442Y-61081518D01*
G37*
G36*
X93548331Y-58301711D02*
G01*
X93876092Y-58437474D01*
X94171070Y-58634572D01*
X94421928Y-58885430D01*
X94619026Y-59180408D01*
X94754789Y-59508169D01*
X94824000Y-59856116D01*
X94824000Y-60210884D01*
X94754789Y-60558831D01*
X94619026Y-60886592D01*
X94421928Y-61181570D01*
X94171070Y-61432428D01*
X93876092Y-61629526D01*
X93548331Y-61765289D01*
X93200384Y-61834500D01*
X92845616Y-61834500D01*
X92497669Y-61765289D01*
X92169908Y-61629526D01*
X91874930Y-61432428D01*
X91624072Y-61181570D01*
X91426974Y-60886592D01*
X91291211Y-60558831D01*
X91222000Y-60210884D01*
X91222000Y-59856116D01*
X91291211Y-59508169D01*
X91426974Y-59180408D01*
X91624072Y-58885430D01*
X91874930Y-58634572D01*
X92169908Y-58437474D01*
X92497669Y-58301711D01*
X92845616Y-58232500D01*
X93200384Y-58232500D01*
X93548331Y-58301711D01*
X93548331Y-58301711D01*
G37*
G36*
X88248331Y-58301711D02*
G01*
X88576092Y-58437474D01*
X88871070Y-58634572D01*
X89121928Y-58885430D01*
X89319026Y-59180408D01*
X89454789Y-59508169D01*
X89524000Y-59856116D01*
X89524000Y-60210884D01*
X89454789Y-60558831D01*
X89319026Y-60886592D01*
X89121928Y-61181570D01*
X88871070Y-61432428D01*
X88576092Y-61629526D01*
X88248331Y-61765289D01*
X87900384Y-61834500D01*
X87545616Y-61834500D01*
X87197669Y-61765289D01*
X86869908Y-61629526D01*
X86574930Y-61432428D01*
X86324072Y-61181570D01*
X86126974Y-60886592D01*
X85991211Y-60558831D01*
X85922000Y-60210884D01*
X85922000Y-59856116D01*
X85991211Y-59508169D01*
X86126974Y-59180408D01*
X86324072Y-58885430D01*
X86574930Y-58634572D01*
X86869908Y-58437474D01*
X87197669Y-58301711D01*
X87545616Y-58232500D01*
X87900384Y-58232500D01*
X88248331Y-58301711D01*
X88248331Y-58301711D01*
G37*
G36*
X82948331Y-58301711D02*
G01*
X83276092Y-58437474D01*
X83571070Y-58634572D01*
X83821928Y-58885430D01*
X84019026Y-59180408D01*
X84154789Y-59508169D01*
X84224000Y-59856116D01*
X84224000Y-60210884D01*
X84154789Y-60558831D01*
X84019026Y-60886592D01*
X83821928Y-61181570D01*
X83571070Y-61432428D01*
X83276092Y-61629526D01*
X82948331Y-61765289D01*
X82600384Y-61834500D01*
X82245616Y-61834500D01*
X81897669Y-61765289D01*
X81569908Y-61629526D01*
X81274930Y-61432428D01*
X81024072Y-61181570D01*
X80826974Y-60886592D01*
X80691211Y-60558831D01*
X80622000Y-60210884D01*
X80622000Y-59856116D01*
X80691211Y-59508169D01*
X80826974Y-59180408D01*
X81024072Y-58885430D01*
X81274930Y-58634572D01*
X81569908Y-58437474D01*
X81897669Y-58301711D01*
X82245616Y-58232500D01*
X82600384Y-58232500D01*
X82948331Y-58301711D01*
X82948331Y-58301711D01*
G37*
G36*
X75421443Y-58541519D02*
G01*
X75487627Y-58548037D01*
X75657466Y-58599557D01*
X75813991Y-58683222D01*
X75849729Y-58712552D01*
X75951186Y-58795814D01*
X76024731Y-58885430D01*
X76063778Y-58933009D01*
X76147443Y-59089534D01*
X76198963Y-59259373D01*
X76216359Y-59436000D01*
X76198963Y-59612627D01*
X76147443Y-59782466D01*
X76063778Y-59938991D01*
X76034448Y-59974729D01*
X75951186Y-60076186D01*
X75849729Y-60159448D01*
X75813991Y-60188778D01*
X75657466Y-60272443D01*
X75487627Y-60323963D01*
X75421442Y-60330482D01*
X75355260Y-60337000D01*
X75266740Y-60337000D01*
X75200558Y-60330482D01*
X75134373Y-60323963D01*
X74964534Y-60272443D01*
X74808009Y-60188778D01*
X74772271Y-60159448D01*
X74670814Y-60076186D01*
X74587552Y-59974729D01*
X74558222Y-59938991D01*
X74474557Y-59782466D01*
X74423037Y-59612627D01*
X74405641Y-59436000D01*
X74423037Y-59259373D01*
X74474557Y-59089534D01*
X74558222Y-58933009D01*
X74597269Y-58885430D01*
X74670814Y-58795814D01*
X74772271Y-58712552D01*
X74808009Y-58683222D01*
X74964534Y-58599557D01*
X75134373Y-58548037D01*
X75200557Y-58541519D01*
X75266740Y-58535000D01*
X75355260Y-58535000D01*
X75421443Y-58541519D01*
X75421443Y-58541519D01*
G37*
G36*
X75421442Y-56001518D02*
G01*
X75487627Y-56008037D01*
X75657466Y-56059557D01*
X75813991Y-56143222D01*
X75849729Y-56172552D01*
X75951186Y-56255814D01*
X76034448Y-56357271D01*
X76063778Y-56393009D01*
X76147443Y-56549534D01*
X76198963Y-56719373D01*
X76216359Y-56896000D01*
X76198963Y-57072627D01*
X76147443Y-57242466D01*
X76063778Y-57398991D01*
X76034448Y-57434729D01*
X75951186Y-57536186D01*
X75849729Y-57619448D01*
X75813991Y-57648778D01*
X75657466Y-57732443D01*
X75487627Y-57783963D01*
X75421442Y-57790482D01*
X75355260Y-57797000D01*
X75266740Y-57797000D01*
X75200558Y-57790482D01*
X75134373Y-57783963D01*
X74964534Y-57732443D01*
X74808009Y-57648778D01*
X74772271Y-57619448D01*
X74670814Y-57536186D01*
X74587552Y-57434729D01*
X74558222Y-57398991D01*
X74474557Y-57242466D01*
X74423037Y-57072627D01*
X74405641Y-56896000D01*
X74423037Y-56719373D01*
X74474557Y-56549534D01*
X74558222Y-56393009D01*
X74587552Y-56357271D01*
X74670814Y-56255814D01*
X74772271Y-56172552D01*
X74808009Y-56143222D01*
X74964534Y-56059557D01*
X75134373Y-56008037D01*
X75200558Y-56001518D01*
X75266740Y-55995000D01*
X75355260Y-55995000D01*
X75421442Y-56001518D01*
X75421442Y-56001518D01*
G37*
G36*
X93548331Y-53501711D02*
G01*
X93876092Y-53637474D01*
X94171070Y-53834572D01*
X94421928Y-54085430D01*
X94619026Y-54380408D01*
X94754789Y-54708169D01*
X94824000Y-55056116D01*
X94824000Y-55410884D01*
X94754789Y-55758831D01*
X94619026Y-56086592D01*
X94421928Y-56381570D01*
X94171070Y-56632428D01*
X93876092Y-56829526D01*
X93548331Y-56965289D01*
X93200384Y-57034500D01*
X92845616Y-57034500D01*
X92497669Y-56965289D01*
X92169908Y-56829526D01*
X91874930Y-56632428D01*
X91624072Y-56381570D01*
X91426974Y-56086592D01*
X91291211Y-55758831D01*
X91222000Y-55410884D01*
X91222000Y-55056116D01*
X91291211Y-54708169D01*
X91426974Y-54380408D01*
X91624072Y-54085430D01*
X91874930Y-53834572D01*
X92169908Y-53637474D01*
X92497669Y-53501711D01*
X92845616Y-53432500D01*
X93200384Y-53432500D01*
X93548331Y-53501711D01*
X93548331Y-53501711D01*
G37*
G36*
X88248331Y-53501711D02*
G01*
X88576092Y-53637474D01*
X88871070Y-53834572D01*
X89121928Y-54085430D01*
X89319026Y-54380408D01*
X89454789Y-54708169D01*
X89524000Y-55056116D01*
X89524000Y-55410884D01*
X89454789Y-55758831D01*
X89319026Y-56086592D01*
X89121928Y-56381570D01*
X88871070Y-56632428D01*
X88576092Y-56829526D01*
X88248331Y-56965289D01*
X87900384Y-57034500D01*
X87545616Y-57034500D01*
X87197669Y-56965289D01*
X86869908Y-56829526D01*
X86574930Y-56632428D01*
X86324072Y-56381570D01*
X86126974Y-56086592D01*
X85991211Y-55758831D01*
X85922000Y-55410884D01*
X85922000Y-55056116D01*
X85991211Y-54708169D01*
X86126974Y-54380408D01*
X86324072Y-54085430D01*
X86574930Y-53834572D01*
X86869908Y-53637474D01*
X87197669Y-53501711D01*
X87545616Y-53432500D01*
X87900384Y-53432500D01*
X88248331Y-53501711D01*
X88248331Y-53501711D01*
G37*
G36*
X82948331Y-53501711D02*
G01*
X83276092Y-53637474D01*
X83571070Y-53834572D01*
X83821928Y-54085430D01*
X84019026Y-54380408D01*
X84154789Y-54708169D01*
X84224000Y-55056116D01*
X84224000Y-55410884D01*
X84154789Y-55758831D01*
X84019026Y-56086592D01*
X83821928Y-56381570D01*
X83571070Y-56632428D01*
X83276092Y-56829526D01*
X82948331Y-56965289D01*
X82600384Y-57034500D01*
X82245616Y-57034500D01*
X81897669Y-56965289D01*
X81569908Y-56829526D01*
X81274930Y-56632428D01*
X81024072Y-56381570D01*
X80826974Y-56086592D01*
X80691211Y-55758831D01*
X80622000Y-55410884D01*
X80622000Y-55056116D01*
X80691211Y-54708169D01*
X80826974Y-54380408D01*
X81024072Y-54085430D01*
X81274930Y-53834572D01*
X81569908Y-53637474D01*
X81897669Y-53501711D01*
X82245616Y-53432500D01*
X82600384Y-53432500D01*
X82948331Y-53501711D01*
X82948331Y-53501711D01*
G37*
G36*
X75421442Y-53461518D02*
G01*
X75487627Y-53468037D01*
X75657466Y-53519557D01*
X75813991Y-53603222D01*
X75849729Y-53632552D01*
X75951186Y-53715814D01*
X76034448Y-53817271D01*
X76063778Y-53853009D01*
X76147443Y-54009534D01*
X76198963Y-54179373D01*
X76216359Y-54356000D01*
X76198963Y-54532627D01*
X76147443Y-54702466D01*
X76063778Y-54858991D01*
X76034448Y-54894729D01*
X75951186Y-54996186D01*
X75849729Y-55079448D01*
X75813991Y-55108778D01*
X75657466Y-55192443D01*
X75487627Y-55243963D01*
X75421442Y-55250482D01*
X75355260Y-55257000D01*
X75266740Y-55257000D01*
X75200558Y-55250482D01*
X75134373Y-55243963D01*
X74964534Y-55192443D01*
X74808009Y-55108778D01*
X74772271Y-55079448D01*
X74670814Y-54996186D01*
X74587552Y-54894729D01*
X74558222Y-54858991D01*
X74474557Y-54702466D01*
X74423037Y-54532627D01*
X74405641Y-54356000D01*
X74423037Y-54179373D01*
X74474557Y-54009534D01*
X74558222Y-53853009D01*
X74587552Y-53817271D01*
X74670814Y-53715814D01*
X74772271Y-53632552D01*
X74808009Y-53603222D01*
X74964534Y-53519557D01*
X75134373Y-53468037D01*
X75200558Y-53461518D01*
X75266740Y-53455000D01*
X75355260Y-53455000D01*
X75421442Y-53461518D01*
X75421442Y-53461518D01*
G37*
G36*
X75421443Y-50921519D02*
G01*
X75487627Y-50928037D01*
X75657466Y-50979557D01*
X75813991Y-51063222D01*
X75849729Y-51092552D01*
X75951186Y-51175814D01*
X76034448Y-51277271D01*
X76063778Y-51313009D01*
X76147443Y-51469534D01*
X76198963Y-51639373D01*
X76216359Y-51816000D01*
X76198963Y-51992627D01*
X76147443Y-52162466D01*
X76063778Y-52318991D01*
X76034448Y-52354729D01*
X75951186Y-52456186D01*
X75849729Y-52539448D01*
X75813991Y-52568778D01*
X75657466Y-52652443D01*
X75487627Y-52703963D01*
X75421443Y-52710481D01*
X75355260Y-52717000D01*
X75266740Y-52717000D01*
X75200558Y-52710482D01*
X75134373Y-52703963D01*
X74964534Y-52652443D01*
X74808009Y-52568778D01*
X74772271Y-52539448D01*
X74670814Y-52456186D01*
X74587552Y-52354729D01*
X74558222Y-52318991D01*
X74474557Y-52162466D01*
X74423037Y-51992627D01*
X74405641Y-51816000D01*
X74423037Y-51639373D01*
X74474557Y-51469534D01*
X74558222Y-51313009D01*
X74587552Y-51277271D01*
X74670814Y-51175814D01*
X74772271Y-51092552D01*
X74808009Y-51063222D01*
X74964534Y-50979557D01*
X75134373Y-50928037D01*
X75200557Y-50921519D01*
X75266740Y-50915000D01*
X75355260Y-50915000D01*
X75421443Y-50921519D01*
X75421443Y-50921519D01*
G37*
G36*
X95883393Y-48025304D02*
G01*
X96046366Y-48092810D01*
X96120103Y-48123353D01*
X96333135Y-48265696D01*
X96514304Y-48446865D01*
X96585959Y-48554105D01*
X96656648Y-48659899D01*
X96754696Y-48896607D01*
X96804680Y-49147893D01*
X96804680Y-49404107D01*
X96754696Y-49655393D01*
X96717184Y-49745954D01*
X96656647Y-49892103D01*
X96514304Y-50105135D01*
X96333135Y-50286304D01*
X96120103Y-50428647D01*
X96120102Y-50428648D01*
X96120101Y-50428648D01*
X95883393Y-50526696D01*
X95632107Y-50576680D01*
X95375893Y-50576680D01*
X95124607Y-50526696D01*
X94887899Y-50428648D01*
X94887898Y-50428648D01*
X94887897Y-50428647D01*
X94674865Y-50286304D01*
X94493696Y-50105135D01*
X94351353Y-49892103D01*
X94290816Y-49745954D01*
X94253304Y-49655393D01*
X94203320Y-49404107D01*
X94203320Y-49147893D01*
X94253304Y-48896607D01*
X94351352Y-48659899D01*
X94422041Y-48554105D01*
X94493696Y-48446865D01*
X94674865Y-48265696D01*
X94887897Y-48123353D01*
X94961634Y-48092810D01*
X95124607Y-48025304D01*
X95375893Y-47975320D01*
X95632107Y-47975320D01*
X95883393Y-48025304D01*
X95883393Y-48025304D01*
G37*
G36*
X76212000Y-50177000D02*
G01*
X74410000Y-50177000D01*
X74410000Y-48375000D01*
X76212000Y-48375000D01*
X76212000Y-50177000D01*
X76212000Y-50177000D01*
G37*
G36*
X86700895Y-47917046D02*
G01*
X86873966Y-47988734D01*
X86873967Y-47988735D01*
X87029727Y-48092810D01*
X87162190Y-48225273D01*
X87210713Y-48297893D01*
X87266266Y-48381034D01*
X87337954Y-48554105D01*
X87374500Y-48737833D01*
X87374500Y-48925167D01*
X87337954Y-49108895D01*
X87266266Y-49281966D01*
X87247377Y-49310235D01*
X87162190Y-49437727D01*
X87029727Y-49570190D01*
X86951318Y-49622581D01*
X86873966Y-49674266D01*
X86700895Y-49745954D01*
X86517167Y-49782500D01*
X86329833Y-49782500D01*
X86146105Y-49745954D01*
X85973034Y-49674266D01*
X85895682Y-49622581D01*
X85817273Y-49570190D01*
X85684810Y-49437727D01*
X85599623Y-49310235D01*
X85580734Y-49281966D01*
X85509046Y-49108895D01*
X85472500Y-48925167D01*
X85472500Y-48737833D01*
X85509046Y-48554105D01*
X85580734Y-48381034D01*
X85636287Y-48297893D01*
X85684810Y-48225273D01*
X85817273Y-48092810D01*
X85973033Y-47988735D01*
X85973034Y-47988734D01*
X86146105Y-47917046D01*
X86329833Y-47880500D01*
X86517167Y-47880500D01*
X86700895Y-47917046D01*
X86700895Y-47917046D01*
G37*
G36*
X89914500Y-49782500D02*
G01*
X88012500Y-49782500D01*
X88012500Y-47880500D01*
X89914500Y-47880500D01*
X89914500Y-49782500D01*
X89914500Y-49782500D01*
G37*
G36*
X78959059Y-48109360D02*
G01*
X79019294Y-48134310D01*
X79095732Y-48165972D01*
X79218735Y-48248160D01*
X79323340Y-48352765D01*
X79386216Y-48446866D01*
X79405529Y-48475770D01*
X79462140Y-48612441D01*
X79491000Y-48757532D01*
X79491000Y-48905468D01*
X79462140Y-49050559D01*
X79421823Y-49147894D01*
X79405528Y-49187232D01*
X79323340Y-49310235D01*
X79218735Y-49414840D01*
X79095732Y-49497028D01*
X79095731Y-49497029D01*
X79095730Y-49497029D01*
X78959059Y-49553640D01*
X78813968Y-49582500D01*
X78666032Y-49582500D01*
X78520941Y-49553640D01*
X78384270Y-49497029D01*
X78384269Y-49497029D01*
X78384268Y-49497028D01*
X78261265Y-49414840D01*
X78156660Y-49310235D01*
X78074472Y-49187232D01*
X78058178Y-49147894D01*
X78017860Y-49050559D01*
X77989000Y-48905468D01*
X77989000Y-48757532D01*
X78017860Y-48612441D01*
X78074471Y-48475770D01*
X78093784Y-48446866D01*
X78156660Y-48352765D01*
X78261265Y-48248160D01*
X78384268Y-48165972D01*
X78460707Y-48134310D01*
X78520941Y-48109360D01*
X78666032Y-48080500D01*
X78813968Y-48080500D01*
X78959059Y-48109360D01*
X78959059Y-48109360D01*
G37*
G36*
X83893665Y-48084122D02*
G01*
X83967222Y-48091367D01*
X84108786Y-48134310D01*
X84239252Y-48204046D01*
X84269040Y-48228492D01*
X84353607Y-48297893D01*
X84421837Y-48381034D01*
X84447454Y-48412248D01*
X84517190Y-48542714D01*
X84560133Y-48684278D01*
X84574633Y-48831500D01*
X84560133Y-48978722D01*
X84517190Y-49120286D01*
X84447454Y-49250752D01*
X84423008Y-49280540D01*
X84353607Y-49365107D01*
X84293004Y-49414841D01*
X84239252Y-49458954D01*
X84108786Y-49528690D01*
X83967222Y-49571633D01*
X83893665Y-49578878D01*
X83856888Y-49582500D01*
X83783112Y-49582500D01*
X83746335Y-49578878D01*
X83672778Y-49571633D01*
X83531214Y-49528690D01*
X83400748Y-49458954D01*
X83346996Y-49414841D01*
X83286393Y-49365107D01*
X83216992Y-49280540D01*
X83192546Y-49250752D01*
X83122810Y-49120286D01*
X83079867Y-48978722D01*
X83065367Y-48831500D01*
X83079867Y-48684278D01*
X83122810Y-48542714D01*
X83192546Y-48412248D01*
X83218163Y-48381034D01*
X83286393Y-48297893D01*
X83370960Y-48228492D01*
X83400748Y-48204046D01*
X83531214Y-48134310D01*
X83672778Y-48091367D01*
X83746335Y-48084122D01*
X83783112Y-48080500D01*
X83856888Y-48080500D01*
X83893665Y-48084122D01*
X83893665Y-48084122D01*
G37*
M02*
