G04 #@! TF.GenerationSoftware,KiCad,Pcbnew,(5.1.2-1)-1*
G04 #@! TF.CreationDate,2019-07-10T15:39:13-07:00*
G04 #@! TF.ProjectId,ButtonBoard,42757474-6f6e-4426-9f61-72642e6b6963,rev?*
G04 #@! TF.SameCoordinates,Original*
G04 #@! TF.FileFunction,Copper,L2,Bot*
G04 #@! TF.FilePolarity,Positive*
%FSLAX46Y46*%
G04 Gerber Fmt 4.6, Leading zero omitted, Abs format (unit mm)*
G04 Created by KiCad (PCBNEW (5.1.2-1)-1) date 2019-07-10 15:39:13*
%MOMM*%
%LPD*%
G04 APERTURE LIST*
%ADD10O,1.700000X1.700000*%
%ADD11R,1.700000X1.700000*%
%ADD12C,2.499360*%
%ADD13C,3.500000*%
%ADD14R,1.800000X1.800000*%
%ADD15C,1.800000*%
%ADD16O,1.400000X1.400000*%
%ADD17C,1.400000*%
%ADD18C,0.762000*%
%ADD19C,0.254000*%
G04 APERTURE END LIST*
D10*
X75311000Y-61976000D03*
X75311000Y-59436000D03*
X75311000Y-56896000D03*
X75311000Y-54356000D03*
X75311000Y-51816000D03*
D11*
X75311000Y-49276000D03*
D12*
X75692000Y-67310000D03*
X95504000Y-49276000D03*
D13*
X82423000Y-55233500D03*
X82423000Y-60033500D03*
X82423000Y-64833500D03*
X87723000Y-55233500D03*
X87723000Y-60033500D03*
X87723000Y-64833500D03*
X93023000Y-55233500D03*
X93023000Y-60033500D03*
X93023000Y-64833500D03*
D14*
X88963500Y-48831500D03*
D15*
X86423500Y-48831500D03*
D16*
X83820000Y-48831500D03*
D17*
X78740000Y-48831500D03*
D18*
X96127500Y-55233500D02*
X93023000Y-55233500D01*
X96774000Y-55880000D02*
X96127500Y-55233500D01*
X96774000Y-68199000D02*
X96774000Y-55880000D01*
X96266000Y-68707000D02*
X96774000Y-68199000D01*
X83058000Y-68707000D02*
X96266000Y-68707000D01*
X82423000Y-68072000D02*
X83058000Y-68707000D01*
X82423000Y-64833500D02*
X82423000Y-68072000D01*
X81825500Y-59436000D02*
X82423000Y-60033500D01*
X75311000Y-59436000D02*
X81825500Y-59436000D01*
D19*
G36*
X77703038Y-47980487D02*
G01*
X77556939Y-48199141D01*
X77456304Y-48442095D01*
X77405000Y-48700014D01*
X77405000Y-48962986D01*
X77456304Y-49220905D01*
X77556939Y-49463859D01*
X77703038Y-49682513D01*
X77888987Y-49868462D01*
X78107641Y-50014561D01*
X78350595Y-50115196D01*
X78608514Y-50166500D01*
X78871486Y-50166500D01*
X79129405Y-50115196D01*
X79372359Y-50014561D01*
X79591013Y-49868462D01*
X79776962Y-49682513D01*
X79923061Y-49463859D01*
X80023696Y-49220905D01*
X80075000Y-48962986D01*
X80075000Y-48700014D01*
X80023696Y-48442095D01*
X79923061Y-48199141D01*
X79776962Y-47980487D01*
X79700475Y-47904000D01*
X82854166Y-47904000D01*
X82704618Y-48086225D01*
X82580653Y-48318146D01*
X82504317Y-48569794D01*
X82478541Y-48831500D01*
X82504317Y-49093206D01*
X82580653Y-49344854D01*
X82704618Y-49576775D01*
X82871445Y-49780055D01*
X83074725Y-49946882D01*
X83306646Y-50070847D01*
X83558294Y-50147183D01*
X83754421Y-50166500D01*
X83885579Y-50166500D01*
X84081706Y-50147183D01*
X84333354Y-50070847D01*
X84565275Y-49946882D01*
X84768555Y-49780055D01*
X84935382Y-49576775D01*
X85011638Y-49434111D01*
X85063201Y-49558595D01*
X85231188Y-49810005D01*
X85444995Y-50023812D01*
X85696405Y-50191799D01*
X85975757Y-50307511D01*
X86272316Y-50366500D01*
X86574684Y-50366500D01*
X86871243Y-50307511D01*
X87150595Y-50191799D01*
X87402005Y-50023812D01*
X87468444Y-49957373D01*
X87473998Y-49975680D01*
X87532963Y-50085994D01*
X87612315Y-50182685D01*
X87709006Y-50262037D01*
X87819320Y-50321002D01*
X87939018Y-50357312D01*
X88063500Y-50369572D01*
X89863500Y-50369572D01*
X89987982Y-50357312D01*
X90107680Y-50321002D01*
X90217994Y-50262037D01*
X90314685Y-50182685D01*
X90394037Y-50085994D01*
X90453002Y-49975680D01*
X90489312Y-49855982D01*
X90501572Y-49731500D01*
X90501572Y-49328719D01*
X93610935Y-49328719D01*
X93657595Y-49697025D01*
X93775211Y-50049151D01*
X93900685Y-50283896D01*
X94190623Y-50409771D01*
X95324395Y-49276000D01*
X94190623Y-48142229D01*
X93900685Y-48268104D01*
X93734861Y-48600262D01*
X93637025Y-48958387D01*
X93610935Y-49328719D01*
X90501572Y-49328719D01*
X90501572Y-47931500D01*
X90498864Y-47904000D01*
X94395680Y-47904000D01*
X94370229Y-47962623D01*
X95504000Y-49096395D01*
X96637771Y-47962623D01*
X96612320Y-47904000D01*
X97003000Y-47904000D01*
X97003000Y-48222816D01*
X96817377Y-48142229D01*
X95683605Y-49276000D01*
X96817377Y-50409771D01*
X97003000Y-50329184D01*
X97003000Y-54672160D01*
X96881213Y-54550373D01*
X96849396Y-54511604D01*
X96694690Y-54384640D01*
X96518187Y-54290298D01*
X96326671Y-54232202D01*
X96177402Y-54217500D01*
X96127500Y-54212585D01*
X96077598Y-54217500D01*
X95183665Y-54217500D01*
X95136560Y-54103779D01*
X94875550Y-53713151D01*
X94543349Y-53380950D01*
X94152721Y-53119940D01*
X93718679Y-52940154D01*
X93257902Y-52848500D01*
X92788098Y-52848500D01*
X92327321Y-52940154D01*
X91893279Y-53119940D01*
X91502651Y-53380950D01*
X91170450Y-53713151D01*
X90909440Y-54103779D01*
X90729654Y-54537821D01*
X90638000Y-54998598D01*
X90638000Y-55468402D01*
X90729654Y-55929179D01*
X90909440Y-56363221D01*
X91170450Y-56753849D01*
X91502651Y-57086050D01*
X91893279Y-57347060D01*
X92327321Y-57526846D01*
X92788098Y-57618500D01*
X93257902Y-57618500D01*
X93718679Y-57526846D01*
X94152721Y-57347060D01*
X94543349Y-57086050D01*
X94875550Y-56753849D01*
X95136560Y-56363221D01*
X95183665Y-56249500D01*
X95706660Y-56249500D01*
X95758001Y-56300841D01*
X95758000Y-67691000D01*
X83478840Y-67691000D01*
X83439000Y-67651160D01*
X83439000Y-66994165D01*
X83552721Y-66947060D01*
X83943349Y-66686050D01*
X84275550Y-66353849D01*
X84536560Y-65963221D01*
X84716346Y-65529179D01*
X84808000Y-65068402D01*
X84808000Y-64598598D01*
X85338000Y-64598598D01*
X85338000Y-65068402D01*
X85429654Y-65529179D01*
X85609440Y-65963221D01*
X85870450Y-66353849D01*
X86202651Y-66686050D01*
X86593279Y-66947060D01*
X87027321Y-67126846D01*
X87488098Y-67218500D01*
X87957902Y-67218500D01*
X88418679Y-67126846D01*
X88852721Y-66947060D01*
X89243349Y-66686050D01*
X89575550Y-66353849D01*
X89836560Y-65963221D01*
X90016346Y-65529179D01*
X90108000Y-65068402D01*
X90108000Y-64598598D01*
X90638000Y-64598598D01*
X90638000Y-65068402D01*
X90729654Y-65529179D01*
X90909440Y-65963221D01*
X91170450Y-66353849D01*
X91502651Y-66686050D01*
X91893279Y-66947060D01*
X92327321Y-67126846D01*
X92788098Y-67218500D01*
X93257902Y-67218500D01*
X93718679Y-67126846D01*
X94152721Y-66947060D01*
X94543349Y-66686050D01*
X94875550Y-66353849D01*
X95136560Y-65963221D01*
X95316346Y-65529179D01*
X95408000Y-65068402D01*
X95408000Y-64598598D01*
X95316346Y-64137821D01*
X95136560Y-63703779D01*
X94875550Y-63313151D01*
X94543349Y-62980950D01*
X94152721Y-62719940D01*
X93718679Y-62540154D01*
X93257902Y-62448500D01*
X92788098Y-62448500D01*
X92327321Y-62540154D01*
X91893279Y-62719940D01*
X91502651Y-62980950D01*
X91170450Y-63313151D01*
X90909440Y-63703779D01*
X90729654Y-64137821D01*
X90638000Y-64598598D01*
X90108000Y-64598598D01*
X90016346Y-64137821D01*
X89836560Y-63703779D01*
X89575550Y-63313151D01*
X89243349Y-62980950D01*
X88852721Y-62719940D01*
X88418679Y-62540154D01*
X87957902Y-62448500D01*
X87488098Y-62448500D01*
X87027321Y-62540154D01*
X86593279Y-62719940D01*
X86202651Y-62980950D01*
X85870450Y-63313151D01*
X85609440Y-63703779D01*
X85429654Y-64137821D01*
X85338000Y-64598598D01*
X84808000Y-64598598D01*
X84716346Y-64137821D01*
X84536560Y-63703779D01*
X84275550Y-63313151D01*
X83943349Y-62980950D01*
X83552721Y-62719940D01*
X83118679Y-62540154D01*
X82657902Y-62448500D01*
X82188098Y-62448500D01*
X81727321Y-62540154D01*
X81293279Y-62719940D01*
X80902651Y-62980950D01*
X80570450Y-63313151D01*
X80309440Y-63703779D01*
X80129654Y-64137821D01*
X80038000Y-64598598D01*
X80038000Y-65068402D01*
X80129654Y-65529179D01*
X80309440Y-65963221D01*
X80570450Y-66353849D01*
X80902651Y-66686050D01*
X81293279Y-66947060D01*
X81407001Y-66994165D01*
X81407001Y-68022089D01*
X81402085Y-68072000D01*
X81421702Y-68271170D01*
X81474061Y-68443771D01*
X81479799Y-68462687D01*
X81574141Y-68639190D01*
X81701105Y-68793896D01*
X81739868Y-68825708D01*
X81850160Y-68936000D01*
X76657455Y-68936000D01*
X76699896Y-68913315D01*
X76825771Y-68623377D01*
X75692000Y-67489605D01*
X74558229Y-68623377D01*
X74684104Y-68913315D01*
X74729544Y-68936000D01*
X74066000Y-68936000D01*
X74066000Y-68275455D01*
X74088685Y-68317896D01*
X74378623Y-68443771D01*
X75512395Y-67310000D01*
X75871605Y-67310000D01*
X77005377Y-68443771D01*
X77295315Y-68317896D01*
X77461139Y-67985738D01*
X77558975Y-67627613D01*
X77585065Y-67257281D01*
X77538405Y-66888975D01*
X77420789Y-66536849D01*
X77295315Y-66302104D01*
X77005377Y-66176229D01*
X75871605Y-67310000D01*
X75512395Y-67310000D01*
X74378623Y-66176229D01*
X74088685Y-66302104D01*
X74066000Y-66347544D01*
X74066000Y-65996623D01*
X74558229Y-65996623D01*
X75692000Y-67130395D01*
X76825771Y-65996623D01*
X76699896Y-65706685D01*
X76367738Y-65540861D01*
X76009613Y-65443025D01*
X75639281Y-65416935D01*
X75270975Y-65463595D01*
X74918849Y-65581211D01*
X74684104Y-65706685D01*
X74558229Y-65996623D01*
X74066000Y-65996623D01*
X74066000Y-62796980D01*
X74070294Y-62805014D01*
X74255866Y-63031134D01*
X74481986Y-63216706D01*
X74739966Y-63354599D01*
X75019889Y-63439513D01*
X75238050Y-63461000D01*
X75383950Y-63461000D01*
X75602111Y-63439513D01*
X75882034Y-63354599D01*
X76140014Y-63216706D01*
X76366134Y-63031134D01*
X76551706Y-62805014D01*
X76689599Y-62547034D01*
X76774513Y-62267111D01*
X76803185Y-61976000D01*
X76774513Y-61684889D01*
X76689599Y-61404966D01*
X76551706Y-61146986D01*
X76366134Y-60920866D01*
X76140014Y-60735294D01*
X76085209Y-60706000D01*
X76140014Y-60676706D01*
X76366134Y-60491134D01*
X76398250Y-60452000D01*
X80074520Y-60452000D01*
X80129654Y-60729179D01*
X80309440Y-61163221D01*
X80570450Y-61553849D01*
X80902651Y-61886050D01*
X81293279Y-62147060D01*
X81727321Y-62326846D01*
X82188098Y-62418500D01*
X82657902Y-62418500D01*
X83118679Y-62326846D01*
X83552721Y-62147060D01*
X83943349Y-61886050D01*
X84275550Y-61553849D01*
X84536560Y-61163221D01*
X84716346Y-60729179D01*
X84808000Y-60268402D01*
X84808000Y-59798598D01*
X85338000Y-59798598D01*
X85338000Y-60268402D01*
X85429654Y-60729179D01*
X85609440Y-61163221D01*
X85870450Y-61553849D01*
X86202651Y-61886050D01*
X86593279Y-62147060D01*
X87027321Y-62326846D01*
X87488098Y-62418500D01*
X87957902Y-62418500D01*
X88418679Y-62326846D01*
X88852721Y-62147060D01*
X89243349Y-61886050D01*
X89426290Y-61703109D01*
X91532997Y-61703109D01*
X91719073Y-62044266D01*
X92136409Y-62260013D01*
X92587815Y-62390196D01*
X93055946Y-62429813D01*
X93522811Y-62377342D01*
X93970468Y-62234797D01*
X94326927Y-62044266D01*
X94513003Y-61703109D01*
X93023000Y-60213105D01*
X91532997Y-61703109D01*
X89426290Y-61703109D01*
X89575550Y-61553849D01*
X89836560Y-61163221D01*
X90016346Y-60729179D01*
X90108000Y-60268402D01*
X90108000Y-60066446D01*
X90626687Y-60066446D01*
X90679158Y-60533311D01*
X90821703Y-60980968D01*
X91012234Y-61337427D01*
X91353391Y-61523503D01*
X92843395Y-60033500D01*
X93202605Y-60033500D01*
X94692609Y-61523503D01*
X95033766Y-61337427D01*
X95249513Y-60920091D01*
X95379696Y-60468685D01*
X95419313Y-60000554D01*
X95366842Y-59533689D01*
X95224297Y-59086032D01*
X95033766Y-58729573D01*
X94692609Y-58543497D01*
X93202605Y-60033500D01*
X92843395Y-60033500D01*
X91353391Y-58543497D01*
X91012234Y-58729573D01*
X90796487Y-59146909D01*
X90666304Y-59598315D01*
X90626687Y-60066446D01*
X90108000Y-60066446D01*
X90108000Y-59798598D01*
X90016346Y-59337821D01*
X89836560Y-58903779D01*
X89575550Y-58513151D01*
X89426290Y-58363891D01*
X91532997Y-58363891D01*
X93023000Y-59853895D01*
X94513003Y-58363891D01*
X94326927Y-58022734D01*
X93909591Y-57806987D01*
X93458185Y-57676804D01*
X92990054Y-57637187D01*
X92523189Y-57689658D01*
X92075532Y-57832203D01*
X91719073Y-58022734D01*
X91532997Y-58363891D01*
X89426290Y-58363891D01*
X89243349Y-58180950D01*
X88852721Y-57919940D01*
X88418679Y-57740154D01*
X87957902Y-57648500D01*
X87488098Y-57648500D01*
X87027321Y-57740154D01*
X86593279Y-57919940D01*
X86202651Y-58180950D01*
X85870450Y-58513151D01*
X85609440Y-58903779D01*
X85429654Y-59337821D01*
X85338000Y-59798598D01*
X84808000Y-59798598D01*
X84716346Y-59337821D01*
X84536560Y-58903779D01*
X84275550Y-58513151D01*
X83943349Y-58180950D01*
X83552721Y-57919940D01*
X83118679Y-57740154D01*
X82657902Y-57648500D01*
X82188098Y-57648500D01*
X81727321Y-57740154D01*
X81293279Y-57919940D01*
X80902651Y-58180950D01*
X80663601Y-58420000D01*
X76398250Y-58420000D01*
X76366134Y-58380866D01*
X76140014Y-58195294D01*
X76085209Y-58166000D01*
X76140014Y-58136706D01*
X76366134Y-57951134D01*
X76551706Y-57725014D01*
X76689599Y-57467034D01*
X76774513Y-57187111D01*
X76803185Y-56896000D01*
X76774513Y-56604889D01*
X76689599Y-56324966D01*
X76551706Y-56066986D01*
X76366134Y-55840866D01*
X76140014Y-55655294D01*
X76085209Y-55626000D01*
X76140014Y-55596706D01*
X76366134Y-55411134D01*
X76551706Y-55185014D01*
X76651347Y-54998598D01*
X80038000Y-54998598D01*
X80038000Y-55468402D01*
X80129654Y-55929179D01*
X80309440Y-56363221D01*
X80570450Y-56753849D01*
X80902651Y-57086050D01*
X81293279Y-57347060D01*
X81727321Y-57526846D01*
X82188098Y-57618500D01*
X82657902Y-57618500D01*
X83118679Y-57526846D01*
X83552721Y-57347060D01*
X83943349Y-57086050D01*
X84275550Y-56753849D01*
X84536560Y-56363221D01*
X84716346Y-55929179D01*
X84808000Y-55468402D01*
X84808000Y-54998598D01*
X85338000Y-54998598D01*
X85338000Y-55468402D01*
X85429654Y-55929179D01*
X85609440Y-56363221D01*
X85870450Y-56753849D01*
X86202651Y-57086050D01*
X86593279Y-57347060D01*
X87027321Y-57526846D01*
X87488098Y-57618500D01*
X87957902Y-57618500D01*
X88418679Y-57526846D01*
X88852721Y-57347060D01*
X89243349Y-57086050D01*
X89575550Y-56753849D01*
X89836560Y-56363221D01*
X90016346Y-55929179D01*
X90108000Y-55468402D01*
X90108000Y-54998598D01*
X90016346Y-54537821D01*
X89836560Y-54103779D01*
X89575550Y-53713151D01*
X89243349Y-53380950D01*
X88852721Y-53119940D01*
X88418679Y-52940154D01*
X87957902Y-52848500D01*
X87488098Y-52848500D01*
X87027321Y-52940154D01*
X86593279Y-53119940D01*
X86202651Y-53380950D01*
X85870450Y-53713151D01*
X85609440Y-54103779D01*
X85429654Y-54537821D01*
X85338000Y-54998598D01*
X84808000Y-54998598D01*
X84716346Y-54537821D01*
X84536560Y-54103779D01*
X84275550Y-53713151D01*
X83943349Y-53380950D01*
X83552721Y-53119940D01*
X83118679Y-52940154D01*
X82657902Y-52848500D01*
X82188098Y-52848500D01*
X81727321Y-52940154D01*
X81293279Y-53119940D01*
X80902651Y-53380950D01*
X80570450Y-53713151D01*
X80309440Y-54103779D01*
X80129654Y-54537821D01*
X80038000Y-54998598D01*
X76651347Y-54998598D01*
X76689599Y-54927034D01*
X76774513Y-54647111D01*
X76803185Y-54356000D01*
X76774513Y-54064889D01*
X76689599Y-53784966D01*
X76551706Y-53526986D01*
X76366134Y-53300866D01*
X76140014Y-53115294D01*
X76085209Y-53086000D01*
X76140014Y-53056706D01*
X76366134Y-52871134D01*
X76551706Y-52645014D01*
X76689599Y-52387034D01*
X76774513Y-52107111D01*
X76803185Y-51816000D01*
X76774513Y-51524889D01*
X76689599Y-51244966D01*
X76551706Y-50986986D01*
X76366134Y-50760866D01*
X76336313Y-50736393D01*
X76405180Y-50715502D01*
X76515494Y-50656537D01*
X76597328Y-50589377D01*
X94370229Y-50589377D01*
X94496104Y-50879315D01*
X94828262Y-51045139D01*
X95186387Y-51142975D01*
X95556719Y-51169065D01*
X95925025Y-51122405D01*
X96277151Y-51004789D01*
X96511896Y-50879315D01*
X96637771Y-50589377D01*
X95504000Y-49455605D01*
X94370229Y-50589377D01*
X76597328Y-50589377D01*
X76612185Y-50577185D01*
X76691537Y-50480494D01*
X76750502Y-50370180D01*
X76786812Y-50250482D01*
X76799072Y-50126000D01*
X76796000Y-49561750D01*
X76637250Y-49403000D01*
X75438000Y-49403000D01*
X75438000Y-49423000D01*
X75184000Y-49423000D01*
X75184000Y-49403000D01*
X75164000Y-49403000D01*
X75164000Y-49149000D01*
X75184000Y-49149000D01*
X75184000Y-49129000D01*
X75438000Y-49129000D01*
X75438000Y-49149000D01*
X76637250Y-49149000D01*
X76796000Y-48990250D01*
X76799072Y-48426000D01*
X76786812Y-48301518D01*
X76750502Y-48181820D01*
X76691537Y-48071506D01*
X76612185Y-47974815D01*
X76525896Y-47904000D01*
X77779525Y-47904000D01*
X77703038Y-47980487D01*
X77703038Y-47980487D01*
G37*
X77703038Y-47980487D02*
X77556939Y-48199141D01*
X77456304Y-48442095D01*
X77405000Y-48700014D01*
X77405000Y-48962986D01*
X77456304Y-49220905D01*
X77556939Y-49463859D01*
X77703038Y-49682513D01*
X77888987Y-49868462D01*
X78107641Y-50014561D01*
X78350595Y-50115196D01*
X78608514Y-50166500D01*
X78871486Y-50166500D01*
X79129405Y-50115196D01*
X79372359Y-50014561D01*
X79591013Y-49868462D01*
X79776962Y-49682513D01*
X79923061Y-49463859D01*
X80023696Y-49220905D01*
X80075000Y-48962986D01*
X80075000Y-48700014D01*
X80023696Y-48442095D01*
X79923061Y-48199141D01*
X79776962Y-47980487D01*
X79700475Y-47904000D01*
X82854166Y-47904000D01*
X82704618Y-48086225D01*
X82580653Y-48318146D01*
X82504317Y-48569794D01*
X82478541Y-48831500D01*
X82504317Y-49093206D01*
X82580653Y-49344854D01*
X82704618Y-49576775D01*
X82871445Y-49780055D01*
X83074725Y-49946882D01*
X83306646Y-50070847D01*
X83558294Y-50147183D01*
X83754421Y-50166500D01*
X83885579Y-50166500D01*
X84081706Y-50147183D01*
X84333354Y-50070847D01*
X84565275Y-49946882D01*
X84768555Y-49780055D01*
X84935382Y-49576775D01*
X85011638Y-49434111D01*
X85063201Y-49558595D01*
X85231188Y-49810005D01*
X85444995Y-50023812D01*
X85696405Y-50191799D01*
X85975757Y-50307511D01*
X86272316Y-50366500D01*
X86574684Y-50366500D01*
X86871243Y-50307511D01*
X87150595Y-50191799D01*
X87402005Y-50023812D01*
X87468444Y-49957373D01*
X87473998Y-49975680D01*
X87532963Y-50085994D01*
X87612315Y-50182685D01*
X87709006Y-50262037D01*
X87819320Y-50321002D01*
X87939018Y-50357312D01*
X88063500Y-50369572D01*
X89863500Y-50369572D01*
X89987982Y-50357312D01*
X90107680Y-50321002D01*
X90217994Y-50262037D01*
X90314685Y-50182685D01*
X90394037Y-50085994D01*
X90453002Y-49975680D01*
X90489312Y-49855982D01*
X90501572Y-49731500D01*
X90501572Y-49328719D01*
X93610935Y-49328719D01*
X93657595Y-49697025D01*
X93775211Y-50049151D01*
X93900685Y-50283896D01*
X94190623Y-50409771D01*
X95324395Y-49276000D01*
X94190623Y-48142229D01*
X93900685Y-48268104D01*
X93734861Y-48600262D01*
X93637025Y-48958387D01*
X93610935Y-49328719D01*
X90501572Y-49328719D01*
X90501572Y-47931500D01*
X90498864Y-47904000D01*
X94395680Y-47904000D01*
X94370229Y-47962623D01*
X95504000Y-49096395D01*
X96637771Y-47962623D01*
X96612320Y-47904000D01*
X97003000Y-47904000D01*
X97003000Y-48222816D01*
X96817377Y-48142229D01*
X95683605Y-49276000D01*
X96817377Y-50409771D01*
X97003000Y-50329184D01*
X97003000Y-54672160D01*
X96881213Y-54550373D01*
X96849396Y-54511604D01*
X96694690Y-54384640D01*
X96518187Y-54290298D01*
X96326671Y-54232202D01*
X96177402Y-54217500D01*
X96127500Y-54212585D01*
X96077598Y-54217500D01*
X95183665Y-54217500D01*
X95136560Y-54103779D01*
X94875550Y-53713151D01*
X94543349Y-53380950D01*
X94152721Y-53119940D01*
X93718679Y-52940154D01*
X93257902Y-52848500D01*
X92788098Y-52848500D01*
X92327321Y-52940154D01*
X91893279Y-53119940D01*
X91502651Y-53380950D01*
X91170450Y-53713151D01*
X90909440Y-54103779D01*
X90729654Y-54537821D01*
X90638000Y-54998598D01*
X90638000Y-55468402D01*
X90729654Y-55929179D01*
X90909440Y-56363221D01*
X91170450Y-56753849D01*
X91502651Y-57086050D01*
X91893279Y-57347060D01*
X92327321Y-57526846D01*
X92788098Y-57618500D01*
X93257902Y-57618500D01*
X93718679Y-57526846D01*
X94152721Y-57347060D01*
X94543349Y-57086050D01*
X94875550Y-56753849D01*
X95136560Y-56363221D01*
X95183665Y-56249500D01*
X95706660Y-56249500D01*
X95758001Y-56300841D01*
X95758000Y-67691000D01*
X83478840Y-67691000D01*
X83439000Y-67651160D01*
X83439000Y-66994165D01*
X83552721Y-66947060D01*
X83943349Y-66686050D01*
X84275550Y-66353849D01*
X84536560Y-65963221D01*
X84716346Y-65529179D01*
X84808000Y-65068402D01*
X84808000Y-64598598D01*
X85338000Y-64598598D01*
X85338000Y-65068402D01*
X85429654Y-65529179D01*
X85609440Y-65963221D01*
X85870450Y-66353849D01*
X86202651Y-66686050D01*
X86593279Y-66947060D01*
X87027321Y-67126846D01*
X87488098Y-67218500D01*
X87957902Y-67218500D01*
X88418679Y-67126846D01*
X88852721Y-66947060D01*
X89243349Y-66686050D01*
X89575550Y-66353849D01*
X89836560Y-65963221D01*
X90016346Y-65529179D01*
X90108000Y-65068402D01*
X90108000Y-64598598D01*
X90638000Y-64598598D01*
X90638000Y-65068402D01*
X90729654Y-65529179D01*
X90909440Y-65963221D01*
X91170450Y-66353849D01*
X91502651Y-66686050D01*
X91893279Y-66947060D01*
X92327321Y-67126846D01*
X92788098Y-67218500D01*
X93257902Y-67218500D01*
X93718679Y-67126846D01*
X94152721Y-66947060D01*
X94543349Y-66686050D01*
X94875550Y-66353849D01*
X95136560Y-65963221D01*
X95316346Y-65529179D01*
X95408000Y-65068402D01*
X95408000Y-64598598D01*
X95316346Y-64137821D01*
X95136560Y-63703779D01*
X94875550Y-63313151D01*
X94543349Y-62980950D01*
X94152721Y-62719940D01*
X93718679Y-62540154D01*
X93257902Y-62448500D01*
X92788098Y-62448500D01*
X92327321Y-62540154D01*
X91893279Y-62719940D01*
X91502651Y-62980950D01*
X91170450Y-63313151D01*
X90909440Y-63703779D01*
X90729654Y-64137821D01*
X90638000Y-64598598D01*
X90108000Y-64598598D01*
X90016346Y-64137821D01*
X89836560Y-63703779D01*
X89575550Y-63313151D01*
X89243349Y-62980950D01*
X88852721Y-62719940D01*
X88418679Y-62540154D01*
X87957902Y-62448500D01*
X87488098Y-62448500D01*
X87027321Y-62540154D01*
X86593279Y-62719940D01*
X86202651Y-62980950D01*
X85870450Y-63313151D01*
X85609440Y-63703779D01*
X85429654Y-64137821D01*
X85338000Y-64598598D01*
X84808000Y-64598598D01*
X84716346Y-64137821D01*
X84536560Y-63703779D01*
X84275550Y-63313151D01*
X83943349Y-62980950D01*
X83552721Y-62719940D01*
X83118679Y-62540154D01*
X82657902Y-62448500D01*
X82188098Y-62448500D01*
X81727321Y-62540154D01*
X81293279Y-62719940D01*
X80902651Y-62980950D01*
X80570450Y-63313151D01*
X80309440Y-63703779D01*
X80129654Y-64137821D01*
X80038000Y-64598598D01*
X80038000Y-65068402D01*
X80129654Y-65529179D01*
X80309440Y-65963221D01*
X80570450Y-66353849D01*
X80902651Y-66686050D01*
X81293279Y-66947060D01*
X81407001Y-66994165D01*
X81407001Y-68022089D01*
X81402085Y-68072000D01*
X81421702Y-68271170D01*
X81474061Y-68443771D01*
X81479799Y-68462687D01*
X81574141Y-68639190D01*
X81701105Y-68793896D01*
X81739868Y-68825708D01*
X81850160Y-68936000D01*
X76657455Y-68936000D01*
X76699896Y-68913315D01*
X76825771Y-68623377D01*
X75692000Y-67489605D01*
X74558229Y-68623377D01*
X74684104Y-68913315D01*
X74729544Y-68936000D01*
X74066000Y-68936000D01*
X74066000Y-68275455D01*
X74088685Y-68317896D01*
X74378623Y-68443771D01*
X75512395Y-67310000D01*
X75871605Y-67310000D01*
X77005377Y-68443771D01*
X77295315Y-68317896D01*
X77461139Y-67985738D01*
X77558975Y-67627613D01*
X77585065Y-67257281D01*
X77538405Y-66888975D01*
X77420789Y-66536849D01*
X77295315Y-66302104D01*
X77005377Y-66176229D01*
X75871605Y-67310000D01*
X75512395Y-67310000D01*
X74378623Y-66176229D01*
X74088685Y-66302104D01*
X74066000Y-66347544D01*
X74066000Y-65996623D01*
X74558229Y-65996623D01*
X75692000Y-67130395D01*
X76825771Y-65996623D01*
X76699896Y-65706685D01*
X76367738Y-65540861D01*
X76009613Y-65443025D01*
X75639281Y-65416935D01*
X75270975Y-65463595D01*
X74918849Y-65581211D01*
X74684104Y-65706685D01*
X74558229Y-65996623D01*
X74066000Y-65996623D01*
X74066000Y-62796980D01*
X74070294Y-62805014D01*
X74255866Y-63031134D01*
X74481986Y-63216706D01*
X74739966Y-63354599D01*
X75019889Y-63439513D01*
X75238050Y-63461000D01*
X75383950Y-63461000D01*
X75602111Y-63439513D01*
X75882034Y-63354599D01*
X76140014Y-63216706D01*
X76366134Y-63031134D01*
X76551706Y-62805014D01*
X76689599Y-62547034D01*
X76774513Y-62267111D01*
X76803185Y-61976000D01*
X76774513Y-61684889D01*
X76689599Y-61404966D01*
X76551706Y-61146986D01*
X76366134Y-60920866D01*
X76140014Y-60735294D01*
X76085209Y-60706000D01*
X76140014Y-60676706D01*
X76366134Y-60491134D01*
X76398250Y-60452000D01*
X80074520Y-60452000D01*
X80129654Y-60729179D01*
X80309440Y-61163221D01*
X80570450Y-61553849D01*
X80902651Y-61886050D01*
X81293279Y-62147060D01*
X81727321Y-62326846D01*
X82188098Y-62418500D01*
X82657902Y-62418500D01*
X83118679Y-62326846D01*
X83552721Y-62147060D01*
X83943349Y-61886050D01*
X84275550Y-61553849D01*
X84536560Y-61163221D01*
X84716346Y-60729179D01*
X84808000Y-60268402D01*
X84808000Y-59798598D01*
X85338000Y-59798598D01*
X85338000Y-60268402D01*
X85429654Y-60729179D01*
X85609440Y-61163221D01*
X85870450Y-61553849D01*
X86202651Y-61886050D01*
X86593279Y-62147060D01*
X87027321Y-62326846D01*
X87488098Y-62418500D01*
X87957902Y-62418500D01*
X88418679Y-62326846D01*
X88852721Y-62147060D01*
X89243349Y-61886050D01*
X89426290Y-61703109D01*
X91532997Y-61703109D01*
X91719073Y-62044266D01*
X92136409Y-62260013D01*
X92587815Y-62390196D01*
X93055946Y-62429813D01*
X93522811Y-62377342D01*
X93970468Y-62234797D01*
X94326927Y-62044266D01*
X94513003Y-61703109D01*
X93023000Y-60213105D01*
X91532997Y-61703109D01*
X89426290Y-61703109D01*
X89575550Y-61553849D01*
X89836560Y-61163221D01*
X90016346Y-60729179D01*
X90108000Y-60268402D01*
X90108000Y-60066446D01*
X90626687Y-60066446D01*
X90679158Y-60533311D01*
X90821703Y-60980968D01*
X91012234Y-61337427D01*
X91353391Y-61523503D01*
X92843395Y-60033500D01*
X93202605Y-60033500D01*
X94692609Y-61523503D01*
X95033766Y-61337427D01*
X95249513Y-60920091D01*
X95379696Y-60468685D01*
X95419313Y-60000554D01*
X95366842Y-59533689D01*
X95224297Y-59086032D01*
X95033766Y-58729573D01*
X94692609Y-58543497D01*
X93202605Y-60033500D01*
X92843395Y-60033500D01*
X91353391Y-58543497D01*
X91012234Y-58729573D01*
X90796487Y-59146909D01*
X90666304Y-59598315D01*
X90626687Y-60066446D01*
X90108000Y-60066446D01*
X90108000Y-59798598D01*
X90016346Y-59337821D01*
X89836560Y-58903779D01*
X89575550Y-58513151D01*
X89426290Y-58363891D01*
X91532997Y-58363891D01*
X93023000Y-59853895D01*
X94513003Y-58363891D01*
X94326927Y-58022734D01*
X93909591Y-57806987D01*
X93458185Y-57676804D01*
X92990054Y-57637187D01*
X92523189Y-57689658D01*
X92075532Y-57832203D01*
X91719073Y-58022734D01*
X91532997Y-58363891D01*
X89426290Y-58363891D01*
X89243349Y-58180950D01*
X88852721Y-57919940D01*
X88418679Y-57740154D01*
X87957902Y-57648500D01*
X87488098Y-57648500D01*
X87027321Y-57740154D01*
X86593279Y-57919940D01*
X86202651Y-58180950D01*
X85870450Y-58513151D01*
X85609440Y-58903779D01*
X85429654Y-59337821D01*
X85338000Y-59798598D01*
X84808000Y-59798598D01*
X84716346Y-59337821D01*
X84536560Y-58903779D01*
X84275550Y-58513151D01*
X83943349Y-58180950D01*
X83552721Y-57919940D01*
X83118679Y-57740154D01*
X82657902Y-57648500D01*
X82188098Y-57648500D01*
X81727321Y-57740154D01*
X81293279Y-57919940D01*
X80902651Y-58180950D01*
X80663601Y-58420000D01*
X76398250Y-58420000D01*
X76366134Y-58380866D01*
X76140014Y-58195294D01*
X76085209Y-58166000D01*
X76140014Y-58136706D01*
X76366134Y-57951134D01*
X76551706Y-57725014D01*
X76689599Y-57467034D01*
X76774513Y-57187111D01*
X76803185Y-56896000D01*
X76774513Y-56604889D01*
X76689599Y-56324966D01*
X76551706Y-56066986D01*
X76366134Y-55840866D01*
X76140014Y-55655294D01*
X76085209Y-55626000D01*
X76140014Y-55596706D01*
X76366134Y-55411134D01*
X76551706Y-55185014D01*
X76651347Y-54998598D01*
X80038000Y-54998598D01*
X80038000Y-55468402D01*
X80129654Y-55929179D01*
X80309440Y-56363221D01*
X80570450Y-56753849D01*
X80902651Y-57086050D01*
X81293279Y-57347060D01*
X81727321Y-57526846D01*
X82188098Y-57618500D01*
X82657902Y-57618500D01*
X83118679Y-57526846D01*
X83552721Y-57347060D01*
X83943349Y-57086050D01*
X84275550Y-56753849D01*
X84536560Y-56363221D01*
X84716346Y-55929179D01*
X84808000Y-55468402D01*
X84808000Y-54998598D01*
X85338000Y-54998598D01*
X85338000Y-55468402D01*
X85429654Y-55929179D01*
X85609440Y-56363221D01*
X85870450Y-56753849D01*
X86202651Y-57086050D01*
X86593279Y-57347060D01*
X87027321Y-57526846D01*
X87488098Y-57618500D01*
X87957902Y-57618500D01*
X88418679Y-57526846D01*
X88852721Y-57347060D01*
X89243349Y-57086050D01*
X89575550Y-56753849D01*
X89836560Y-56363221D01*
X90016346Y-55929179D01*
X90108000Y-55468402D01*
X90108000Y-54998598D01*
X90016346Y-54537821D01*
X89836560Y-54103779D01*
X89575550Y-53713151D01*
X89243349Y-53380950D01*
X88852721Y-53119940D01*
X88418679Y-52940154D01*
X87957902Y-52848500D01*
X87488098Y-52848500D01*
X87027321Y-52940154D01*
X86593279Y-53119940D01*
X86202651Y-53380950D01*
X85870450Y-53713151D01*
X85609440Y-54103779D01*
X85429654Y-54537821D01*
X85338000Y-54998598D01*
X84808000Y-54998598D01*
X84716346Y-54537821D01*
X84536560Y-54103779D01*
X84275550Y-53713151D01*
X83943349Y-53380950D01*
X83552721Y-53119940D01*
X83118679Y-52940154D01*
X82657902Y-52848500D01*
X82188098Y-52848500D01*
X81727321Y-52940154D01*
X81293279Y-53119940D01*
X80902651Y-53380950D01*
X80570450Y-53713151D01*
X80309440Y-54103779D01*
X80129654Y-54537821D01*
X80038000Y-54998598D01*
X76651347Y-54998598D01*
X76689599Y-54927034D01*
X76774513Y-54647111D01*
X76803185Y-54356000D01*
X76774513Y-54064889D01*
X76689599Y-53784966D01*
X76551706Y-53526986D01*
X76366134Y-53300866D01*
X76140014Y-53115294D01*
X76085209Y-53086000D01*
X76140014Y-53056706D01*
X76366134Y-52871134D01*
X76551706Y-52645014D01*
X76689599Y-52387034D01*
X76774513Y-52107111D01*
X76803185Y-51816000D01*
X76774513Y-51524889D01*
X76689599Y-51244966D01*
X76551706Y-50986986D01*
X76366134Y-50760866D01*
X76336313Y-50736393D01*
X76405180Y-50715502D01*
X76515494Y-50656537D01*
X76597328Y-50589377D01*
X94370229Y-50589377D01*
X94496104Y-50879315D01*
X94828262Y-51045139D01*
X95186387Y-51142975D01*
X95556719Y-51169065D01*
X95925025Y-51122405D01*
X96277151Y-51004789D01*
X96511896Y-50879315D01*
X96637771Y-50589377D01*
X95504000Y-49455605D01*
X94370229Y-50589377D01*
X76597328Y-50589377D01*
X76612185Y-50577185D01*
X76691537Y-50480494D01*
X76750502Y-50370180D01*
X76786812Y-50250482D01*
X76799072Y-50126000D01*
X76796000Y-49561750D01*
X76637250Y-49403000D01*
X75438000Y-49403000D01*
X75438000Y-49423000D01*
X75184000Y-49423000D01*
X75184000Y-49403000D01*
X75164000Y-49403000D01*
X75164000Y-49149000D01*
X75184000Y-49149000D01*
X75184000Y-49129000D01*
X75438000Y-49129000D01*
X75438000Y-49149000D01*
X76637250Y-49149000D01*
X76796000Y-48990250D01*
X76799072Y-48426000D01*
X76786812Y-48301518D01*
X76750502Y-48181820D01*
X76691537Y-48071506D01*
X76612185Y-47974815D01*
X76525896Y-47904000D01*
X77779525Y-47904000D01*
X77703038Y-47980487D01*
M02*
